SplineFontDB: 3.2
FontName: RisingSun-ThinItalic
FullName: Rising Sun Thin Italic
FamilyName: Rising Sun Thin
Weight: Thin
Copyright: Copyright (c) 2012, The Raleway Project Authors (matt@pixelspread.com)
Version: 4.322
ItalicAngle: -12
UnderlinePosition: -125
UnderlineWidth: 50
Ascent: 800
Descent: 200
InvalidEm: 0
sfntRevision: 0x0004526e
LayerCount: 2
Layer: 0 1 "Back" 1
Layer: 1 1 "Fore" 0
XUID: [1021 158 994486733 8608453]
StyleMap: 0x0001
FSType: 0
OS2Version: 4
OS2_WeightWidthSlopeOnly: 0
OS2_UseTypoMetrics: 1
CreationTime: 1683073834
ModificationTime: 1710188332
PfmFamily: 81
TTFWeight: 100
TTFWidth: 5
LineGap: 21
VLineGap: 0
Panose: 0 0 0 0 0 0 0 0 0 0
OS2TypoAscent: 923
OS2TypoAOffset: 0
OS2TypoDescent: -213
OS2TypoDOffset: 0
OS2TypoLinegap: 21
OS2WinAscent: 944
OS2WinAOffset: 0
OS2WinDescent: 234
OS2WinDOffset: 0
HheadAscent: 923
HheadAOffset: 0
HheadDescent: -213
HheadDOffset: 0
OS2SubXSize: 650
OS2SubYSize: 600
OS2SubXOff: 0
OS2SubYOff: 75
OS2SupXSize: 650
OS2SupYSize: 600
OS2SupXOff: 0
OS2SupYOff: 350
OS2StrikeYSize: 50
OS2StrikeYPos: 300
OS2CapHeight: 710
OS2XHeight: 519
OS2Vendor: '    '
OS2CodePages: 2000019f.00000000
OS2UnicodeRanges: a00002ff.4000205b.00000000.00000000
Lookup: 1 0 0 "'aalt' Access All Alternates lookup 0" { "'aalt' Access All Alternates lookup 0 subtable"  } ['aalt' ('DFLT' <'dflt' > 'cyrl' <'BGR ' 'MKD ' 'SRB ' 'dflt' > 'latn' <'AZE ' 'CAT ' 'CRT ' 'KAZ ' 'MOL ' 'ROM ' 'TAT ' 'TRK ' 'dflt' > ) ]
Lookup: 3 0 0 "'aalt' Access All Alternates lookup 1" { "'aalt' Access All Alternates lookup 1 subtable"  } ['aalt' ('DFLT' <'dflt' > 'cyrl' <'BGR ' 'MKD ' 'SRB ' 'dflt' > 'latn' <'AZE ' 'CAT ' 'CRT ' 'KAZ ' 'MOL ' 'ROM ' 'TAT ' 'TRK ' 'dflt' > ) ]

StartChar: .notdef
Encoding: 65536 -1 0
Width: 608
GlyphClass: 1
Flags: W
LayerCount: 2
Fore
SplineSet
558 689 m 2,0,1
 558 699 558 699 553 704.5 c 128,-1,2
 548 710 548 710 540 710 c 2,3,-1
 69 710 l 2,4,5
 61 710 61 710 55.5 704 c 128,-1,6
 50 698 50 698 50 687 c 2,7,-1
 50 25 l 2,8,9
 50 12 50 12 55.5 6 c 128,-1,10
 61 0 61 0 77 0 c 2,11,-1
 525 0 l 2,12,13
 542 0 542 0 550 6.5 c 128,-1,14
 558 13 558 13 558 29 c 2,15,-1
 558 689 l 2,0,1
506 74 m 2,16,17
 506 61 506 61 499 55.5 c 128,-1,18
 492 50 492 50 478 50 c 2,19,-1
 125 50 l 2,20,21
 111 50 111 50 106.5 55 c 128,-1,22
 102 60 102 60 102 71 c 2,23,-1
 102 641 l 2,24,25
 102 650 102 650 106.5 655 c 128,-1,26
 111 660 111 660 118 660 c 2,27,-1
 491 660 l 2,28,29
 498 660 498 660 502 655 c 128,-1,30
 506 650 506 650 506 642 c 2,31,-1
 506 74 l 2,16,17
538 33 m 1,32,-1
 123 696 l 1,33,-1
 71 669 l 1,34,-1
 478 28 l 1,35,-1
 538 33 l 1,32,-1
EndSplineSet
EndChar

StartChar: exclam
Encoding: 33 33 4
Width: 224
GlyphClass: 1
Flags: W
LayerCount: 2
Fore
SplineSet
10 29 m 0,0,1
 9 22 9 22 10 15.5 c 128,-1,2
 11 9 11 9 15 4.5 c 128,-1,3
 19 0 19 0 24.5 -2.5 c 128,-1,4
 30 -5 30 -5 37 -5 c 256,5,6
 44 -5 44 -5 51 -2.5 c 128,-1,7
 58 0 58 0 63.5 4.5 c 128,-1,8
 69 9 69 9 73 15.5 c 128,-1,9
 77 22 77 22 78 29 c 0,10,11
 80 36 80 36 78.5 42 c 128,-1,12
 77 48 77 48 73.5 52.5 c 128,-1,13
 70 57 70 57 64.5 59.5 c 128,-1,14
 59 62 59 62 52 62 c 256,15,16
 45 62 45 62 38 59.5 c 128,-1,17
 31 57 31 57 25.5 52.5 c 128,-1,18
 20 48 20 48 16 42 c 128,-1,19
 12 36 12 36 10 29 c 0,0,1
91 200 m 1,20,-1
 134 400 l 1,21,-1
 201 717 l 1,22,-1
 181 717 l 1,23,-1
 114 400 l 1,24,-1
 71 200 l 1,25,-1
 91 200 l 1,20,-1
EndSplineSet
EndChar

StartChar: quotedbl
Encoding: 34 34 5
Width: 332
GlyphClass: 1
Flags: W
LayerCount: 2
Fore
SplineSet
156 565 m 1,0,-1
 180 565 l 1,1,-1
 244 710 l 1,2,-1
 208 710 l 1,3,-1
 156 565 l 1,0,-1
222 565 m 1,4,-1
 246 565 l 1,5,-1
 310 710 l 1,6,-1
 274 710 l 1,7,-1
 222 565 l 1,4,-1
EndSplineSet
EndChar

StartChar: numbersign
Encoding: 35 35 6
Width: 623
GlyphClass: 1
Flags: W
LayerCount: 2
Fore
SplineSet
627 501 m 1,0,-1
 520 501 l 1,1,-1
 614 710 l 1,2,-1
 593 710 l 1,3,-1
 500 501 l 1,4,-1
 273 501 l 1,5,-1
 367 710 l 1,6,-1
 346 710 l 1,7,-1
 254 501 l 1,8,-1
 120 501 l 1,9,-1
 115 481 l 1,10,-1
 244 481 l 1,11,-1
 139 241 l 1,12,-1
 26 241 l 1,13,-1
 22 221 l 1,14,-1
 129 221 l 1,15,-1
 31 0 l 1,16,-1
 52 0 l 1,17,-1
 149 221 l 1,18,-1
 376 221 l 1,19,-1
 278 0 l 1,20,-1
 299 0 l 1,21,-1
 396 221 l 1,22,-1
 530 221 l 1,23,-1
 534 241 l 1,24,-1
 405 241 l 1,25,-1
 511 481 l 1,26,-1
 623 481 l 1,27,-1
 627 501 l 1,0,-1
158 241 m 1,28,-1
 264 481 l 1,29,-1
 491 481 l 1,30,-1
 385 241 l 1,31,-1
 158 241 l 1,28,-1
EndSplineSet
EndChar

StartChar: dollar
Encoding: 36 36 7
Width: 589
GlyphClass: 1
Flags: W
LayerCount: 2
Fore
SplineSet
205 -93 m 1,0,-1
 225 -93 l 1,1,-1
 244 0 l 1,2,-1
 225 0 l 1,3,-1
 205 -93 l 1,0,-1
245 4 m 1,4,-1
 395 708 l 1,5,-1
 375 706 l 1,6,-1
 226 5 l 1,7,-1
 245 4 l 1,4,-1
374 702 m 1,8,-1
 394 704 l 1,9,-1
 418 815 l 1,10,-1
 398 815 l 1,11,-1
 374 702 l 1,8,-1
577 630 m 1,12,13
 562 653 562 653 543.5 669 c 128,-1,14
 525 685 525 685 502.5 695.5 c 128,-1,15
 480 706 480 706 453 710.5 c 128,-1,16
 426 715 426 715 394 715 c 0,17,18
 332 715 332 715 280.5 699.5 c 128,-1,19
 229 684 229 684 191.5 655 c 128,-1,20
 154 626 154 626 133.5 584.5 c 128,-1,21
 113 543 113 543 113 491 c 0,22,23
 113 457 113 457 126.5 433.5 c 128,-1,24
 140 410 140 410 165.5 394 c 128,-1,25
 191 378 191 378 228 367 c 128,-1,26
 265 356 265 356 312 346 c 0,27,28
 360 336 360 336 396 323.5 c 128,-1,29
 432 311 432 311 456 294.5 c 128,-1,30
 480 278 480 278 492 255.5 c 128,-1,31
 504 233 504 233 504 203 c 0,32,33
 504 156 504 156 486 120.5 c 128,-1,34
 468 85 468 85 435 61 c 128,-1,35
 402 37 402 37 355 24.5 c 128,-1,36
 308 12 308 12 250 12 c 0,37,38
 211 12 211 12 178.5 18 c 128,-1,39
 146 24 146 24 118 37 c 128,-1,40
 90 50 90 50 66.5 70 c 128,-1,41
 43 90 43 90 23 118 c 1,42,-1
 6 105 l 1,43,44
 27 77 27 77 52 56 c 128,-1,45
 77 35 77 35 106 21.5 c 128,-1,46
 135 8 135 8 170 1.5 c 128,-1,47
 205 -5 205 -5 245 -5 c 0,48,49
 308 -5 308 -5 360 9.5 c 128,-1,50
 412 24 412 24 448.5 51.5 c 128,-1,51
 485 79 485 79 505 118.5 c 128,-1,52
 525 158 525 158 525 208 c 0,53,54
 525 244 525 244 510 269.5 c 128,-1,55
 495 295 495 295 467.5 312.5 c 128,-1,56
 440 330 440 330 401.5 342.5 c 128,-1,57
 363 355 363 355 316 365 c 0,58,59
 270 376 270 376 235.5 386.5 c 128,-1,60
 201 397 201 397 178.5 411.5 c 128,-1,61
 156 426 156 426 145 446 c 128,-1,62
 134 466 134 466 134 495 c 0,63,64
 134 537 134 537 148.5 573.5 c 128,-1,65
 163 610 163 610 194 637.5 c 128,-1,66
 225 665 225 665 274 680.5 c 128,-1,67
 323 696 323 696 392 696 c 0,68,69
 422 696 422 696 446.5 692 c 128,-1,70
 471 688 471 688 491.5 679 c 128,-1,71
 512 670 512 670 529 654.5 c 128,-1,72
 546 639 546 639 561 616 c 1,73,-1
 577 630 l 1,12,13
EndSplineSet
EndChar

StartChar: percent
Encoding: 37 37 8
Width: 644
GlyphClass: 1
Flags: W
LayerCount: 2
Fore
SplineSet
210 444 m 0,0,1
 241 444 241 444 270.5 457 c 128,-1,2
 300 470 300 470 323 492.5 c 128,-1,3
 346 515 346 515 360 544.5 c 128,-1,4
 374 574 374 574 374 607 c 0,5,6
 374 631 374 631 366.5 651.5 c 128,-1,7
 359 672 359 672 345 687 c 128,-1,8
 331 702 331 702 311.5 711 c 128,-1,9
 292 720 292 720 269 720 c 0,10,11
 238 720 238 720 208.5 707 c 128,-1,12
 179 694 179 694 156 671.5 c 128,-1,13
 133 649 133 649 119 619.5 c 128,-1,14
 105 590 105 590 105 557 c 0,15,16
 105 533 105 533 112.5 512.5 c 128,-1,17
 120 492 120 492 134 477 c 128,-1,18
 148 462 148 462 167 453 c 128,-1,19
 186 444 186 444 210 444 c 0,0,1
214 464 m 0,20,21
 175 464 175 464 150 491.5 c 128,-1,22
 125 519 125 519 125 561 c 0,23,24
 125 588 125 588 136.5 613 c 128,-1,25
 148 638 148 638 167.5 657.5 c 128,-1,26
 187 677 187 677 212 688.5 c 128,-1,27
 237 700 237 700 264 700 c 0,28,29
 302 700 302 700 328 672.5 c 128,-1,30
 354 645 354 645 354 603 c 0,31,32
 354 576 354 576 342 551 c 128,-1,33
 330 526 330 526 310.5 506.5 c 128,-1,34
 291 487 291 487 266 475.5 c 128,-1,35
 241 464 241 464 214 464 c 0,20,21
398 -10 m 0,36,37
 429 -10 429 -10 458.5 3 c 128,-1,38
 488 16 488 16 511 38.5 c 128,-1,39
 534 61 534 61 548 90.5 c 128,-1,40
 562 120 562 120 562 153 c 0,41,42
 562 177 562 177 554.5 197.5 c 128,-1,43
 547 218 547 218 533 233 c 128,-1,44
 519 248 519 248 499.5 257 c 128,-1,45
 480 266 480 266 457 266 c 0,46,47
 426 266 426 266 396.5 253 c 128,-1,48
 367 240 367 240 344 217.5 c 128,-1,49
 321 195 321 195 307 165.5 c 128,-1,50
 293 136 293 136 293 103 c 0,51,52
 293 79 293 79 300.5 58.5 c 128,-1,53
 308 38 308 38 322 22.5 c 128,-1,54
 336 7 336 7 355.5 -1.5 c 128,-1,55
 375 -10 375 -10 398 -10 c 0,36,37
402 10 m 0,56,57
 362 10 362 10 337.5 37.5 c 128,-1,58
 313 65 313 65 313 106 c 0,59,60
 313 133 313 133 325 158.5 c 128,-1,61
 337 184 337 184 356.5 203.5 c 128,-1,62
 376 223 376 223 401 234.5 c 128,-1,63
 426 246 426 246 453 246 c 0,64,65
 491 246 491 246 516.5 218 c 128,-1,66
 542 190 542 190 542 148 c 0,67,68
 542 121 542 121 530 96.5 c 128,-1,69
 518 72 518 72 498.5 52.5 c 128,-1,70
 479 33 479 33 454 21.5 c 128,-1,71
 429 10 429 10 402 10 c 0,56,57
0 -1 m 1,72,-1
 325 334 l 1,73,-1
 679 699 l 1,74,-1
 666 711 l 1,75,-1
 313 347 l 1,76,-1
 -13 11 l 1,77,-1
 0 -1 l 1,72,-1
EndSplineSet
EndChar

StartChar: ampersand
Encoding: 38 38 9
Width: 668
GlyphClass: 1
Flags: W
LayerCount: 2
Fore
SplineSet
188 -10 m 0,0,1
 250 -10 250 -10 309 22.5 c 128,-1,2
 368 55 368 55 418 112.5 c 128,-1,3
 468 170 468 170 504.5 248 c 128,-1,4
 541 326 541 326 558 416 c 1,5,-1
 536 416 l 1,6,7
 520 331 520 331 485.5 257 c 128,-1,8
 451 183 451 183 404.5 128.5 c 128,-1,9
 358 74 358 74 303 42.5 c 128,-1,10
 248 11 248 11 191 11 c 0,11,12
 125 11 125 11 83.5 51.5 c 128,-1,13
 42 92 42 92 42 158 c 0,14,15
 42 192 42 192 54 223 c 128,-1,16
 66 254 66 254 91.5 284 c 128,-1,17
 117 314 117 314 157 343.5 c 128,-1,18
 197 373 197 373 252 403 c 1,19,-1
 239 418 l 1,20,21
 179 385 179 385 137 353.5 c 128,-1,22
 95 322 95 322 69 289.5 c 128,-1,23
 43 257 43 257 31.5 224 c 128,-1,24
 20 191 20 191 20 156 c 0,25,26
 20 119 20 119 32.5 88.5 c 128,-1,27
 45 58 45 58 67 36 c 128,-1,28
 89 14 89 14 120 2 c 128,-1,29
 151 -10 151 -10 188 -10 c 0,0,1
507 0 m 1,30,-1
 536 0 l 1,31,-1
 246 415 l 2,32,33
 230 438 230 438 218 458 c 128,-1,34
 206 478 206 478 198.5 495 c 128,-1,35
 191 512 191 512 187.5 527 c 128,-1,36
 184 542 184 542 184 555 c 0,37,38
 184 584 184 584 198.5 610 c 128,-1,39
 213 636 213 636 237 656.5 c 128,-1,40
 261 677 261 677 292 689 c 128,-1,41
 323 701 323 701 357 701 c 0,42,43
 408 701 408 701 446.5 675 c 128,-1,44
 485 649 485 649 505 602 c 1,45,-1
 519 614 l 1,46,47
 508 639 508 639 492 658.5 c 128,-1,48
 476 678 476 678 455.5 691.5 c 128,-1,49
 435 705 435 705 411 712 c 128,-1,50
 387 719 387 719 360 719 c 0,51,52
 321 719 321 719 285.5 705.5 c 128,-1,53
 250 692 250 692 223 669 c 128,-1,54
 196 646 196 646 180 616.5 c 128,-1,55
 164 587 164 587 164 554 c 0,56,57
 164 538 164 538 168.5 520.5 c 128,-1,58
 173 503 173 503 183.5 481 c 128,-1,59
 194 459 194 459 211.5 431.5 c 128,-1,60
 229 404 229 404 254 367 c 2,61,-1
 507 0 l 1,30,-1
542 396 m 1,62,-1
 652 396 l 1,63,-1
 656 416 l 1,64,-1
 546 416 l 1,65,-1
 542 396 l 1,62,-1
EndSplineSet
EndChar

StartChar: quotesingle
Encoding: 39 39 10
Width: 166
GlyphClass: 1
Flags: W
LayerCount: 2
Fore
SplineSet
130 565 m 1,0,-1
 194 710 l 1,1,-1
 158 710 l 1,2,-1
 106 565 l 1,3,-1
 130 565 l 1,0,-1
EndSplineSet
EndChar

StartChar: parenleft
Encoding: 40 40 11
Width: 228
GlyphClass: 1
Flags: W
LayerCount: 2
Fore
SplineSet
49 256 m 0,0,1
 49 223 49 223 52.5 187 c 128,-1,2
 56 151 56 151 63.5 115 c 128,-1,3
 71 79 71 79 82 43 c 128,-1,4
 93 7 93 7 108 -26 c 1,5,-1
 126 -14 l 1,6,7
 112 18 112 18 101 53.5 c 128,-1,8
 90 89 90 89 83 125.5 c 128,-1,9
 76 162 76 162 72.5 197.5 c 128,-1,10
 69 233 69 233 69 264 c 0,11,12
 69 323 69 323 89 385.5 c 128,-1,13
 109 448 109 448 140 507 c 128,-1,14
 171 566 171 566 208.5 619.5 c 128,-1,15
 246 673 246 673 281 714 c 1,16,-1
 268 726 l 1,17,18
 223 669 223 669 183.5 613.5 c 128,-1,19
 144 558 144 558 114 501 c 128,-1,20
 84 444 84 444 66.5 383.5 c 128,-1,21
 49 323 49 323 49 256 c 0,0,1
EndSplineSet
EndChar

StartChar: parenright
Encoding: 41 41 12
Width: 228
GlyphClass: 1
Flags: W
LayerCount: 2
Fore
SplineSet
198 433 m 0,0,1
 198 508 198 508 181.5 583.5 c 128,-1,2
 165 659 165 659 141 726 c 1,3,-1
 123 714 l 1,4,5
 134 688 134 688 144 653 c 128,-1,6
 154 618 154 618 161.5 579.5 c 128,-1,7
 169 541 169 541 173 501 c 128,-1,8
 177 461 177 461 177 424 c 0,9,10
 177 371 177 371 162 316 c 128,-1,11
 147 261 147 261 119.5 205.5 c 128,-1,12
 92 150 92 150 53.5 94.5 c 128,-1,13
 15 39 15 39 -32 -14 c 1,14,-1
 -19 -26 l 1,15,16
 33 34 33 34 73.5 91 c 128,-1,17
 114 148 114 148 141.5 204.5 c 128,-1,18
 169 261 169 261 183.5 317.5 c 128,-1,19
 198 374 198 374 198 433 c 0,0,1
EndSplineSet
EndChar

StartChar: asterisk
Encoding: 42 42 13
Width: 293
GlyphClass: 1
Flags: W
LayerCount: 2
Fore
SplineSet
157 552 m 1,0,-1
 208 609 l 1,1,-1
 235 552 l 1,2,-1
 254 564 l 1,3,-1
 226 621 l 1,4,-1
 294 643 l 1,5,-1
 294 662 l 1,6,-1
 224 640 l 1,7,-1
 239 710 l 1,8,-1
 220 710 l 1,9,-1
 205 640 l 1,10,-1
 146 662 l 1,11,-1
 136 643 l 1,12,-1
 195 621 l 1,13,-1
 144 564 l 1,14,-1
 157 552 l 1,0,-1
EndSplineSet
EndChar

StartChar: plus
Encoding: 43 43 14
Width: 410
GlyphClass: 1
Flags: W
LayerCount: 2
Fore
SplineSet
225 365 m 1,0,-1
 225 515 l 1,1,-1
 205 515 l 1,2,-1
 205 365 l 1,3,-1
 65 365 l 1,4,-1
 65 345 l 1,5,-1
 205 345 l 1,6,-1
 205 195 l 1,7,-1
 225 195 l 1,8,-1
 225 345 l 1,9,-1
 365 345 l 1,10,-1
 365 365 l 1,11,-1
 225 365 l 1,0,-1
EndSplineSet
EndChar

StartChar: comma
Encoding: 44 44 15
Width: 260
GlyphClass: 1
Flags: W
LayerCount: 2
Fore
SplineSet
78 -160 m 1,0,-1
 180 100 l 1,1,-1
 144 100 l 1,2,-1
 54 -160 l 1,3,-1
 78 -160 l 1,0,-1
EndSplineSet
EndChar

StartChar: hyphen
Encoding: 45 45 16
Width: 404
GlyphClass: 1
Flags: W
LayerCount: 2
Fore
SplineSet
328 261 m 1,0,-1
 332 281 l 1,1,-1
 63 281 l 1,2,-1
 59 261 l 1,3,-1
 328 261 l 1,0,-1
EndSplineSet
EndChar

StartChar: period
Encoding: 46 46 17
Width: 158
GlyphClass: 1
Flags: W
LayerCount: 2
Fore
SplineSet
44 29 m 256,0,1
 41 15 41 15 49 5 c 128,-1,2
 57 -5 57 -5 71 -5 c 256,3,4
 85 -5 85 -5 97 5 c 128,-1,5
 109 15 109 15 112 29 c 256,6,7
 115 43 115 43 107.5 52.5 c 128,-1,8
 100 62 100 62 85 62 c 0,9,10
 71 62 71 62 59 52.5 c 128,-1,11
 47 43 47 43 44 29 c 256,0,1
EndSplineSet
EndChar

StartChar: slash
Encoding: 47 47 18
Width: 531
GlyphClass: 1
Flags: W
LayerCount: 2
Fore
SplineSet
558 710 m 1,0,-1
 -26 0 l 1,1,-1
 -1 0 l 1,2,-1
 583 710 l 1,3,-1
 558 710 l 1,0,-1
EndSplineSet
Substitution2: "'frac' Diagonal Fractions lookup 23 subtable" fraction
Substitution2: "'aalt' Access All Alternates lookup 0 subtable" fraction
EndChar

StartChar: zero
Encoding: 48 48 19
Width: 642
GlyphClass: 1
Flags: W
LayerCount: 2
Fore
SplineSet
255 -10 m 0,0,1
 327 -10 327 -10 391.5 30 c 128,-1,2
 456 70 456 70 504.5 133.5 c 128,-1,3
 553 197 553 197 581 274.5 c 128,-1,4
 609 352 609 352 609 427 c 0,5,6
 609 477 609 477 597.5 527 c 128,-1,7
 586 577 586 577 562 618 c 128,-1,8
 538 659 538 659 500 684.5 c 128,-1,9
 462 710 462 710 408 710 c 0,10,11
 336 710 336 710 271.5 669.5 c 128,-1,12
 207 629 207 629 158.5 565.5 c 128,-1,13
 110 502 110 502 81.5 424.5 c 128,-1,14
 53 347 53 347 53 272 c 0,15,16
 53 222 53 222 64.5 171.5 c 128,-1,17
 76 121 76 121 100.5 80.5 c 128,-1,18
 125 40 125 40 163.5 15 c 128,-1,19
 202 -10 202 -10 255 -10 c 0,0,1
259 10 m 0,20,21
 210 10 210 10 175.5 31 c 128,-1,22
 141 52 141 52 118.5 87 c 128,-1,23
 96 122 96 122 85.5 168 c 128,-1,24
 75 214 75 214 75 263 c 0,25,26
 75 329 75 329 99.5 403.5 c 128,-1,27
 124 478 124 478 168 542 c 128,-1,28
 212 606 212 606 272 648 c 128,-1,29
 332 690 332 690 404 690 c 0,30,31
 451 690 451 690 485.5 667 c 128,-1,32
 520 644 520 644 543 606.5 c 128,-1,33
 566 569 566 569 577.5 521.5 c 128,-1,34
 589 474 589 474 589 424 c 0,35,36
 589 361 589 361 564.5 288.5 c 128,-1,37
 540 216 540 216 496 154 c 128,-1,38
 452 92 452 92 391.5 51 c 128,-1,39
 331 10 331 10 259 10 c 0,20,21
EndSplineSet
Substitution2: "'frac' Diagonal Fractions lookup 24 subtable" zero.numr
Substitution2: "'dnom' Denominators lookup 22 subtable" zero.dnom
Substitution2: "'numr' Numerators lookup 21 subtable" zero.numr
Substitution2: "'sups' Superscript lookup 20 subtable" uni2070
Substitution2: "'sinf' Scientific Inferiors lookup 19 subtable" zero.subs
Substitution2: "'subs' Subscript lookup 18 subtable" uni2080
AlternateSubs2: "'aalt' Access All Alternates lookup 1 subtable" uni2080 zero.subs uni2070 zero.numr zero.dnom
EndChar

StartChar: one
Encoding: 49 49 20
Width: 327
GlyphClass: 1
Flags: W
LayerCount: 2
Fore
SplineSet
123 0 m 1,0,-1
 143 0 l 1,1,-1
 296 720 l 1,2,-1
 275 720 l 2,3,4
 274 719 274 719 257 703 c 128,-1,5
 240 687 240 687 215 669 c 128,-1,6
 190 651 190 651 161 636 c 128,-1,7
 132 621 132 621 107 621 c 1,8,-1
 103 601 l 1,9,10
 122 601 122 601 146.5 610 c 128,-1,11
 171 619 171 619 194.5 632.5 c 128,-1,12
 218 646 218 646 238 660.5 c 128,-1,13
 258 675 258 675 268 687 c 1,14,-1
 123 0 l 1,0,-1
EndSplineSet
Substitution2: "'frac' Diagonal Fractions lookup 24 subtable" one.numr
Substitution2: "'dnom' Denominators lookup 22 subtable" one.dnom
Substitution2: "'numr' Numerators lookup 21 subtable" one.numr
Substitution2: "'sups' Superscript lookup 20 subtable" onesuperior
Substitution2: "'sinf' Scientific Inferiors lookup 19 subtable" one.subs
Substitution2: "'subs' Subscript lookup 18 subtable" uni2081
AlternateSubs2: "'aalt' Access All Alternates lookup 1 subtable" uni2081 one.subs onesuperior one.numr one.dnom
EndChar

StartChar: two
Encoding: 50 50 21
Width: 533
GlyphClass: 1
Flags: W
LayerCount: 2
Fore
SplineSet
-12 0 m 1,0,-1
 419 0 l 1,1,-1
 423 20 l 1,2,-1
 12 20 l 1,3,4
 17 49 17 49 29 86.5 c 128,-1,5
 41 124 41 124 67 162.5 c 128,-1,6
 93 201 93 201 137.5 237.5 c 128,-1,7
 182 274 182 274 252 301 c 0,8,9
 292 317 292 317 341 333.5 c 128,-1,10
 390 350 390 350 433 377.5 c 128,-1,11
 476 405 476 405 505 448 c 128,-1,12
 534 491 534 491 534 559 c 0,13,14
 534 590 534 590 524.5 619 c 128,-1,15
 515 648 515 648 495 670 c 128,-1,16
 475 692 475 692 444.5 705.5 c 128,-1,17
 414 719 414 719 371 719 c 0,18,19
 314 719 314 719 268.5 699.5 c 128,-1,20
 223 680 223 680 190.5 657 c 128,-1,21
 158 634 158 634 140.5 614 c 128,-1,22
 123 594 123 594 123 593 c 2,23,-1
 137 583 l 1,24,25
 150 598 150 598 170.5 618 c 128,-1,26
 191 638 191 638 219.5 656 c 128,-1,27
 248 674 248 674 284.5 686.5 c 128,-1,28
 321 699 321 699 365 699 c 0,29,30
 404 699 404 699 432 687 c 128,-1,31
 460 675 460 675 478 655.5 c 128,-1,32
 496 636 496 636 504.5 610.5 c 128,-1,33
 513 585 513 585 513 557 c 0,34,35
 513 496 513 496 487.5 457 c 128,-1,36
 462 418 462 418 423 393 c 128,-1,37
 384 368 384 368 337 352 c 128,-1,38
 290 336 290 336 247 319 c 0,39,40
 200 301 200 301 157.5 274.5 c 128,-1,41
 115 248 115 248 80.5 210 c 128,-1,42
 46 172 46 172 22 120.5 c 128,-1,43
 -2 69 -2 69 -12 0 c 1,0,-1
EndSplineSet
Substitution2: "'frac' Diagonal Fractions lookup 24 subtable" two.numr
Substitution2: "'dnom' Denominators lookup 22 subtable" two.dnom
Substitution2: "'numr' Numerators lookup 21 subtable" two.numr
Substitution2: "'sups' Superscript lookup 20 subtable" twosuperior
Substitution2: "'sinf' Scientific Inferiors lookup 19 subtable" two.subs
Substitution2: "'subs' Subscript lookup 18 subtable" uni2082
AlternateSubs2: "'aalt' Access All Alternates lookup 1 subtable" uni2082 two.subs twosuperior two.numr two.dnom
EndChar

StartChar: three
Encoding: 51 51 22
Width: 490
GlyphClass: 1
Flags: W
LayerCount: 2
Fore
SplineSet
182 -9 m 0,0,1
 233 -9 233 -9 278 8.5 c 128,-1,2
 323 26 323 26 357 57.5 c 128,-1,3
 391 89 391 89 410.5 131.5 c 128,-1,4
 430 174 430 174 430 225 c 0,5,6
 430 284 430 284 400 325 c 128,-1,7
 370 366 370 366 315 374 c 1,8,9
 362 379 362 379 395.5 395.5 c 128,-1,10
 429 412 429 412 450 437.5 c 128,-1,11
 471 463 471 463 481 495.5 c 128,-1,12
 491 528 491 528 491 565 c 0,13,14
 491 597 491 597 480 624.5 c 128,-1,15
 469 652 469 652 448.5 672 c 128,-1,16
 428 692 428 692 399.5 703 c 128,-1,17
 371 714 371 714 335 714 c 0,18,19
 302 714 302 714 270.5 705 c 128,-1,20
 239 696 239 696 211 679.5 c 128,-1,21
 183 663 183 663 160 640 c 128,-1,22
 137 617 137 617 121 588 c 1,23,-1
 137 581 l 1,24,25
 167 632 167 632 219 663 c 128,-1,26
 271 694 271 694 331 694 c 0,27,28
 394 694 394 694 432 657 c 128,-1,29
 470 620 470 620 470 560 c 0,30,31
 470 520 470 520 456 487.5 c 128,-1,32
 442 455 442 455 415.5 432.5 c 128,-1,33
 389 410 389 410 350.5 397.5 c 128,-1,34
 312 385 312 385 263 385 c 2,35,-1
 183 385 l 1,36,-1
 179 365 l 1,37,-1
 258 365 l 2,38,39
 332 365 332 365 371.5 327.5 c 128,-1,40
 411 290 411 290 411 226 c 0,41,42
 411 179 411 179 394 139.5 c 128,-1,43
 377 100 377 100 347.5 71.5 c 128,-1,44
 318 43 318 43 277 27 c 128,-1,45
 236 11 236 11 188 11 c 0,46,47
 122 11 122 11 79 42.5 c 128,-1,48
 36 74 36 74 31 126 c 1,49,-1
 11 119 l 1,50,51
 19 60 19 60 65 25.5 c 128,-1,52
 111 -9 111 -9 182 -9 c 0,0,1
EndSplineSet
Substitution2: "'frac' Diagonal Fractions lookup 24 subtable" three.numr
Substitution2: "'dnom' Denominators lookup 22 subtable" three.dnom
Substitution2: "'numr' Numerators lookup 21 subtable" three.numr
Substitution2: "'sups' Superscript lookup 20 subtable" threesuperior
Substitution2: "'sinf' Scientific Inferiors lookup 19 subtable" three.subs
Substitution2: "'subs' Subscript lookup 18 subtable" uni2083
AlternateSubs2: "'aalt' Access All Alternates lookup 1 subtable" uni2083 three.subs threesuperior three.numr three.dnom
EndChar

StartChar: four
Encoding: 52 52 23
Width: 527
GlyphClass: 1
Flags: W
LayerCount: 2
Fore
SplineSet
347 0 m 1,0,-1
 392 211 l 1,1,-1
 476 211 l 1,2,-1
 480 231 l 1,3,-1
 396 231 l 1,4,-1
 498 710 l 1,5,-1
 484 710 l 1,6,-1
 11 228 l 1,7,-1
 7 211 l 1,8,-1
 372 211 l 1,9,-1
 327 0 l 1,10,-1
 347 0 l 1,0,-1
39 231 m 1,11,-1
 470 673 l 1,12,-1
 376 231 l 1,13,-1
 39 231 l 1,11,-1
EndSplineSet
Substitution2: "'frac' Diagonal Fractions lookup 24 subtable" four.numr
Substitution2: "'dnom' Denominators lookup 22 subtable" four.dnom
Substitution2: "'numr' Numerators lookup 21 subtable" four.numr
Substitution2: "'sups' Superscript lookup 20 subtable" uni2074
Substitution2: "'sinf' Scientific Inferiors lookup 19 subtable" four.subs
Substitution2: "'subs' Subscript lookup 18 subtable" uni2084
AlternateSubs2: "'aalt' Access All Alternates lookup 1 subtable" uni2084 four.subs uni2074 four.numr four.dnom
EndChar

StartChar: five
Encoding: 53 53 24
Width: 533
GlyphClass: 1
Flags: W
LayerCount: 2
Fore
SplineSet
194 -10 m 0,0,1
 245 -10 245 -10 295 10.5 c 128,-1,2
 345 31 345 31 384 67 c 128,-1,3
 423 103 423 103 447.5 153 c 128,-1,4
 472 203 472 203 472 263 c 0,5,6
 472 304 472 304 459 337.5 c 128,-1,7
 446 371 446 371 422.5 395 c 128,-1,8
 399 419 399 419 367 432 c 128,-1,9
 335 445 335 445 296 445 c 0,10,11
 245 445 245 445 195 424.5 c 128,-1,12
 145 404 145 404 103 365 c 1,13,-1
 233 690 l 1,14,-1
 537 690 l 1,15,-1
 541 710 l 1,16,-1
 221 710 l 1,17,18
 221 710 221 710 211 685 c 128,-1,19
 201 660 201 660 185 621.5 c 128,-1,20
 169 583 169 583 150.5 536.5 c 128,-1,21
 132 490 132 490 114.5 447.5 c 128,-1,22
 97 405 97 405 83.5 372 c 128,-1,23
 70 339 70 339 65 327 c 1,24,-1
 89 327 l 1,25,26
 131 375 131 375 184 400 c 128,-1,27
 237 425 237 425 291 425 c 0,28,29
 327 425 327 425 356.5 413 c 128,-1,30
 386 401 386 401 407 379 c 128,-1,31
 428 357 428 357 440 326.5 c 128,-1,32
 452 296 452 296 452 260 c 0,33,34
 452 207 452 207 430.5 161 c 128,-1,35
 409 115 409 115 373.5 81.5 c 128,-1,36
 338 48 338 48 292 29 c 128,-1,37
 246 10 246 10 198 10 c 0,38,39
 135 10 135 10 91 44.5 c 128,-1,40
 47 79 47 79 33 136 c 1,41,-1
 14 132 l 1,42,43
 28 66 28 66 75 28 c 128,-1,44
 122 -10 122 -10 194 -10 c 0,0,1
EndSplineSet
Substitution2: "'frac' Diagonal Fractions lookup 24 subtable" five.numr
Substitution2: "'dnom' Denominators lookup 22 subtable" five.dnom
Substitution2: "'numr' Numerators lookup 21 subtable" five.numr
Substitution2: "'sups' Superscript lookup 20 subtable" uni2075
Substitution2: "'sinf' Scientific Inferiors lookup 19 subtable" five.subs
Substitution2: "'subs' Subscript lookup 18 subtable" uni2085
AlternateSubs2: "'aalt' Access All Alternates lookup 1 subtable" uni2085 five.subs uni2075 five.numr five.dnom
EndChar

StartChar: six
Encoding: 54 54 25
Width: 581
GlyphClass: 1
Flags: W
LayerCount: 2
Fore
SplineSet
239 -10 m 0,0,1
 197 -10 197 -10 162.5 4.5 c 128,-1,2
 128 19 128 19 103 46.5 c 128,-1,3
 78 74 78 74 64.5 113.5 c 128,-1,4
 51 153 51 153 51 202 c 0,5,6
 51 299 51 299 76 391.5 c 128,-1,7
 101 484 101 484 146.5 556 c 128,-1,8
 192 628 192 628 255.5 671.5 c 128,-1,9
 319 715 319 715 395 715 c 0,10,11
 464 715 464 715 508.5 675.5 c 128,-1,12
 553 636 553 636 559 568 c 1,13,-1
 539 561 l 1,14,15
 534 621 534 621 493.5 658 c 128,-1,16
 453 695 453 695 391 695 c 0,17,18
 336 695 336 695 286 666.5 c 128,-1,19
 236 638 236 638 195.5 587 c 128,-1,20
 155 536 155 536 125 465 c 128,-1,21
 95 394 95 394 79 308 c 1,22,23
 98 347 98 347 127 378 c 128,-1,24
 156 409 156 409 191 430.5 c 128,-1,25
 226 452 226 452 266 463.5 c 128,-1,26
 306 475 306 475 346 475 c 0,27,28
 387 475 387 475 421 459.5 c 128,-1,29
 455 444 455 444 479 417 c 128,-1,30
 503 390 503 390 516.5 354 c 128,-1,31
 530 318 530 318 530 276 c 0,32,33
 530 218 530 218 505.5 166 c 128,-1,34
 481 114 481 114 440 75 c 128,-1,35
 399 36 399 36 347 13 c 128,-1,36
 295 -10 295 -10 239 -10 c 0,0,1
245 10 m 0,37,38
 295 10 295 10 342 31 c 128,-1,39
 389 52 389 52 426.5 88 c 128,-1,40
 464 124 464 124 486.5 171 c 128,-1,41
 509 218 509 218 509 270 c 0,42,43
 509 308 509 308 496.5 342 c 128,-1,44
 484 376 484 376 461 401 c 128,-1,45
 438 426 438 426 407 440.5 c 128,-1,46
 376 455 376 455 338 455 c 0,47,48
 289 455 289 455 241 433.5 c 128,-1,49
 193 412 193 412 156 376 c 128,-1,50
 119 340 119 340 96 292.5 c 128,-1,51
 73 245 73 245 73 194 c 0,52,53
 73 156 73 156 85.5 122.5 c 128,-1,54
 98 89 98 89 121 64 c 128,-1,55
 144 39 144 39 175.5 24.5 c 128,-1,56
 207 10 207 10 245 10 c 0,37,38
EndSplineSet
Substitution2: "'frac' Diagonal Fractions lookup 24 subtable" six.numr
Substitution2: "'dnom' Denominators lookup 22 subtable" six.dnom
Substitution2: "'numr' Numerators lookup 21 subtable" six.numr
Substitution2: "'sups' Superscript lookup 20 subtable" uni2076
Substitution2: "'sinf' Scientific Inferiors lookup 19 subtable" six.subs
Substitution2: "'subs' Subscript lookup 18 subtable" uni2086
AlternateSubs2: "'aalt' Access All Alternates lookup 1 subtable" uni2086 six.subs uni2076 six.numr six.dnom
EndChar

StartChar: seven
Encoding: 55 55 26
Width: 463
GlyphClass: 1
Flags: W
LayerCount: 2
Fore
SplineSet
23 0 m 1,0,-1
 46 0 l 1,1,-1
 543 710 l 1,2,-1
 105 710 l 1,3,-1
 101 690 l 1,4,-1
 505 690 l 1,5,-1
 23 0 l 1,0,-1
EndSplineSet
Substitution2: "'frac' Diagonal Fractions lookup 24 subtable" seven.numr
Substitution2: "'dnom' Denominators lookup 22 subtable" seven.dnom
Substitution2: "'numr' Numerators lookup 21 subtable" seven.numr
Substitution2: "'sups' Superscript lookup 20 subtable" uni2077
Substitution2: "'sinf' Scientific Inferiors lookup 19 subtable" seven.subs
Substitution2: "'subs' Subscript lookup 18 subtable" uni2087
AlternateSubs2: "'aalt' Access All Alternates lookup 1 subtable" uni2087 seven.subs uni2077 seven.numr seven.dnom
EndChar

StartChar: eight
Encoding: 56 56 27
Width: 557
GlyphClass: 1
Flags: W
LayerCount: 2
Fore
SplineSet
485 220 m 0,0,1
 485 279 485 279 451.5 321.5 c 128,-1,2
 418 364 418 364 365 381 c 1,3,4
 397 392 397 392 427.5 409.5 c 128,-1,5
 458 427 458 427 481.5 450.5 c 128,-1,6
 505 474 505 474 519.5 503.5 c 128,-1,7
 534 533 534 533 534 569 c 0,8,9
 534 603 534 603 520 629 c 128,-1,10
 506 655 506 655 483 673 c 128,-1,11
 460 691 460 691 429.5 700.5 c 128,-1,12
 399 710 399 710 366 710 c 0,13,14
 324 710 324 710 281.5 697 c 128,-1,15
 239 684 239 684 204 659 c 128,-1,16
 169 634 169 634 147 598 c 128,-1,17
 125 562 125 562 125 515 c 0,18,19
 125 466 125 466 154 432 c 128,-1,20
 183 398 183 398 225 381 c 1,21,22
 191 372 191 372 155 352 c 128,-1,23
 119 332 119 332 90.5 303.5 c 128,-1,24
 62 275 62 275 43.5 238.5 c 128,-1,25
 25 202 25 202 25 159 c 0,26,27
 25 126 25 126 37 95.5 c 128,-1,28
 49 65 49 65 72.5 42.5 c 128,-1,29
 96 20 96 20 130.5 6.5 c 128,-1,30
 165 -7 165 -7 210 -7 c 0,31,32
 261 -7 261 -7 310.5 9.5 c 128,-1,33
 360 26 360 26 398.5 55.5 c 128,-1,34
 437 85 437 85 461 127 c 128,-1,35
 485 169 485 169 485 220 c 0,0,1
465 219 m 0,36,37
 465 172 465 172 441.5 133.5 c 128,-1,38
 418 95 418 95 382 67.5 c 128,-1,39
 346 40 346 40 302.5 25 c 128,-1,40
 259 10 259 10 218 10 c 0,41,42
 186 10 186 10 155 20 c 128,-1,43
 124 30 124 30 99.5 49.5 c 128,-1,44
 75 69 75 69 60 97 c 128,-1,45
 45 125 45 125 45 161 c 0,46,47
 45 208 45 208 68.5 246.5 c 128,-1,48
 92 285 92 285 128 313 c 128,-1,49
 164 341 164 341 207.5 356 c 128,-1,50
 251 371 251 371 292 371 c 0,51,52
 324 371 324 371 355 361 c 128,-1,53
 386 351 386 351 410.5 331.5 c 128,-1,54
 435 312 435 312 450 283.5 c 128,-1,55
 465 255 465 255 465 219 c 0,36,37
145 517 m 0,56,57
 145 557 145 557 164 589 c 128,-1,58
 183 621 183 621 214 643.5 c 128,-1,59
 245 666 245 666 283 678 c 128,-1,60
 321 690 321 690 360 690 c 0,61,62
 391 690 391 690 419 681.5 c 128,-1,63
 447 673 447 673 468 657 c 128,-1,64
 489 641 489 641 501.5 618 c 128,-1,65
 514 595 514 595 514 565 c 0,66,67
 514 524 514 524 493 491.5 c 128,-1,68
 472 459 472 459 440 436.5 c 128,-1,69
 408 414 408 414 370 402.5 c 128,-1,70
 332 391 332 391 297 391 c 0,71,72
 269 391 269 391 242 399.5 c 128,-1,73
 215 408 215 408 193.5 424 c 128,-1,74
 172 440 172 440 158.5 463.5 c 128,-1,75
 145 487 145 487 145 517 c 0,56,57
EndSplineSet
Substitution2: "'frac' Diagonal Fractions lookup 24 subtable" eight.numr
Substitution2: "'dnom' Denominators lookup 22 subtable" eight.dnom
Substitution2: "'numr' Numerators lookup 21 subtable" eight.numr
Substitution2: "'sups' Superscript lookup 20 subtable" uni2078
Substitution2: "'sinf' Scientific Inferiors lookup 19 subtable" eight.subs
Substitution2: "'subs' Subscript lookup 18 subtable" uni2088
AlternateSubs2: "'aalt' Access All Alternates lookup 1 subtable" uni2088 eight.subs uni2078 eight.numr eight.dnom
EndChar

StartChar: nine
Encoding: 57 57 28
Width: 565
GlyphClass: 1
Flags: W
LayerCount: 2
Fore
SplineSet
213 -7 m 0,0,1
 144 -7 144 -7 99.5 32.5 c 128,-1,2
 55 72 55 72 49 140 c 1,3,-1
 69 147 l 1,4,5
 74 87 74 87 114.5 50 c 128,-1,6
 155 13 155 13 217 13 c 0,7,8
 273 13 273 13 322.5 41.5 c 128,-1,9
 372 70 372 70 412.5 121 c 128,-1,10
 453 172 453 172 483 243.5 c 128,-1,11
 513 315 513 315 529 400 c 1,12,13
 510 361 510 361 481.5 330 c 128,-1,14
 453 299 453 299 417.5 277.5 c 128,-1,15
 382 256 382 256 342.5 244.5 c 128,-1,16
 303 233 303 233 262 233 c 256,17,18
 221 233 221 233 187 248.5 c 128,-1,19
 153 264 153 264 129 291 c 128,-1,20
 105 318 105 318 91.5 354 c 128,-1,21
 78 390 78 390 78 432 c 0,22,23
 78 490 78 490 102.5 542 c 128,-1,24
 127 594 127 594 168 633 c 128,-1,25
 209 672 209 672 261.5 695 c 128,-1,26
 314 718 314 718 369 718 c 0,27,28
 411 718 411 718 445.5 703.5 c 128,-1,29
 480 689 480 689 505 661.5 c 128,-1,30
 530 634 530 634 543.5 594.5 c 128,-1,31
 557 555 557 555 557 506 c 0,32,33
 557 409 557 409 532 316.5 c 128,-1,34
 507 224 507 224 461.5 152 c 128,-1,35
 416 80 416 80 353 36.5 c 128,-1,36
 290 -7 290 -7 213 -7 c 0,0,1
270 253 m 0,37,38
 320 253 320 253 367.5 274.5 c 128,-1,39
 415 296 415 296 452 332 c 128,-1,40
 489 368 489 368 512 415.5 c 128,-1,41
 535 463 535 463 535 514 c 0,42,43
 535 552 535 552 522.5 585.5 c 128,-1,44
 510 619 510 619 487 644 c 128,-1,45
 464 669 464 669 432.5 683.5 c 128,-1,46
 401 698 401 698 363 698 c 0,47,48
 314 698 314 698 266.5 677 c 128,-1,49
 219 656 219 656 181.5 620 c 128,-1,50
 144 584 144 584 121.5 537 c 128,-1,51
 99 490 99 490 99 438 c 0,52,53
 99 400 99 400 111.5 366 c 128,-1,54
 124 332 124 332 147 307 c 128,-1,55
 170 282 170 282 201.5 267.5 c 128,-1,56
 233 253 233 253 270 253 c 0,37,38
EndSplineSet
Substitution2: "'frac' Diagonal Fractions lookup 24 subtable" nine.numr
Substitution2: "'dnom' Denominators lookup 22 subtable" nine.dnom
Substitution2: "'numr' Numerators lookup 21 subtable" nine.numr
Substitution2: "'sups' Superscript lookup 20 subtable" uni2079
Substitution2: "'sinf' Scientific Inferiors lookup 19 subtable" nine.subs
Substitution2: "'subs' Subscript lookup 18 subtable" uni2089
AlternateSubs2: "'aalt' Access All Alternates lookup 1 subtable" uni2089 nine.subs uni2079 nine.numr nine.dnom
EndChar

StartChar: less
Encoding: 60 60 31
Width: 541
GlyphClass: 1
Flags: W
LayerCount: 2
Fore
SplineSet
31 250 m 1,0,-1
 448 0 l 1,1,-1
 448 22 l 1,2,-1
 60 259 l 1,3,-1
 448 495 l 1,4,-1
 448 517 l 1,5,-1
 31 268 l 1,6,-1
 31 250 l 1,0,-1
EndSplineSet
EndChar

StartChar: equal
Encoding: 61 61 32
Width: 453
GlyphClass: 1
Flags: W
LayerCount: 2
Fore
SplineSet
367 231 m 1,0,-1
 367 251 l 1,1,-1
 74 251 l 1,2,-1
 74 231 l 1,3,-1
 367 231 l 1,0,-1
367 301 m 1,4,-1
 367 321 l 1,5,-1
 74 321 l 1,6,-1
 74 301 l 1,7,-1
 367 301 l 1,4,-1
EndSplineSet
EndChar

StartChar: greater
Encoding: 62 62 33
Width: 541
GlyphClass: 1
Flags: W
LayerCount: 2
Fore
SplineSet
492 268 m 1,0,-1
 75 517 l 1,1,-1
 75 495 l 1,2,-1
 463 259 l 1,3,-1
 75 22 l 1,4,-1
 75 0 l 1,5,-1
 492 250 l 1,6,-1
 492 268 l 1,0,-1
EndSplineSet
EndChar

StartChar: question
Encoding: 63 63 34
Width: 449
GlyphClass: 1
Flags: W
LayerCount: 2
Fore
SplineSet
162 179 m 1,0,1
 171 223 171 223 182.5 251.5 c 128,-1,2
 194 280 194 280 207 298.5 c 128,-1,3
 220 317 220 317 235.5 327.5 c 128,-1,4
 251 338 251 338 268 347 c 0,5,6
 297 362 297 362 327 375.5 c 128,-1,7
 357 389 357 389 383 408.5 c 128,-1,8
 409 428 409 428 429.5 457.5 c 128,-1,9
 450 487 450 487 459 532 c 0,10,11
 469 578 469 578 461.5 613 c 128,-1,12
 454 648 454 648 434 671.5 c 128,-1,13
 414 695 414 695 384.5 707 c 128,-1,14
 355 719 355 719 320 719 c 0,15,16
 290 719 290 719 258 710.5 c 128,-1,17
 226 702 226 702 196 685.5 c 128,-1,18
 166 669 166 669 139 645 c 128,-1,19
 112 621 112 621 92 590 c 1,20,-1
 108 582 l 1,21,22
 126 609 126 609 150 630.5 c 128,-1,23
 174 652 174 652 201 667.5 c 128,-1,24
 228 683 228 683 257.5 691 c 128,-1,25
 287 699 287 699 316 699 c 0,26,27
 346 699 346 699 373 689.5 c 128,-1,28
 400 680 400 680 418 660 c 128,-1,29
 436 640 436 640 443 609 c 128,-1,30
 450 578 450 578 441 535 c 256,31,32
 432 492 432 492 412.5 465 c 128,-1,33
 393 438 393 438 368.5 420 c 128,-1,34
 344 402 344 402 317 390 c 128,-1,35
 290 378 290 378 265 366 c 0,36,37
 245 356 245 356 227.5 343.5 c 128,-1,38
 210 331 210 331 194.5 310.5 c 128,-1,39
 179 290 179 290 166 258.5 c 128,-1,40
 153 227 153 227 142 179 c 1,41,-1
 162 179 l 1,0,1
87 29 m 0,42,43
 84 15 84 15 91.5 5 c 128,-1,44
 99 -5 99 -5 113 -5 c 0,45,46
 120 -5 120 -5 126.5 -2.5 c 128,-1,47
 133 0 133 0 138.5 4.5 c 128,-1,48
 144 9 144 9 148 15.5 c 128,-1,49
 152 22 152 22 153 29 c 0,50,51
 156 43 156 43 148.5 52.5 c 128,-1,52
 141 62 141 62 127 62 c 0,53,54
 120 62 120 62 113.5 59.5 c 128,-1,55
 107 57 107 57 101.5 52.5 c 128,-1,56
 96 48 96 48 92.5 42 c 128,-1,57
 89 36 89 36 87 29 c 0,42,43
EndSplineSet
EndChar

StartChar: at
Encoding: 64 64 35
Width: 791
GlyphClass: 1
Flags: W
LayerCount: 2
Fore
SplineSet
540 4 m 0,0,1
 520 4 520 4 510.5 14.5 c 128,-1,2
 501 25 501 25 501 47 c 0,3,4
 501 53 501 53 502 65 c 128,-1,5
 503 77 503 77 508 99 c 2,6,-1
 583 450 l 1,7,-1
 563 450 l 1,8,-1
 545 362 l 1,9,10
 528 404 528 404 494.5 426.5 c 128,-1,11
 461 449 461 449 414 449 c 256,12,13
 367 449 367 449 324 427.5 c 128,-1,14
 281 406 281 406 248.5 369.5 c 128,-1,15
 216 333 216 333 197 285 c 128,-1,16
 178 237 178 237 178 184 c 0,17,18
 178 146 178 146 188 114 c 128,-1,19
 198 82 198 82 217 59.5 c 128,-1,20
 236 37 236 37 262 24.5 c 128,-1,21
 288 12 288 12 320 12 c 0,22,23
 361 12 361 12 405 31.5 c 128,-1,24
 449 51 449 51 483 84 c 1,25,26
 481 73 481 73 480 62.5 c 128,-1,27
 479 52 479 52 479 44 c 0,28,29
 479 12 479 12 491 -2 c 128,-1,30
 503 -16 503 -16 530 -16 c 256,31,32
 557 -16 557 -16 581.5 -3.5 c 128,-1,33
 606 9 606 9 628 31.5 c 128,-1,34
 650 54 650 54 668 84.5 c 128,-1,35
 686 115 686 115 699.5 150.5 c 128,-1,36
 713 186 713 186 720 225 c 128,-1,37
 727 264 727 264 727 303 c 0,38,39
 727 371 727 371 706 426 c 128,-1,40
 685 481 685 481 647.5 520.5 c 128,-1,41
 610 560 610 560 559 581.5 c 128,-1,42
 508 603 508 603 449 603 c 0,43,44
 370 603 370 603 293.5 565.5 c 128,-1,45
 217 528 217 528 158 466 c 128,-1,46
 99 404 99 404 62.5 323.5 c 128,-1,47
 26 243 26 243 26 157 c 0,48,49
 26 93 26 93 46.5 38 c 128,-1,50
 67 -17 67 -17 103 -58 c 128,-1,51
 139 -99 139 -99 189 -122.5 c 128,-1,52
 239 -146 239 -146 297 -146 c 0,53,54
 335 -146 335 -146 377.5 -136 c 128,-1,55
 420 -126 420 -126 462 -106 c 1,56,-1
 456 -88 l 1,57,58
 418 -108 418 -108 381 -117 c 128,-1,59
 344 -126 344 -126 308 -126 c 0,60,61
 251 -126 251 -126 202.5 -104.5 c 128,-1,62
 154 -83 154 -83 119.5 -45 c 128,-1,63
 85 -7 85 -7 65.5 45 c 128,-1,64
 46 97 46 97 46 158 c 0,65,66
 46 240 46 240 80 316.5 c 128,-1,67
 114 393 114 393 170 452.5 c 128,-1,68
 226 512 226 512 298 547.5 c 128,-1,69
 370 583 370 583 446 583 c 0,70,71
 503 583 503 583 550.5 562.5 c 128,-1,72
 598 542 598 542 633 505 c 128,-1,73
 668 468 668 468 687.5 415.5 c 128,-1,74
 707 363 707 363 707 300 c 0,75,76
 707 245 707 245 693 192 c 128,-1,77
 679 139 679 139 655.5 97 c 128,-1,78
 632 55 632 55 602 29.5 c 128,-1,79
 572 4 572 4 540 4 c 0,0,1
325 32 m 0,80,81
 296 32 296 32 272.5 43.5 c 128,-1,82
 249 55 249 55 232.5 75.5 c 128,-1,83
 216 96 216 96 207 124.5 c 128,-1,84
 198 153 198 153 198 186 c 0,85,86
 198 234 198 234 215.5 278 c 128,-1,87
 233 322 233 322 262.5 355 c 128,-1,88
 292 388 292 388 330.5 408 c 128,-1,89
 369 428 369 428 411 428 c 0,90,91
 458 428 458 428 491 403.5 c 128,-1,92
 524 379 524 379 537 334 c 1,93,-1
 497 139 l 1,94,95
 488 117 488 117 469.5 97.5 c 128,-1,96
 451 78 451 78 427 63.5 c 128,-1,97
 403 49 403 49 376.5 40.5 c 128,-1,98
 350 32 350 32 325 32 c 0,80,81
EndSplineSet
EndChar

StartChar: A
Encoding: 65 65 36
Width: 647
GlyphClass: 1
Flags: W
LayerCount: 2
Fore
SplineSet
-39 0 m 1,0,-1
 -17 0 l 1,1,-1
 142 254 l 1,2,-1
 493 254 l 1,3,-1
 544 0 l 1,4,-1
 566 0 l 1,5,-1
 424 710 l 1,6,-1
 406 710 l 1,7,-1
 -39 0 l 1,0,-1
154 274 m 1,8,-1
 409 681 l 1,9,-1
 489 274 l 1,10,-1
 154 274 l 1,8,-1
EndSplineSet
Substitution2: "Single Substitution lookup 46 subtable" ordfeminine
Substitution2: "'aalt' Access All Alternates lookup 0 subtable" ordfeminine
EndChar

StartChar: B
Encoding: 66 66 37
Width: 628
GlyphClass: 1
Flags: W
LayerCount: 2
Fore
SplineSet
33 0 m 1,0,-1
 346 0 l 2,1,2
 385 0 385 0 423 18 c 128,-1,3
 461 36 461 36 491 66 c 128,-1,4
 521 96 521 96 539.5 135.5 c 128,-1,5
 558 175 558 175 558 218 c 0,6,7
 558 268 558 268 534.5 308.5 c 128,-1,8
 511 349 511 349 466 364 c 1,9,10
 495 377 495 377 520 397.5 c 128,-1,11
 545 418 545 418 563.5 444.5 c 128,-1,12
 582 471 582 471 592.5 501.5 c 128,-1,13
 603 532 603 532 603 565 c 0,14,15
 603 593 603 593 595.5 619 c 128,-1,16
 588 645 588 645 573 665.5 c 128,-1,17
 558 686 558 686 535.5 698 c 128,-1,18
 513 710 513 710 483 710 c 2,19,-1
 184 710 l 1,20,-1
 33 0 l 1,0,-1
57 20 m 1,21,-1
 127 348 l 1,22,-1
 426 348 l 2,23,24
 452 348 452 348 472.5 337 c 128,-1,25
 493 326 493 326 507.5 308 c 128,-1,26
 522 290 522 290 529.5 266 c 128,-1,27
 537 242 537 242 537 215 c 0,28,29
 537 179 537 179 521 144 c 128,-1,30
 505 109 505 109 479 81.5 c 128,-1,31
 453 54 453 54 419 37 c 128,-1,32
 385 20 385 20 350 20 c 2,33,-1
 57 20 l 1,21,-1
131 368 m 1,34,-1
 200 690 l 1,35,-1
 478 690 l 2,36,37
 503 690 503 690 522.5 679.5 c 128,-1,38
 542 669 542 669 555.5 651.5 c 128,-1,39
 569 634 569 634 576 611 c 128,-1,40
 583 588 583 588 583 562 c 0,41,42
 583 527 583 527 568 492 c 128,-1,43
 553 457 553 457 528.5 429.5 c 128,-1,44
 504 402 504 402 471.5 385 c 128,-1,45
 439 368 439 368 404 368 c 2,46,-1
 131 368 l 1,34,-1
EndSplineSet
EndChar

StartChar: C
Encoding: 67 67 38
Width: 663
GlyphClass: 1
Flags: W
LayerCount: 2
Fore
SplineSet
307 -6 m 0,0,1
 345 -6 345 -6 385.5 4.5 c 128,-1,2
 426 15 426 15 464.5 36 c 128,-1,3
 503 57 503 57 537.5 88 c 128,-1,4
 572 119 572 119 598 159 c 1,5,-1
 580 164 l 1,6,7
 552 124 552 124 518.5 95.5 c 128,-1,8
 485 67 485 67 449.5 49 c 128,-1,9
 414 31 414 31 378.5 22.5 c 128,-1,10
 343 14 343 14 310 14 c 0,11,12
 254 14 254 14 210 36 c 128,-1,13
 166 58 166 58 135 95.5 c 128,-1,14
 104 133 104 133 88 181.5 c 128,-1,15
 72 230 72 230 72 284 c 0,16,17
 72 356 72 356 101 429.5 c 128,-1,18
 130 503 130 503 181 561.5 c 128,-1,19
 232 620 232 620 301.5 657 c 128,-1,20
 371 694 371 694 451 694 c 0,21,22
 484 694 484 694 515 686.5 c 128,-1,23
 546 679 546 679 571.5 662.5 c 128,-1,24
 597 646 597 646 616.5 619 c 128,-1,25
 636 592 636 592 647 553 c 1,26,-1
 667 559 l 1,27,28
 659 593 659 593 642 621.5 c 128,-1,29
 625 650 625 650 598 670.5 c 128,-1,30
 571 691 571 691 534.5 702.5 c 128,-1,31
 498 714 498 714 452 714 c 0,32,33
 366 714 366 714 292.5 675.5 c 128,-1,34
 219 637 219 637 165.5 575.5 c 128,-1,35
 112 514 112 514 82 438.5 c 128,-1,36
 52 363 52 363 52 288 c 0,37,38
 52 233 52 233 69 180 c 128,-1,39
 86 127 86 127 118.5 86 c 128,-1,40
 151 45 151 45 198.5 19.5 c 128,-1,41
 246 -6 246 -6 307 -6 c 0,0,1
EndSplineSet
EndChar

StartChar: D
Encoding: 68 68 39
Width: 684
GlyphClass: 1
Flags: W
LayerCount: 2
Fore
SplineSet
33 0 m 1,0,-1
 250 0 l 2,1,2
 337 0 337 0 411 33.5 c 128,-1,3
 485 67 485 67 539 125.5 c 128,-1,4
 593 184 593 184 623 265 c 128,-1,5
 653 346 653 346 653 440 c 0,6,7
 653 497 653 497 638 546 c 128,-1,8
 623 595 623 595 592 631.5 c 128,-1,9
 561 668 561 668 513.5 689 c 128,-1,10
 466 710 466 710 401 710 c 2,11,-1
 184 710 l 1,12,-1
 33 0 l 1,0,-1
57 20 m 1,13,-1
 200 690 l 1,14,-1
 397 690 l 2,15,16
 456 690 456 690 500 671 c 128,-1,17
 544 652 544 652 573.5 618.5 c 128,-1,18
 603 585 603 585 618 538 c 128,-1,19
 633 491 633 491 633 435 c 0,20,21
 633 353 633 353 607 278 c 128,-1,22
 581 203 581 203 532.5 145.5 c 128,-1,23
 484 88 484 88 413.5 54 c 128,-1,24
 343 20 343 20 254 20 c 2,25,-1
 57 20 l 1,13,-1
EndSplineSet
EndChar

StartChar: E
Encoding: 69 69 40
Width: 588
GlyphClass: 1
Flags: W
LayerCount: 2
Fore
SplineSet
33 0 m 1,0,-1
 476 0 l 1,1,-1
 480 20 l 1,2,-1
 57 20 l 1,3,-1
 128 353 l 1,4,-1
 491 353 l 1,5,-1
 495 373 l 1,6,-1
 132 373 l 1,7,-1
 200 690 l 1,8,-1
 614 690 l 1,9,-1
 618 710 l 1,10,-1
 184 710 l 1,11,-1
 33 0 l 1,0,-1
EndSplineSet
EndChar

StartChar: F
Encoding: 70 70 41
Width: 588
GlyphClass: 1
Flags: W
LayerCount: 2
Fore
SplineSet
33 0 m 1,0,-1
 53 0 l 1,1,-1
 128 354 l 1,2,-1
 482 354 l 1,3,-1
 486 374 l 1,4,-1
 133 374 l 1,5,-1
 200 690 l 1,6,-1
 614 690 l 1,7,-1
 618 710 l 1,8,-1
 184 710 l 1,9,-1
 33 0 l 1,0,-1
EndSplineSet
EndChar

StartChar: G
Encoding: 71 71 42
Width: 722
GlyphClass: 1
Flags: W
LayerCount: 2
Fore
SplineSet
300 -5 m 0,0,1
 339 -5 339 -5 380 4 c 128,-1,2
 421 13 421 13 461 29.5 c 128,-1,3
 501 46 501 46 538 68 c 128,-1,4
 575 90 575 90 606 115 c 1,5,-1
 651 329 l 1,6,-1
 394 329 l 1,7,-1
 390 309 l 1,8,-1
 626 309 l 1,9,-1
 586 124 l 1,10,11
 557 102 557 102 524 82 c 128,-1,12
 491 62 491 62 455.5 47 c 128,-1,13
 420 32 420 32 382.5 23.5 c 128,-1,14
 345 15 345 15 306 15 c 0,15,16
 241 15 241 15 192.5 43.5 c 128,-1,17
 144 72 144 72 114 119 c 128,-1,18
 84 166 84 166 74.5 227 c 128,-1,19
 65 288 65 288 79 353 c 0,20,21
 93 417 93 417 127.5 478.5 c 128,-1,22
 162 540 162 540 211.5 588 c 128,-1,23
 261 636 261 636 322 665.5 c 128,-1,24
 383 695 383 695 449 695 c 0,25,26
 489 695 489 695 522.5 684 c 128,-1,27
 556 673 556 673 583.5 653 c 128,-1,28
 611 633 611 633 631 605 c 128,-1,29
 651 577 651 577 664 544 c 1,30,-1
 681 558 l 1,31,32
 654 627 654 627 597 671 c 128,-1,33
 540 715 540 715 455 715 c 0,34,35
 388 715 388 715 323.5 685.5 c 128,-1,36
 259 656 259 656 205.5 606 c 128,-1,37
 152 556 152 556 114 491.5 c 128,-1,38
 76 427 76 427 61 356 c 0,39,40
 46 287 46 287 56 222 c 128,-1,41
 66 157 66 157 97 106.5 c 128,-1,42
 128 56 128 56 179.5 25.5 c 128,-1,43
 231 -5 231 -5 300 -5 c 0,0,1
EndSplineSet
Substitution2: "'ss11' Style Set 11 lookup 42 subtable" G.ss11
Substitution2: "'aalt' Access All Alternates lookup 0 subtable" G.ss11
EndChar

StartChar: H
Encoding: 72 72 43
Width: 701
GlyphClass: 1
Flags: W
LayerCount: 2
Fore
SplineSet
33 0 m 1,0,-1
 53 0 l 1,1,-1
 128 353 l 1,2,-1
 595 353 l 1,3,-1
 520 0 l 1,4,-1
 540 0 l 1,5,-1
 691 710 l 1,6,-1
 671 710 l 1,7,-1
 599 373 l 1,8,-1
 132 373 l 1,9,-1
 204 710 l 1,10,-1
 184 710 l 1,11,-1
 33 0 l 1,0,-1
EndSplineSet
EndChar

StartChar: I
Encoding: 73 73 44
Width: 214
GlyphClass: 1
Flags: W
LayerCount: 2
Fore
SplineSet
33 0 m 1,0,-1
 53 0 l 1,1,-1
 204 709 l 1,2,-1
 184 709 l 1,3,-1
 33 0 l 1,0,-1
EndSplineSet
EndChar

StartChar: J
Encoding: 74 74 45
Width: 503
GlyphClass: 2
Flags: W
LayerCount: 2
Fore
SplineSet
14 102 m 1,0,1
 23 83 23 83 37.5 66.5 c 128,-1,2
 52 50 52 50 69.5 38.5 c 128,-1,3
 87 27 87 27 107.5 20.5 c 128,-1,4
 128 14 128 14 149 14 c 0,5,6
 194 14 194 14 231 30 c 128,-1,7
 268 46 268 46 295.5 73.5 c 128,-1,8
 323 101 323 101 341.5 138 c 128,-1,9
 360 175 360 175 368 217 c 2,10,-1
 465 710 l 1,11,-1
 485 710 l 1,12,-1
 386 207 l 2,13,14
 377 161 377 161 356.5 122 c 128,-1,15
 336 83 336 83 305.5 55 c 128,-1,16
 275 27 275 27 234.5 11 c 128,-1,17
 194 -5 194 -5 145 -5 c 0,18,19
 122 -5 122 -5 99.5 2.5 c 128,-1,20
 77 10 77 10 57 23 c 128,-1,21
 37 36 37 36 21 54 c 128,-1,22
 5 72 5 72 -4 93 c 1,23,-1
 14 102 l 1,0,1
EndSplineSet
EndChar

StartChar: K
Encoding: 75 75 46
Width: 591
GlyphClass: 1
Flags: W
LayerCount: 2
Fore
SplineSet
33 0 m 1,0,-1
 53 0 l 1,1,-1
 100 221 l 1,2,-1
 291 387 l 1,3,-1
 499 0 l 1,4,-1
 523 0 l 1,5,-1
 307 400 l 1,6,-1
 661 710 l 1,7,-1
 632 710 l 1,8,-1
 106 249 l 1,9,-1
 204 709 l 1,10,-1
 184 709 l 1,11,-1
 33 0 l 1,0,-1
EndSplineSet
EndChar

StartChar: L
Encoding: 76 76 47
Width: 552
GlyphClass: 1
Flags: W
LayerCount: 2
Fore
SplineSet
33 0 m 1,0,-1
 476 0 l 1,1,-1
 480 20 l 1,2,-1
 57 20 l 1,3,-1
 204 710 l 1,4,-1
 184 710 l 1,5,-1
 33 0 l 1,0,-1
EndSplineSet
EndChar

StartChar: M
Encoding: 77 77 48
Width: 846
GlyphClass: 1
Flags: W
LayerCount: 2
Fore
SplineSet
33 0 m 1,0,-1
 53 0 l 1,1,-1
 195 666 l 1,2,-1
 381 140 l 1,3,-1
 397 140 l 1,4,-1
 806 666 l 1,5,-1
 665 0 l 1,6,-1
 685 0 l 1,7,-1
 836 710 l 1,8,-1
 820 710 l 1,9,-1
 394 164 l 1,10,-1
 200 710 l 1,11,-1
 184 710 l 1,12,-1
 33 0 l 1,0,-1
EndSplineSet
EndChar

StartChar: N
Encoding: 78 78 49
Width: 743
GlyphClass: 1
Flags: W
LayerCount: 2
Fore
SplineSet
33 0 m 1,0,-1
 53 0 l 1,1,-1
 196 671 l 1,2,-1
 560 0 l 1,3,-1
 582 0 l 1,4,-1
 733 709 l 1,5,-1
 713 709 l 1,6,-1
 569 29 l 1,7,-1
 199 710 l 1,8,-1
 184 710 l 1,9,-1
 33 0 l 1,0,-1
EndSplineSet
EndChar

StartChar: O
Encoding: 79 79 50
Width: 726
GlyphClass: 1
Flags: W
LayerCount: 2
Fore
SplineSet
305 -5 m 0,0,1
 385 -5 385 -5 456 29.5 c 128,-1,2
 527 64 527 64 580.5 123 c 128,-1,3
 634 182 634 182 665.5 260 c 128,-1,4
 697 338 697 338 697 424 c 0,5,6
 697 480 697 480 682.5 532 c 128,-1,7
 668 584 668 584 637 625 c 128,-1,8
 606 666 606 666 558 690.5 c 128,-1,9
 510 715 510 715 443 715 c 0,10,11
 364 715 364 715 293 680 c 128,-1,12
 222 645 222 645 168.5 586 c 128,-1,13
 115 527 115 527 83.5 449 c 128,-1,14
 52 371 52 371 52 284 c 0,15,16
 52 228 52 228 66.5 176 c 128,-1,17
 81 124 81 124 112 83.5 c 128,-1,18
 143 43 143 43 190.5 19 c 128,-1,19
 238 -5 238 -5 305 -5 c 0,0,1
308 15 m 0,20,21
 246 15 246 15 201 37 c 128,-1,22
 156 59 156 59 127.5 96.5 c 128,-1,23
 99 134 99 134 85.5 183 c 128,-1,24
 72 232 72 232 72 285 c 0,25,26
 72 363 72 363 100.5 437 c 128,-1,27
 129 511 129 511 179 568.5 c 128,-1,28
 229 626 229 626 296 660.5 c 128,-1,29
 363 695 363 695 441 695 c 0,30,31
 503 695 503 695 548 672.5 c 128,-1,32
 593 650 593 650 621.5 612.5 c 128,-1,33
 650 575 650 575 663.5 526 c 128,-1,34
 677 477 677 477 677 424 c 0,35,36
 677 346 677 346 648.5 272.5 c 128,-1,37
 620 199 620 199 570.5 142 c 128,-1,38
 521 85 521 85 453.5 50 c 128,-1,39
 386 15 386 15 308 15 c 0,20,21
EndSplineSet
Substitution2: "Single Substitution lookup 46 subtable" ordmasculine
Substitution2: "'aalt' Access All Alternates lookup 0 subtable" ordmasculine
EndChar

StartChar: P
Encoding: 80 80 51
Width: 595
GlyphClass: 1
Flags: W
LayerCount: 2
Fore
SplineSet
33 0 m 1,0,-1
 53 0 l 1,1,-1
 112 279 l 1,2,-1
 374 279 l 2,3,4
 421 279 421 279 463.5 301.5 c 128,-1,5
 506 324 506 324 538 360 c 128,-1,6
 570 396 570 396 589 442 c 128,-1,7
 608 488 608 488 608 534 c 0,8,9
 608 567 608 567 597.5 599 c 128,-1,10
 587 631 587 631 567.5 655.5 c 128,-1,11
 548 680 548 680 519 695 c 128,-1,12
 490 710 490 710 452 710 c 2,13,-1
 184 710 l 1,14,-1
 33 0 l 1,0,-1
117 299 m 1,15,-1
 200 690 l 1,16,-1
 454 690 l 2,17,18
 484 690 484 690 509 677.5 c 128,-1,19
 534 665 534 665 551.5 644 c 128,-1,20
 569 623 569 623 578.5 595 c 128,-1,21
 588 567 588 567 588 536 c 0,22,23
 588 495 588 495 572 453 c 128,-1,24
 556 411 556 411 527.5 376.5 c 128,-1,25
 499 342 499 342 460.5 320.5 c 128,-1,26
 422 299 422 299 378 299 c 2,27,-1
 117 299 l 1,15,-1
EndSplineSet
EndChar

StartChar: Q
Encoding: 81 81 52
Width: 726
GlyphClass: 1
Flags: W
LayerCount: 2
Fore
SplineSet
305 -5 m 0,0,1
 385 -5 385 -5 456 29.5 c 128,-1,2
 527 64 527 64 580.5 123 c 128,-1,3
 634 182 634 182 665.5 260 c 128,-1,4
 697 338 697 338 697 424 c 0,5,6
 697 480 697 480 682.5 532 c 128,-1,7
 668 584 668 584 637 625 c 128,-1,8
 606 666 606 666 558 690.5 c 128,-1,9
 510 715 510 715 443 715 c 0,10,11
 364 715 364 715 293 680 c 128,-1,12
 222 645 222 645 168.5 586 c 128,-1,13
 115 527 115 527 83.5 449 c 128,-1,14
 52 371 52 371 52 284 c 0,15,16
 52 228 52 228 66.5 176 c 128,-1,17
 81 124 81 124 112 83.5 c 128,-1,18
 143 43 143 43 190.5 19 c 128,-1,19
 238 -5 238 -5 305 -5 c 0,0,1
308 15 m 0,20,21
 246 15 246 15 201 37 c 128,-1,22
 156 59 156 59 127.5 96.5 c 128,-1,23
 99 134 99 134 85.5 183 c 128,-1,24
 72 232 72 232 72 285 c 0,25,26
 72 363 72 363 100.5 437 c 128,-1,27
 129 511 129 511 179 568.5 c 128,-1,28
 229 626 229 626 296 660.5 c 128,-1,29
 363 695 363 695 441 695 c 0,30,31
 503 695 503 695 548 672.5 c 128,-1,32
 593 650 593 650 621.5 612.5 c 128,-1,33
 650 575 650 575 663.5 526 c 128,-1,34
 677 477 677 477 677 424 c 0,35,36
 677 346 677 346 648.5 272.5 c 128,-1,37
 620 199 620 199 570.5 142 c 128,-1,38
 521 85 521 85 453.5 50 c 128,-1,39
 386 15 386 15 308 15 c 0,20,21
620 -7 m 1,40,-1
 636 7 l 1,41,-1
 407 285 l 1,42,-1
 391 271 l 1,43,-1
 620 -7 l 1,40,-1
EndSplineSet
EndChar

StartChar: R
Encoding: 82 82 53
Width: 616
GlyphClass: 1
Flags: W
LayerCount: 2
Fore
SplineSet
53 0 m 1,0,-1
 112 279 l 1,1,-1
 362 279 l 1,2,-1
 473 0 l 1,3,-1
 497 0 l 1,4,-1
 386 279 l 1,5,6
 431 282 431 282 471.5 305 c 128,-1,7
 512 328 512 328 542 363.5 c 128,-1,8
 572 399 572 399 590 443 c 128,-1,9
 608 487 608 487 608 533 c 0,10,11
 608 567 608 567 598 599 c 128,-1,12
 588 631 588 631 569 655.5 c 128,-1,13
 550 680 550 680 522 695 c 128,-1,14
 494 710 494 710 459 710 c 2,15,-1
 184 710 l 1,16,-1
 33 0 l 1,17,-1
 53 0 l 1,0,-1
117 299 m 1,18,-1
 200 690 l 1,19,-1
 454 690 l 2,20,21
 484 690 484 690 509 677 c 128,-1,22
 534 664 534 664 551.5 642 c 128,-1,23
 569 620 569 620 578.5 591 c 128,-1,24
 588 562 588 562 588 530 c 0,25,26
 588 490 588 490 571.5 448.5 c 128,-1,27
 555 407 555 407 526.5 374 c 128,-1,28
 498 341 498 341 460 320 c 128,-1,29
 422 299 422 299 378 299 c 2,30,-1
 117 299 l 1,18,-1
EndSplineSet
EndChar

StartChar: S
Encoding: 83 83 54
Width: 579
GlyphClass: 1
Flags: W
LayerCount: 2
Fore
SplineSet
244 -5 m 0,0,1
 303 -5 303 -5 353 7.5 c 128,-1,2
 403 20 403 20 440 45.5 c 128,-1,3
 477 71 477 71 497.5 110 c 128,-1,4
 518 149 518 149 518 201 c 0,5,6
 518 241 518 241 505.5 266.5 c 128,-1,7
 493 292 493 292 467 309.5 c 128,-1,8
 441 327 441 327 401.5 339.5 c 128,-1,9
 362 352 362 352 309 365 c 0,10,11
 262 377 262 377 227.5 387 c 128,-1,12
 193 397 193 397 170.5 411 c 128,-1,13
 148 425 148 425 137.5 445.5 c 128,-1,14
 127 466 127 466 127 498 c 0,15,16
 127 538 127 538 143.5 574 c 128,-1,17
 160 610 160 610 192 637 c 128,-1,18
 224 664 224 664 271 680 c 128,-1,19
 318 696 318 696 380 696 c 0,20,21
 410 696 410 696 434.5 692 c 128,-1,22
 459 688 459 688 480.5 678.5 c 128,-1,23
 502 669 502 669 520 653.5 c 128,-1,24
 538 638 538 638 554 616 c 1,25,-1
 570 630 l 1,26,27
 554 652 554 652 534.5 668 c 128,-1,28
 515 684 515 684 491.5 694.5 c 128,-1,29
 468 705 468 705 440 710 c 128,-1,30
 412 715 412 715 378 715 c 0,31,32
 317 715 317 715 267 699 c 128,-1,33
 217 683 217 683 181 654 c 128,-1,34
 145 625 145 625 125.5 585 c 128,-1,35
 106 545 106 545 106 496 c 0,36,37
 106 457 106 457 119 433 c 128,-1,38
 132 409 132 409 157.5 393.5 c 128,-1,39
 183 378 183 378 220 368 c 128,-1,40
 257 358 257 358 305 346 c 256,41,42
 353 334 353 334 389 322.5 c 128,-1,43
 425 311 425 311 449 295.5 c 128,-1,44
 473 280 473 280 485 257 c 128,-1,45
 497 234 497 234 497 199 c 0,46,47
 497 155 497 155 479 120.5 c 128,-1,48
 461 86 461 86 428.5 62 c 128,-1,49
 396 38 396 38 350 25.5 c 128,-1,50
 304 13 304 13 248 13 c 0,51,52
 206 13 206 13 172.5 20 c 128,-1,53
 139 27 139 27 111 40.5 c 128,-1,54
 83 54 83 54 59.5 73.5 c 128,-1,55
 36 93 36 93 15 118 c 1,56,-1
 -1 105 l 1,57,58
 23 77 23 77 48.5 56 c 128,-1,59
 74 35 74 35 103.5 21.5 c 128,-1,60
 133 8 133 8 167.5 1.5 c 128,-1,61
 202 -5 202 -5 244 -5 c 0,0,1
EndSplineSet
EndChar

StartChar: T
Encoding: 84 84 55
Width: 574
GlyphClass: 1
Flags: W
LayerCount: 2
Fore
SplineSet
209 0 m 1,0,-1
 229 0 l 1,1,-1
 376 690 l 1,2,-1
 634 690 l 1,3,-1
 638 710 l 1,4,-1
 102 710 l 1,5,-1
 98 690 l 1,6,-1
 356 690 l 1,7,-1
 209 0 l 1,0,-1
EndSplineSet
EndChar

StartChar: U
Encoding: 85 85 56
Width: 723
GlyphClass: 1
Flags: W
LayerCount: 2
Fore
SplineSet
298 -5 m 0,0,1
 376 -5 376 -5 435 24.5 c 128,-1,2
 494 54 494 54 536.5 103.5 c 128,-1,3
 579 153 579 153 607 218 c 128,-1,4
 635 283 635 283 650 355 c 2,5,-1
 725 710 l 1,6,-1
 705 710 l 1,7,-1
 630 355 l 2,8,9
 617 294 617 294 592 233 c 128,-1,10
 567 172 567 172 527 123.5 c 128,-1,11
 487 75 487 75 430.5 45 c 128,-1,12
 374 15 374 15 298 15 c 0,13,14
 242 15 242 15 204.5 31.5 c 128,-1,15
 167 48 167 48 144.5 77 c 128,-1,16
 122 106 122 106 112.5 145 c 128,-1,17
 103 184 103 184 103 228 c 0,18,19
 103 260 103 260 107 291.5 c 128,-1,20
 111 323 111 323 118 355 c 2,21,-1
 193 710 l 1,22,-1
 173 710 l 1,23,-1
 98 355 l 2,24,25
 91 322 91 322 87 289.5 c 128,-1,26
 83 257 83 257 83 225 c 0,27,28
 83 178 83 178 94 136 c 128,-1,29
 105 94 105 94 130 62.5 c 128,-1,30
 155 31 155 31 196 13 c 128,-1,31
 237 -5 237 -5 298 -5 c 0,0,1
EndSplineSet
EndChar

StartChar: V
Encoding: 86 86 57
Width: 644
GlyphClass: 1
Flags: W
LayerCount: 2
Fore
SplineSet
243 0 m 1,0,-1
 265 0 l 1,1,-1
 709 710 l 1,2,-1
 687 710 l 1,3,-1
 260 25 l 1,4,-1
 122 710 l 1,5,-1
 101 710 l 1,6,-1
 243 0 l 1,0,-1
EndSplineSet
EndChar

StartChar: W
Encoding: 87 87 58
Width: 972
GlyphClass: 1
Flags: W
LayerCount: 2
Fore
SplineSet
174 0 m 1,0,-1
 196 0 l 1,1,-1
 557 678 l 1,2,-1
 638 0 l 1,3,-1
 660 0 l 1,4,-1
 1029 710 l 1,5,-1
 1007 710 l 1,6,-1
 654 25 l 1,7,-1
 574 710 l 1,8,-1
 552 710 l 1,9,-1
 190 25 l 1,10,-1
 128 710 l 1,11,-1
 107 710 l 1,12,-1
 174 0 l 1,0,-1
EndSplineSet
Substitution2: "'ss09' Style Set 9 lookup 40 subtable" W.ss09
Substitution2: "'aalt' Access All Alternates lookup 0 subtable" W.ss09
EndChar

StartChar: X
Encoding: 88 88 59
Width: 588
GlyphClass: 1
Flags: W
LayerCount: 2
Fore
SplineSet
-47 0 m 1,0,-1
 -21 0 l 1,1,-1
 302 334 l 1,2,-1
 482 0 l 1,3,-1
 507 0 l 1,4,-1
 317 350 l 1,5,-1
 666 710 l 1,6,-1
 641 710 l 1,7,-1
 308 366 l 1,8,-1
 122 710 l 1,9,-1
 96 710 l 1,10,-1
 292 350 l 1,11,-1
 -47 0 l 1,0,-1
EndSplineSet
EndChar

StartChar: Y
Encoding: 89 89 60
Width: 594
GlyphClass: 1
Flags: W
LayerCount: 2
Fore
SplineSet
218 0 m 1,0,-1
 238 0 l 1,1,-1
 297 275 l 1,2,-1
 663 710 l 1,3,-1
 640 710 l 1,4,-1
 292 298 l 1,5,-1
 120 710 l 1,6,-1
 97 710 l 1,7,-1
 277 277 l 1,8,-1
 218 0 l 1,0,-1
EndSplineSet
EndChar

StartChar: Z
Encoding: 90 90 61
Width: 587
GlyphClass: 1
Flags: W
LayerCount: 2
Fore
SplineSet
-40 0 m 1,0,-1
 495 0 l 1,1,-1
 499 20 l 1,2,-1
 -11 20 l 1,3,-1
 645 690 l 1,4,-1
 650 710 l 1,5,-1
 116 710 l 1,6,-1
 111 690 l 1,7,-1
 620 690 l 1,8,-1
 -36 20 l 1,9,-1
 -40 0 l 1,0,-1
EndSplineSet
EndChar

StartChar: bracketleft
Encoding: 91 91 62
Width: 216
GlyphClass: 1
Flags: W
LayerCount: 2
Fore
SplineSet
91 -40 m 1,0,-1
 95 -20 l 1,1,-1
 47 -20 l 1,2,-1
 204 720 l 1,3,-1
 252 720 l 1,4,-1
 256 740 l 1,5,-1
 189 740 l 1,6,-1
 23 -40 l 1,7,-1
 91 -40 l 1,0,-1
EndSplineSet
EndChar

StartChar: backslash
Encoding: 92 92 63
Width: 480
GlyphClass: 1
Flags: W
LayerCount: 2
Fore
SplineSet
104 710 m 1,0,-1
 367 0 l 1,1,-1
 392 0 l 1,2,-1
 130 710 l 1,3,-1
 104 710 l 1,0,-1
EndSplineSet
EndChar

StartChar: bracketright
Encoding: 93 93 64
Width: 215
GlyphClass: 1
Flags: W
LayerCount: 2
Fore
SplineSet
48 -40 m 1,0,-1
 213 740 l 1,1,-1
 146 740 l 1,2,-1
 142 720 l 1,3,-1
 189 720 l 1,4,-1
 32 -20 l 1,5,-1
 -16 -20 l 1,6,-1
 -20 -40 l 1,7,-1
 48 -40 l 1,0,-1
EndSplineSet
EndChar

StartChar: asciicircum
Encoding: 94 94 65
Width: 505
GlyphClass: 1
Flags: W
LayerCount: 2
Fore
SplineSet
76 303 m 1,0,-1
 262 681 l 1,1,-1
 445 303 l 1,2,-1
 468 303 l 1,3,-1
 271 710 l 1,4,-1
 253 710 l 1,5,-1
 55 303 l 1,6,-1
 76 303 l 1,0,-1
EndSplineSet
EndChar

StartChar: underscore
Encoding: 95 95 66
Width: 513
GlyphClass: 1
Flags: W
LayerCount: 2
Fore
SplineSet
372 -20 m 1,0,-1
 376 0 l 1,1,-1
 3 0 l 1,2,-1
 -1 -20 l 1,3,-1
 372 -20 l 1,0,-1
EndSplineSet
EndChar

StartChar: a
Encoding: 97 97 68
Width: 580
GlyphClass: 1
Flags: W
LayerCount: 2
Fore
SplineSet
214 -10 m 0,0,1
 279 -10 279 -10 338.5 26 c 128,-1,2
 398 62 398 62 441 119 c 1,3,-1
 415 0 l 1,4,-1
 435 0 l 1,5,-1
 545 517 l 1,6,-1
 525 517 l 1,7,-1
 500 397 l 1,8,9
 482 453 482 453 438.5 490 c 128,-1,10
 395 527 395 527 328 527 c 0,11,12
 273 527 273 527 219.5 500.5 c 128,-1,13
 166 474 166 474 124 430 c 128,-1,14
 82 386 82 386 56 328 c 128,-1,15
 30 270 30 270 30 208 c 0,16,17
 30 166 30 166 42.5 126.5 c 128,-1,18
 55 87 55 87 78.5 56.5 c 128,-1,19
 102 26 102 26 136 8 c 128,-1,20
 170 -10 170 -10 214 -10 c 0,0,1
219 10 m 0,21,22
 179 10 179 10 148 26 c 128,-1,23
 117 42 117 42 95 69.5 c 128,-1,24
 73 97 73 97 61.5 133.5 c 128,-1,25
 50 170 50 170 50 210 c 0,26,27
 50 261 50 261 72 314 c 128,-1,28
 94 367 94 367 131.5 410 c 128,-1,29
 169 453 169 453 219 480 c 128,-1,30
 269 507 269 507 324 507 c 0,31,32
 358 507 358 507 386.5 495 c 128,-1,33
 415 483 415 483 436.5 462 c 128,-1,34
 458 441 458 441 471.5 412.5 c 128,-1,35
 485 384 485 384 490 351 c 1,36,-1
 451 167 l 1,37,38
 433 135 433 135 408 106.5 c 128,-1,39
 383 78 383 78 353 56.5 c 128,-1,40
 323 35 323 35 289 22.5 c 128,-1,41
 255 10 255 10 219 10 c 0,21,22
EndSplineSet
Substitution2: "Single Substitution lookup 46 subtable" ordfeminine
Substitution2: "'ss02' Style Set 2 lookup 33 subtable" a.ss02
Substitution2: "'ss01' Style Set 1 lookup 32 subtable" a.ss01
Substitution2: "'salt' Stylistic Alternatives lookup 31 subtable" a.ss01
AlternateSubs2: "'aalt' Access All Alternates lookup 1 subtable" ordfeminine a.ss01 a.ss02
EndChar

StartChar: b
Encoding: 98 98 69
Width: 576
GlyphClass: 1
Flags: W
LayerCount: 2
Fore
SplineSet
231 -10 m 0,0,1
 287 -10 287 -10 340.5 17 c 128,-1,2
 394 44 394 44 436 89 c 128,-1,3
 478 134 478 134 503.5 192 c 128,-1,4
 529 250 529 250 529 313 c 0,5,6
 529 352 529 352 518 390.5 c 128,-1,7
 507 429 507 429 484.5 459 c 128,-1,8
 462 489 462 489 428.5 508 c 128,-1,9
 395 527 395 527 349 527 c 0,10,11
 285 527 285 527 228.5 491 c 128,-1,12
 172 455 172 455 122 398 c 1,13,-1
 192 730 l 1,14,-1
 172 730 l 1,15,-1
 17 0 l 1,16,-1
 37 0 l 1,17,-1
 60 108 l 1,18,19
 69 85 69 85 84.5 63.5 c 128,-1,20
 100 42 100 42 121.5 25.5 c 128,-1,21
 143 9 143 9 170.5 -0.5 c 128,-1,22
 198 -10 198 -10 231 -10 c 0,0,1
233 10 m 0,23,24
 202 10 202 10 174.5 19 c 128,-1,25
 147 28 147 28 125 45 c 128,-1,26
 103 62 103 62 88 86.5 c 128,-1,27
 73 111 73 111 68 141 c 1,28,-1
 114 366 l 1,29,30
 138 394 138 394 164 419.5 c 128,-1,31
 190 445 190 445 218 464.5 c 128,-1,32
 246 484 246 484 277 495.5 c 128,-1,33
 308 507 308 507 342 507 c 0,34,35
 382 507 382 507 413 490.5 c 128,-1,36
 444 474 444 474 465 447 c 128,-1,37
 486 420 486 420 497 385 c 128,-1,38
 508 350 508 350 508 312 c 0,39,40
 508 255 508 255 485 201 c 128,-1,41
 462 147 462 147 424 104.5 c 128,-1,42
 386 62 386 62 336 36 c 128,-1,43
 286 10 286 10 233 10 c 0,23,24
EndSplineSet
EndChar

StartChar: c
Encoding: 99 99 70
Width: 514
GlyphClass: 1
Flags: W
LayerCount: 2
Fore
SplineSet
219 -10 m 0,0,1
 251 -10 251 -10 283.5 -0.5 c 128,-1,2
 316 9 316 9 345.5 25.5 c 128,-1,3
 375 42 375 42 398.5 64.5 c 128,-1,4
 422 87 422 87 436 113 c 1,5,-1
 417 119 l 1,6,7
 407 98 407 98 385.5 78 c 128,-1,8
 364 58 364 58 337 43 c 128,-1,9
 310 28 310 28 279.5 19 c 128,-1,10
 249 10 249 10 220 10 c 0,11,12
 183 10 183 10 151.5 26 c 128,-1,13
 120 42 120 42 98 69.5 c 128,-1,14
 76 97 76 97 63.5 134.5 c 128,-1,15
 51 172 51 172 51 214 c 0,16,17
 51 273 51 273 75 326.5 c 128,-1,18
 99 380 99 380 139 420 c 128,-1,19
 179 460 179 460 230 483.5 c 128,-1,20
 281 507 281 507 335 507 c 0,21,22
 386 507 386 507 422 479.5 c 128,-1,23
 458 452 458 452 471 404 c 1,24,-1
 493 411 l 1,25,26
 479 466 479 466 437 496.5 c 128,-1,27
 395 527 395 527 332 527 c 0,28,29
 274 527 274 527 219.5 501.5 c 128,-1,30
 165 476 165 476 123 433 c 128,-1,31
 81 390 81 390 56 332.5 c 128,-1,32
 31 275 31 275 31 210 c 0,33,34
 31 164 31 164 44.5 124 c 128,-1,35
 58 84 58 84 83 54 c 128,-1,36
 108 24 108 24 142.5 7 c 128,-1,37
 177 -10 177 -10 219 -10 c 0,0,1
EndSplineSet
EndChar

StartChar: d
Encoding: 100 100 71
Width: 577
GlyphClass: 1
Flags: W
LayerCount: 2
Fore
SplineSet
218 -10 m 0,0,1
 246 -10 246 -10 275.5 -1.5 c 128,-1,2
 305 7 305 7 333.5 23 c 128,-1,3
 362 39 362 39 388 60.5 c 128,-1,4
 414 82 414 82 435 108 c 1,5,-1
 412 0 l 1,6,-1
 432 0 l 1,7,-1
 587 730 l 1,8,-1
 567 730 l 1,9,-1
 497 398 l 1,10,11
 485 424 485 424 469 447.5 c 128,-1,12
 453 471 453 471 432 488.5 c 128,-1,13
 411 506 411 506 384 516.5 c 128,-1,14
 357 527 357 527 323 527 c 0,15,16
 266 527 266 527 213.5 500 c 128,-1,17
 161 473 161 473 120.5 428.5 c 128,-1,18
 80 384 80 384 55.5 327.5 c 128,-1,19
 31 271 31 271 31 211 c 0,20,21
 31 168 31 168 43.5 128.5 c 128,-1,22
 56 89 56 89 80 58 c 128,-1,23
 104 27 104 27 139 8.5 c 128,-1,24
 174 -10 174 -10 218 -10 c 0,0,1
222 10 m 0,25,26
 183 10 183 10 151.5 26.5 c 128,-1,27
 120 43 120 43 97.5 70.5 c 128,-1,28
 75 98 75 98 63 135 c 128,-1,29
 51 172 51 172 51 213 c 0,30,31
 51 265 51 265 72 317.5 c 128,-1,32
 93 370 93 370 129.5 412 c 128,-1,33
 166 454 166 454 215 480.5 c 128,-1,34
 264 507 264 507 319 507 c 0,35,36
 349 507 349 507 378 495 c 128,-1,37
 407 483 407 483 430 462.5 c 128,-1,38
 453 442 453 442 469 414.5 c 128,-1,39
 485 387 485 387 488 356 c 1,40,-1
 448 169 l 2,41,42
 441 137 441 137 415.5 108 c 128,-1,43
 390 79 390 79 356.5 57.5 c 128,-1,44
 323 36 323 36 287 23 c 128,-1,45
 251 10 251 10 222 10 c 0,25,26
EndSplineSet
Substitution2: "'ss03' Style Set 3 lookup 34 subtable" d.ss03
Substitution2: "'aalt' Access All Alternates lookup 0 subtable" d.ss03
EndChar

StartChar: e
Encoding: 101 101 72
Width: 521
GlyphClass: 1
Flags: W
LayerCount: 2
Fore
SplineSet
220 -10 m 0,0,1
 254 -10 254 -10 287 -0.5 c 128,-1,2
 320 9 320 9 349.5 26 c 128,-1,3
 379 43 379 43 403.5 67.5 c 128,-1,4
 428 92 428 92 445 122 c 1,5,-1
 426 128 l 1,6,7
 411 101 411 101 388.5 79 c 128,-1,8
 366 57 366 57 339 42 c 128,-1,9
 312 27 312 27 283 18.5 c 128,-1,10
 254 10 254 10 227 10 c 0,11,12
 184 10 184 10 151 26 c 128,-1,13
 118 42 118 42 96 69.5 c 128,-1,14
 74 97 74 97 63 133.5 c 128,-1,15
 52 170 52 170 52 211 c 0,16,17
 52 267 52 267 73.5 320 c 128,-1,18
 95 373 95 373 132.5 414.5 c 128,-1,19
 170 456 170 456 220.5 481.5 c 128,-1,20
 271 507 271 507 328 507 c 0,21,22
 350 507 350 507 374 500.5 c 128,-1,23
 398 494 398 494 418.5 479.5 c 128,-1,24
 439 465 439 465 452 443 c 128,-1,25
 465 421 465 421 465 391 c 0,26,27
 465 364 465 364 452.5 341.5 c 128,-1,28
 440 319 440 319 412 302.5 c 128,-1,29
 384 286 384 286 338.5 277 c 128,-1,30
 293 268 293 268 227 268 c 0,31,32
 189 268 189 268 148.5 269.5 c 128,-1,33
 108 271 108 271 57 274 c 1,34,-1
 37 255 l 1,35,36
 94 251 94 251 138 249.5 c 128,-1,37
 182 248 182 248 224 248 c 0,38,39
 357 248 357 248 421.5 284 c 128,-1,40
 486 320 486 320 486 390 c 0,41,42
 486 424 486 424 471.5 449.5 c 128,-1,43
 457 475 457 475 435 492.5 c 128,-1,44
 413 510 413 510 386 518.5 c 128,-1,45
 359 527 359 527 333 527 c 0,46,47
 269 527 269 527 213.5 499.5 c 128,-1,48
 158 472 158 472 117.5 427.5 c 128,-1,49
 77 383 77 383 54 326 c 128,-1,50
 31 269 31 269 31 210 c 0,51,52
 31 165 31 165 44 125 c 128,-1,53
 57 85 57 85 81 55 c 128,-1,54
 105 25 105 25 140 7.5 c 128,-1,55
 175 -10 175 -10 220 -10 c 0,0,1
EndSplineSet
EndChar

StartChar: f
Encoding: 102 102 73
Width: 292
GlyphClass: 1
Flags: W
LayerCount: 2
Fore
SplineSet
-12 -213 m 1,0,-1
 8 -213 l 1,1,-1
 159 499 l 1,2,-1
 306 499 l 1,3,-1
 310 519 l 1,4,-1
 164 519 l 1,5,-1
 168 540 l 2,6,7
 185 628 185 628 224.5 674.5 c 128,-1,8
 264 721 264 721 318 721 c 0,9,10
 340 721 340 721 358.5 713.5 c 128,-1,11
 377 706 377 706 386 694 c 1,12,-1
 404 706 l 1,13,14
 394 721 394 721 371 730.5 c 128,-1,15
 348 740 348 740 321 740 c 0,16,17
 290 740 290 740 263 726.5 c 128,-1,18
 236 713 236 713 213.5 687.5 c 128,-1,19
 191 662 191 662 174 624.5 c 128,-1,20
 157 587 157 587 148 540 c 2,21,-1
 144 519 l 1,22,-1
 72 519 l 1,23,-1
 68 499 l 1,24,-1
 139 499 l 1,25,-1
 -12 -213 l 1,0,-1
EndSplineSet
EndChar

StartChar: g
Encoding: 103 103 74
Width: 576
GlyphClass: 1
Flags: W
LayerCount: 2
Fore
SplineSet
166 -223 m 0,0,1
 208 -223 208 -223 250 -211 c 128,-1,2
 292 -199 292 -199 327.5 -174 c 128,-1,3
 363 -149 363 -149 389 -111 c 128,-1,4
 415 -73 415 -73 426 -22 c 2,5,-1
 541 519 l 1,6,-1
 522 519 l 1,7,-1
 496 398 l 1,8,9
 484 425 484 425 467.5 448.5 c 128,-1,10
 451 472 451 472 430 489.5 c 128,-1,11
 409 507 409 507 382 517 c 128,-1,12
 355 527 355 527 322 527 c 0,13,14
 264 527 264 527 211 499.5 c 128,-1,15
 158 472 158 472 118 427 c 128,-1,16
 78 382 78 382 54 325.5 c 128,-1,17
 30 269 30 269 30 211 c 0,18,19
 30 168 30 168 42.5 128.5 c 128,-1,20
 55 89 55 89 79 58 c 128,-1,21
 103 27 103 27 137.5 8.5 c 128,-1,22
 172 -10 172 -10 216 -10 c 0,23,24
 244 -10 244 -10 274 -1.5 c 128,-1,25
 304 7 304 7 332.5 23 c 128,-1,26
 361 39 361 39 387 60.5 c 128,-1,27
 413 82 413 82 434 108 c 1,28,-1
 406 -22 l 2,29,30
 396 -67 396 -67 373 -100.5 c 128,-1,31
 350 -134 350 -134 318.5 -157 c 128,-1,32
 287 -180 287 -180 249 -191.5 c 128,-1,33
 211 -203 211 -203 170 -203 c 0,34,35
 110 -203 110 -203 62.5 -177.5 c 128,-1,36
 15 -152 15 -152 -2 -93 c 1,37,-1
 -22 -99 l 1,38,39
 -14 -127 -14 -127 0 -149.5 c 128,-1,40
 14 -172 14 -172 36 -188.5 c 128,-1,41
 58 -205 58 -205 90 -214 c 128,-1,42
 122 -223 122 -223 166 -223 c 0,0,1
221 10 m 0,43,44
 182 10 182 10 150.5 26.5 c 128,-1,45
 119 43 119 43 96.5 70.5 c 128,-1,46
 74 98 74 98 62 135 c 128,-1,47
 50 172 50 172 50 213 c 0,48,49
 50 262 50 262 70.5 314 c 128,-1,50
 91 366 91 366 127 409 c 128,-1,51
 163 452 163 452 212 479.5 c 128,-1,52
 261 507 261 507 318 507 c 0,53,54
 350 507 350 507 378.5 495.5 c 128,-1,55
 407 484 407 484 429.5 464 c 128,-1,56
 452 444 452 444 467 416.5 c 128,-1,57
 482 389 482 389 487 356 c 1,58,-1
 447 169 l 2,59,60
 439 141 439 141 415.5 113 c 128,-1,61
 392 85 392 85 360.5 62 c 128,-1,62
 329 39 329 39 292.5 24.5 c 128,-1,63
 256 10 256 10 221 10 c 0,43,44
EndSplineSet
EndChar

StartChar: h
Encoding: 104 104 75
Width: 540
GlyphClass: 1
Flags: W
LayerCount: 2
Fore
SplineSet
17 0 m 1,0,-1
 37 0 l 1,1,-1
 107 328 l 1,2,3
 125 366 125 366 152.5 398.5 c 128,-1,4
 180 431 180 431 213 455 c 128,-1,5
 246 479 246 479 282 493 c 128,-1,6
 318 507 318 507 352 507 c 0,7,8
 403 507 403 507 428.5 476 c 128,-1,9
 454 445 454 445 454 384 c 0,10,11
 454 364 454 364 450.5 340 c 128,-1,12
 447 316 447 316 442 289 c 2,13,-1
 381 0 l 1,14,-1
 401 0 l 1,15,-1
 462 289 l 2,16,17
 468 317 468 317 471 342 c 128,-1,18
 474 367 474 367 474 388 c 0,19,20
 474 423 474 423 466.5 449 c 128,-1,21
 459 475 459 475 444 492 c 128,-1,22
 429 509 429 509 407 518 c 128,-1,23
 385 527 385 527 356 527 c 0,24,25
 324 527 324 527 291.5 517 c 128,-1,26
 259 507 259 507 228 488.5 c 128,-1,27
 197 470 197 470 169 443.5 c 128,-1,28
 141 417 141 417 119 385 c 1,29,-1
 192 730 l 1,30,-1
 172 730 l 1,31,-1
 17 0 l 1,0,-1
EndSplineSet
EndChar

StartChar: k
Encoding: 107 107 78
Width: 521
GlyphClass: 1
Flags: W
LayerCount: 2
Fore
SplineSet
381 0 m 1,0,-1
 405 0 l 1,1,-1
 285 242 l 1,2,3
 390 261 390 261 450.5 310.5 c 128,-1,4
 511 360 511 360 511 426 c 0,5,6
 511 476 511 476 478 503.5 c 128,-1,7
 445 531 445 531 385 531 c 0,8,9
 349 531 349 531 312.5 518 c 128,-1,10
 276 505 276 505 239.5 479.5 c 128,-1,11
 203 454 203 454 167.5 415 c 128,-1,12
 132 376 132 376 99 325 c 1,13,-1
 81 281 l 1,14,15
 123 341 123 341 162.5 384.5 c 128,-1,16
 202 428 202 428 239 456.5 c 128,-1,17
 276 485 276 485 311.5 498.5 c 128,-1,18
 347 512 347 512 382 512 c 0,19,20
 433 512 433 512 461 488.5 c 128,-1,21
 489 465 489 465 489 423 c 0,22,23
 489 363 489 363 429.5 320 c 128,-1,24
 370 277 370 277 257 255 c 1,25,-1
 381 0 l 1,0,-1
17 0 m 1,26,-1
 37 0 l 1,27,-1
 192 730 l 1,28,-1
 172 730 l 1,29,-1
 17 0 l 1,26,-1
EndSplineSet
EndChar

StartChar: l
Encoding: 108 108 79
Width: 224
GlyphClass: 1
Flags: W
LayerCount: 2
Fore
SplineSet
96 -5 m 0,0,1
 110 -5 110 -5 130.5 -1.5 c 128,-1,2
 151 2 151 2 165 7 c 1,3,-1
 162 23 l 1,4,5
 149 19 149 19 134 16.5 c 128,-1,6
 119 14 119 14 108 14 c 0,7,8
 83 14 83 14 69.5 26 c 128,-1,9
 56 38 56 38 56 61 c 0,10,11
 56 65 56 65 56.5 68.5 c 128,-1,12
 57 72 57 72 58 77 c 2,13,-1
 197 730 l 1,14,-1
 177 730 l 1,15,-1
 38 77 l 2,16,17
 36 71 36 71 36 66 c 128,-1,18
 36 61 36 61 36 56 c 0,19,20
 36 28 36 28 52 11.5 c 128,-1,21
 68 -5 68 -5 96 -5 c 0,0,1
EndSplineSet
Substitution2: "'ss05' Style Set 5 lookup 36 subtable" l.ss05
Substitution2: "'aalt' Access All Alternates lookup 0 subtable" l.ss05
EndChar

StartChar: m
Encoding: 109 109 80
Width: 866
GlyphClass: 1
Flags: W
LayerCount: 2
Fore
SplineSet
17 0 m 1,0,-1
 37 0 l 1,1,-1
 107 328 l 1,2,3
 126 368 126 368 152 401 c 128,-1,4
 178 434 178 434 208 457.5 c 128,-1,5
 238 481 238 481 271.5 494 c 128,-1,6
 305 507 305 507 339 507 c 0,7,8
 389 507 389 507 412.5 479 c 128,-1,9
 436 451 436 451 436 393 c 0,10,11
 436 372 436 372 433 346 c 128,-1,12
 430 320 430 320 423 289 c 2,13,-1
 362 0 l 1,14,-1
 382 0 l 1,15,-1
 451 327 l 1,16,17
 470 367 470 367 495.5 400 c 128,-1,18
 521 433 521 433 551 457 c 128,-1,19
 581 481 581 481 614.5 494 c 128,-1,20
 648 507 648 507 682 507 c 0,21,22
 732 507 732 507 756 478.5 c 128,-1,23
 780 450 780 450 780 390 c 0,24,25
 780 369 780 369 777 343.5 c 128,-1,26
 774 318 774 318 768 289 c 2,27,-1
 707 0 l 1,28,-1
 727 0 l 1,29,-1
 788 289 l 2,30,31
 795 320 795 320 798 347 c 128,-1,32
 801 374 801 374 801 396 c 0,33,34
 801 429 801 429 794 453.5 c 128,-1,35
 787 478 787 478 773 494.5 c 128,-1,36
 759 511 759 511 738 519 c 128,-1,37
 717 527 717 527 688 527 c 0,38,39
 656 527 656 527 623 517 c 128,-1,40
 590 507 590 507 559.5 487 c 128,-1,41
 529 467 529 467 502.5 437.5 c 128,-1,42
 476 408 476 408 457 370 c 1,43,44
 460 407 460 407 453.5 436 c 128,-1,45
 447 465 447 465 432 485.5 c 128,-1,46
 417 506 417 506 393.5 516.5 c 128,-1,47
 370 527 370 527 340 527 c 0,48,49
 281 527 281 527 223.5 490 c 128,-1,50
 166 453 166 453 119 385 c 1,51,-1
 147 519 l 1,52,-1
 127 519 l 1,53,-1
 17 0 l 1,0,-1
EndSplineSet
EndChar

StartChar: n
Encoding: 110 110 81
Width: 540
GlyphClass: 1
Flags: W
LayerCount: 2
Fore
SplineSet
17 0 m 1,0,-1
 37 0 l 1,1,-1
 107 328 l 1,2,3
 125 366 125 366 154 399 c 128,-1,4
 183 432 183 432 217.5 456 c 128,-1,5
 252 480 252 480 289.5 493.5 c 128,-1,6
 327 507 327 507 362 507 c 0,7,8
 410 507 410 507 432.5 480 c 128,-1,9
 455 453 455 453 455 396 c 0,10,11
 455 374 455 374 452 347.5 c 128,-1,12
 449 321 449 321 442 289 c 2,13,-1
 381 0 l 1,14,-1
 401 0 l 1,15,-1
 462 289 l 2,16,17
 469 321 469 321 472.5 349 c 128,-1,18
 476 377 476 377 476 401 c 0,19,20
 476 433 476 433 469 457 c 128,-1,21
 462 481 462 481 448.5 496.5 c 128,-1,22
 435 512 435 512 414.5 519.5 c 128,-1,23
 394 527 394 527 366 527 c 0,24,25
 333 527 333 527 298.5 516.5 c 128,-1,26
 264 506 264 506 231.5 487.5 c 128,-1,27
 199 469 199 469 170 443 c 128,-1,28
 141 417 141 417 119 385 c 1,29,-1
 147 519 l 1,30,-1
 127 519 l 1,31,-1
 17 0 l 1,0,-1
EndSplineSet
EndChar

StartChar: o
Encoding: 111 111 82
Width: 561
GlyphClass: 1
Flags: W
LayerCount: 2
Fore
SplineSet
219 -10 m 0,0,1
 276 -10 276 -10 329.5 15 c 128,-1,2
 383 40 383 40 423.5 83.5 c 128,-1,3
 464 127 464 127 488.5 185 c 128,-1,4
 513 243 513 243 513 310 c 0,5,6
 513 355 513 355 501 394.5 c 128,-1,7
 489 434 489 434 465.5 463.5 c 128,-1,8
 442 493 442 493 407 510 c 128,-1,9
 372 527 372 527 325 527 c 0,10,11
 269 527 269 527 216 502 c 128,-1,12
 163 477 163 477 121.5 433.5 c 128,-1,13
 80 390 80 390 55 331.5 c 128,-1,14
 30 273 30 273 30 205 c 0,15,16
 30 161 30 161 41.5 122 c 128,-1,17
 53 83 53 83 76.5 53.5 c 128,-1,18
 100 24 100 24 135.5 7 c 128,-1,19
 171 -10 171 -10 219 -10 c 0,0,1
222 10 m 0,20,21
 179 10 179 10 146.5 25.5 c 128,-1,22
 114 41 114 41 92.5 68 c 128,-1,23
 71 95 71 95 60.5 131 c 128,-1,24
 50 167 50 167 50 208 c 0,25,26
 50 271 50 271 73 325.5 c 128,-1,27
 96 380 96 380 134 420.5 c 128,-1,28
 172 461 172 461 220.5 484 c 128,-1,29
 269 507 269 507 321 507 c 0,30,31
 364 507 364 507 396.5 491 c 128,-1,32
 429 475 429 475 450.5 447.5 c 128,-1,33
 472 420 472 420 482.5 383.5 c 128,-1,34
 493 347 493 347 493 306 c 0,35,36
 493 244 493 244 470 190 c 128,-1,37
 447 136 447 136 409.5 96 c 128,-1,38
 372 56 372 56 323 33 c 128,-1,39
 274 10 274 10 222 10 c 0,20,21
EndSplineSet
Substitution2: "Single Substitution lookup 46 subtable" ordmasculine
Substitution2: "'aalt' Access All Alternates lookup 0 subtable" ordmasculine
EndChar

StartChar: p
Encoding: 112 112 83
Width: 577
GlyphClass: 1
Flags: W
LayerCount: 2
Fore
SplineSet
-28 -213 m 1,0,-1
 -8 -213 l 1,1,-1
 63 119 l 1,2,3
 73 93 73 93 89 69.5 c 128,-1,4
 105 46 105 46 127 28.5 c 128,-1,5
 149 11 149 11 176 0.5 c 128,-1,6
 203 -10 203 -10 236 -10 c 0,7,8
 296 -10 296 -10 349 17.5 c 128,-1,9
 402 45 402 45 442 89.5 c 128,-1,10
 482 134 482 134 505 190.5 c 128,-1,11
 528 247 528 247 528 306 c 0,12,13
 528 348 528 348 515.5 388 c 128,-1,14
 503 428 503 428 479 459 c 128,-1,15
 455 490 455 490 420.5 508.5 c 128,-1,16
 386 527 386 527 342 527 c 0,17,18
 314 527 314 527 284 518.5 c 128,-1,19
 254 510 254 510 225.5 494 c 128,-1,20
 197 478 197 478 171 456.5 c 128,-1,21
 145 435 145 435 124 409 c 1,22,-1
 147 519 l 1,23,-1
 128 519 l 1,24,-1
 -28 -213 l 1,0,-1
240 10 m 0,25,26
 207 10 207 10 179 22 c 128,-1,27
 151 34 151 34 129.5 54 c 128,-1,28
 108 74 108 74 93 102 c 128,-1,29
 78 130 78 130 71 161 c 1,30,-1
 111 348 l 2,31,32
 120 379 120 379 145.5 408 c 128,-1,33
 171 437 171 437 204 459 c 128,-1,34
 237 481 237 481 273 494 c 128,-1,35
 309 507 309 507 337 507 c 0,36,37
 376 507 376 507 407.5 490.5 c 128,-1,38
 439 474 439 474 461.5 446 c 128,-1,39
 484 418 484 418 496 381.5 c 128,-1,40
 508 345 508 345 508 304 c 0,41,42
 508 252 508 252 487 199.5 c 128,-1,43
 466 147 466 147 429.5 105 c 128,-1,44
 393 63 393 63 344 36.5 c 128,-1,45
 295 10 295 10 240 10 c 0,25,26
EndSplineSet
EndChar

StartChar: q
Encoding: 113 113 84
Width: 576
GlyphClass: 1
Flags: W
LayerCount: 2
Fore
SplineSet
366 -213 m 1,0,-1
 386 -213 l 1,1,-1
 541 519 l 1,2,-1
 521 519 l 1,3,-1
 498 409 l 1,4,5
 489 434 489 434 472.5 455.5 c 128,-1,6
 456 477 456 477 434 493 c 128,-1,7
 412 509 412 509 386 518 c 128,-1,8
 360 527 360 527 331 527 c 0,9,10
 274 527 274 527 220 500 c 128,-1,11
 166 473 166 473 123.5 428 c 128,-1,12
 81 383 81 383 55 325 c 128,-1,13
 29 267 29 267 29 205 c 0,14,15
 29 163 29 163 40.5 124 c 128,-1,16
 52 85 52 85 74.5 55.5 c 128,-1,17
 97 26 97 26 130.5 8 c 128,-1,18
 164 -10 164 -10 208 -10 c 0,19,20
 266 -10 266 -10 323.5 23 c 128,-1,21
 381 56 381 56 436 119 c 1,22,-1
 366 -213 l 1,0,-1
212 10 m 0,23,24
 174 10 174 10 143.5 26 c 128,-1,25
 113 42 113 42 92 69 c 128,-1,26
 71 96 71 96 60 132 c 128,-1,27
 49 168 49 168 49 208 c 0,28,29
 49 262 49 262 72 315.5 c 128,-1,30
 95 369 95 369 133.5 411.5 c 128,-1,31
 172 454 172 454 222 480.5 c 128,-1,32
 272 507 272 507 327 507 c 0,33,34
 362 507 362 507 390.5 495 c 128,-1,35
 419 483 419 483 440 463 c 128,-1,36
 461 443 461 443 474 417.5 c 128,-1,37
 487 392 487 392 490 365 c 1,38,-1
 445 161 l 1,39,40
 425 131 425 131 399 104 c 128,-1,41
 373 77 373 77 343.5 56 c 128,-1,42
 314 35 314 35 280.5 22.5 c 128,-1,43
 247 10 247 10 212 10 c 0,23,24
EndSplineSet
Substitution2: "'ss06' Style Set 6 lookup 37 subtable" q.ss06
Substitution2: "'aalt' Access All Alternates lookup 0 subtable" q.ss06
EndChar

StartChar: r
Encoding: 114 114 85
Width: 317
GlyphClass: 1
Flags: W
LayerCount: 2
Fore
SplineSet
17 0 m 1,0,-1
 37 0 l 1,1,-1
 107 328 l 1,2,3
 143 406 143 406 203.5 451 c 128,-1,4
 264 496 264 496 335 499 c 1,5,-1
 339 519 l 1,6,7
 334 519 334 519 329.5 519 c 128,-1,8
 325 519 325 519 320 518 c 0,9,10
 266 513 266 513 213 479.5 c 128,-1,11
 160 446 160 446 119 385 c 1,12,-1
 147 519 l 1,13,-1
 127 519 l 1,14,-1
 17 0 l 1,0,-1
EndSplineSet
EndChar

StartChar: s
Encoding: 115 115 86
Width: 450
GlyphClass: 1
Flags: W
LayerCount: 2
Fore
SplineSet
159 -10 m 0,0,1
 206 -10 206 -10 246 1 c 128,-1,2
 286 12 286 12 315 34 c 128,-1,3
 344 56 344 56 360.5 88 c 128,-1,4
 377 120 377 120 377 162 c 0,5,6
 377 188 377 188 365.5 205.5 c 128,-1,7
 354 223 354 223 332.5 236 c 128,-1,8
 311 249 311 249 280.5 258 c 128,-1,9
 250 267 250 267 213 277 c 0,10,11
 183 285 183 285 160.5 292 c 128,-1,12
 138 299 138 299 123 308 c 128,-1,13
 108 317 108 317 100.5 330 c 128,-1,14
 93 343 93 343 93 362 c 0,15,16
 93 401 93 401 109.5 428.5 c 128,-1,17
 126 456 126 456 152 473.5 c 128,-1,18
 178 491 178 491 210 499 c 128,-1,19
 242 507 242 507 273 507 c 0,20,21
 321 507 321 507 358.5 491 c 128,-1,22
 396 475 396 475 407 444 c 1,23,-1
 426 452 l 1,24,25
 416 484 416 484 378.5 505.5 c 128,-1,26
 341 527 341 527 281 527 c 0,27,28
 239 527 239 527 201.5 516.5 c 128,-1,29
 164 506 164 506 135 485 c 128,-1,30
 106 464 106 464 89 432 c 128,-1,31
 72 400 72 400 72 356 c 0,32,33
 72 333 72 333 81 317.5 c 128,-1,34
 90 302 90 302 107.5 291.5 c 128,-1,35
 125 281 125 281 150 273 c 128,-1,36
 175 265 175 265 208 257 c 0,37,38
 243 248 243 248 270.5 239 c 128,-1,39
 298 230 298 230 317 219 c 128,-1,40
 336 208 336 208 346 192.5 c 128,-1,41
 356 177 356 177 356 155 c 0,42,43
 356 122 356 122 341 95 c 128,-1,44
 326 68 326 68 300 49.5 c 128,-1,45
 274 31 274 31 239 20.5 c 128,-1,46
 204 10 204 10 163 10 c 0,47,48
 110 10 110 10 72.5 29 c 128,-1,49
 35 48 35 48 5 87 c 1,50,-1
 -12 74 l 1,51,52
 16 31 16 31 59 10.5 c 128,-1,53
 102 -10 102 -10 159 -10 c 0,0,1
EndSplineSet
EndChar

StartChar: t
Encoding: 116 116 87
Width: 281
GlyphClass: 1
Flags: W
LayerCount: 2
Fore
SplineSet
48 58 m 0,0,1
 48 30 48 30 68 12.5 c 128,-1,2
 88 -5 88 -5 119 -5 c 0,3,4
 139 -5 139 -5 156 -0.5 c 128,-1,5
 173 4 173 4 186.5 9 c 128,-1,6
 200 14 200 14 208 19 c 128,-1,7
 216 24 216 24 216 24 c 1,8,-1
 209 40 l 1,9,10
 208 39 208 39 200.5 35 c 128,-1,11
 193 31 193 31 181.5 26.5 c 128,-1,12
 170 22 170 22 155 18.5 c 128,-1,13
 140 15 140 15 124 15 c 0,14,15
 101 15 101 15 85 28 c 128,-1,16
 69 41 69 41 69 66 c 0,17,18
 69 73 69 73 71.5 85.5 c 128,-1,19
 74 98 74 98 80 126 c 2,20,-1
 160 499 l 1,21,-1
 279 499 l 1,22,-1
 283 519 l 1,23,-1
 165 519 l 1,24,-1
 203 700 l 1,25,-1
 183 700 l 1,26,-1
 145 519 l 1,27,-1
 73 519 l 1,28,-1
 69 499 l 1,29,-1
 140 499 l 1,30,-1
 50 75 l 2,31,32
 49 70 49 70 48.5 66 c 128,-1,33
 48 62 48 62 48 58 c 0,0,1
EndSplineSet
Substitution2: "'ss07' Style Set 7 lookup 38 subtable" t.ss07
Substitution2: "'aalt' Access All Alternates lookup 0 subtable" t.ss07
EndChar

StartChar: u
Encoding: 117 117 88
Width: 549
GlyphClass: 1
Flags: W
LayerCount: 2
Fore
SplineSet
171 -10 m 0,0,1
 203 -10 203 -10 236.5 0.5 c 128,-1,2
 270 11 270 11 302 29.5 c 128,-1,3
 334 48 334 48 362 74.5 c 128,-1,4
 390 101 390 101 412 132 c 1,5,-1
 384 0 l 1,6,-1
 404 0 l 1,7,-1
 515 519 l 1,8,-1
 495 519 l 1,9,-1
 424 189 l 1,10,11
 408 155 408 155 381 122.5 c 128,-1,12
 354 90 354 90 321 65 c 128,-1,13
 288 40 288 40 250.5 25 c 128,-1,14
 213 10 213 10 175 10 c 0,15,16
 114 10 114 10 90.5 43 c 128,-1,17
 67 76 67 76 67 128 c 0,18,19
 67 151 67 151 70.5 176 c 128,-1,20
 74 201 74 201 80 228 c 2,21,-1
 142 519 l 1,22,-1
 122 519 l 1,23,-1
 60 228 l 2,24,25
 54 202 54 202 50.5 175.5 c 128,-1,26
 47 149 47 149 47 124 c 0,27,28
 47 96 47 96 53 71.5 c 128,-1,29
 59 47 59 47 73 29 c 128,-1,30
 87 11 87 11 111 0.5 c 128,-1,31
 135 -10 135 -10 171 -10 c 0,0,1
EndSplineSet
Substitution2: "'ss08' Style Set 8 lookup 39 subtable" u.ss08
Substitution2: "'aalt' Access All Alternates lookup 0 subtable" u.ss08
EndChar

StartChar: v
Encoding: 118 118 89
Width: 451
GlyphClass: 1
Flags: W
LayerCount: 2
Fore
SplineSet
147 0 m 1,0,-1
 170 0 l 1,1,-1
 456 519 l 1,2,-1
 431 519 l 1,3,-1
 163 28 l 1,4,-1
 85 519 l 1,5,-1
 64 519 l 1,6,-1
 147 0 l 1,0,-1
EndSplineSet
EndChar

StartChar: w
Encoding: 119 119 90
Width: 755
GlyphClass: 1
Flags: W
LayerCount: 2
Fore
SplineSet
70 519 m 1,0,-1
 136 0 l 1,1,-1
 155 0 l 1,2,-1
 416 493 l 1,3,-1
 467 0 l 1,4,-1
 485 0 l 1,5,-1
 772 519 l 1,6,-1
 750 519 l 1,7,-1
 482 30 l 1,8,-1
 432 519 l 1,9,-1
 410 519 l 1,10,-1
 152 30 l 1,11,-1
 92 519 l 1,12,-1
 70 519 l 1,0,-1
EndSplineSet
Substitution2: "'ss09' Style Set 9 lookup 40 subtable" w.ss09
Substitution2: "'aalt' Access All Alternates lookup 0 subtable" w.ss09
EndChar

StartChar: x
Encoding: 120 120 91
Width: 456
GlyphClass: 1
Flags: W
LayerCount: 2
Fore
SplineSet
-44 0 m 1,0,-1
 -18 0 l 1,1,-1
 206 234 l 1,2,-1
 216 244 l 1,3,-1
 221 232 l 1,4,-1
 347 0 l 1,5,-1
 373 0 l 1,6,-1
 232 258 l 1,7,-1
 485 519 l 1,8,-1
 459 519 l 1,9,-1
 230 281 l 1,10,-1
 222 273 l 1,11,-1
 217 285 l 1,12,-1
 90 519 l 1,13,-1
 64 519 l 1,14,-1
 206 258 l 1,15,-1
 -44 0 l 1,0,-1
EndSplineSet
EndChar

StartChar: y
Encoding: 121 121 92
Width: 487
GlyphClass: 1
Flags: W
LayerCount: 2
Fore
SplineSet
172 0 m 1,0,1
 156 -27 156 -27 140 -53.5 c 128,-1,2
 124 -80 124 -80 107.5 -106.5 c 128,-1,3
 91 -133 91 -133 75 -159.5 c 128,-1,4
 59 -186 59 -186 43 -213 c 1,5,-1
 61 -213 l 1,6,-1
 519 519 l 1,7,-1
 498 519 l 1,8,-1
 187 25 l 1,9,-1
 75 519 l 1,10,-1
 54 519 l 1,11,-1
 172 0 l 1,0,1
EndSplineSet
Substitution2: "'ss10' Style Set 10 lookup 41 subtable" y.ss10
Substitution2: "'aalt' Access All Alternates lookup 0 subtable" y.ss10
EndChar

StartChar: z
Encoding: 122 122 93
Width: 457
GlyphClass: 1
Flags: W
LayerCount: 2
Fore
SplineSet
-36 0 m 1,0,-1
 360 0 l 1,1,-1
 365 20 l 1,2,-1
 -6 20 l 1,3,-1
 470 499 l 1,4,-1
 474 519 l 1,5,-1
 79 519 l 1,6,-1
 75 499 l 1,7,-1
 445 499 l 1,8,-1
 -32 20 l 1,9,-1
 -36 0 l 1,0,-1
EndSplineSet
EndChar

StartChar: braceleft
Encoding: 123 123 94
Width: 217
GlyphClass: 1
Flags: W
LayerCount: 2
Fore
SplineSet
256 720 m 1,0,-1
 260 740 l 1,1,-1
 210 740 l 2,2,3
 205 740 205 740 195.5 735 c 128,-1,4
 186 730 186 730 182 710 c 2,5,-1
 119 416 l 2,6,7
 118 413 118 413 116 405.5 c 128,-1,8
 114 398 114 398 109.5 390.5 c 128,-1,9
 105 383 105 383 98 377 c 128,-1,10
 91 371 91 371 81 371 c 1,11,-1
 77 351 l 1,12,13
 89 349 89 349 93.5 340.5 c 128,-1,14
 98 332 98 332 98 321 c 0,15,16
 98 316 98 316 97.5 312 c 128,-1,17
 97 308 97 308 96 304 c 2,18,-1
 31 -1 l 2,19,20
 30 -4 30 -4 30 -7 c 128,-1,21
 30 -10 30 -10 30 -12 c 0,22,23
 30 -23 30 -23 35 -27 c 128,-1,24
 40 -31 40 -31 46 -31 c 2,25,-1
 96 -31 l 1,26,-1
 101 -11 l 1,27,-1
 48 -11 l 1,28,-1
 115 304 l 2,29,30
 115 306 115 306 116 312 c 128,-1,31
 117 318 117 318 117 326 c 0,32,33
 117 335 117 335 115 344 c 128,-1,34
 113 353 113 353 107 360 c 1,35,36
 125 374 125 374 131.5 392.5 c 128,-1,37
 138 411 138 411 139 416 c 2,38,-1
 204 720 l 1,39,-1
 256 720 l 1,0,-1
EndSplineSet
EndChar

StartChar: bar
Encoding: 124 124 95
Width: 254
GlyphClass: 1
Flags: W
LayerCount: 2
Fore
SplineSet
142 -130 m 1,0,-1
 142 775 l 1,1,-1
 122 775 l 1,2,-1
 122 -130 l 1,3,-1
 142 -130 l 1,0,-1
EndSplineSet
EndChar

StartChar: braceright
Encoding: 125 125 96
Width: 218
GlyphClass: 1
Flags: W
LayerCount: 2
Fore
SplineSet
192 720 m 1,0,-1
 127 416 l 2,1,2
 126 414 126 414 125.5 408 c 128,-1,3
 125 402 125 402 125 394 c 256,4,5
 125 386 125 386 127 377 c 128,-1,6
 129 368 129 368 135 360 c 1,7,8
 118 346 118 346 111 327.5 c 128,-1,9
 104 309 104 309 103 304 c 2,10,-1
 36 -11 l 1,11,-1
 -16 -11 l 1,12,-1
 -20 -31 l 1,13,-1
 30 -31 l 2,14,15
 38 -31 38 -31 46.5 -24.5 c 128,-1,16
 55 -18 55 -18 59 -1 c 2,17,-1
 123 304 l 2,18,19
 126 319 126 319 135.5 334 c 128,-1,20
 145 349 145 349 162 351 c 1,21,-1
 166 371 l 1,22,23
 153 371 153 371 149 380 c 128,-1,24
 145 389 145 389 145 399 c 0,25,26
 145 404 145 404 145.5 409 c 128,-1,27
 146 414 146 414 147 416 c 2,28,-1
 210 710 l 2,29,30
 211 712 211 712 211 714.5 c 128,-1,31
 211 717 211 717 211 719 c 0,32,33
 211 733 211 733 204 736.5 c 128,-1,34
 197 740 197 740 194 740 c 2,35,-1
 144 740 l 1,36,-1
 140 720 l 1,37,-1
 192 720 l 1,0,-1
EndSplineSet
EndChar

StartChar: asciitilde
Encoding: 126 126 97
Width: 442
GlyphClass: 1
Flags: W
LayerCount: 2
Fore
SplineSet
56 251 m 1,0,-1
 76 251 l 1,1,2
 76 252 76 252 80 261.5 c 128,-1,3
 84 271 84 271 92.5 282.5 c 128,-1,4
 101 294 101 294 113 303 c 128,-1,5
 125 312 125 312 140 312 c 0,6,7
 156 312 156 312 172.5 302.5 c 128,-1,8
 189 293 189 293 207 281.5 c 128,-1,9
 225 270 225 270 245 260.5 c 128,-1,10
 265 251 265 251 289 251 c 0,11,12
 315 251 315 251 332 262.5 c 128,-1,13
 349 274 349 274 359.5 287.5 c 128,-1,14
 370 301 370 301 374.5 312.5 c 128,-1,15
 379 324 379 324 379 324 c 1,16,-1
 359 325 l 1,17,18
 359 323 359 323 355 314.5 c 128,-1,19
 351 306 351 306 342 296 c 128,-1,20
 333 286 333 286 320 278.5 c 128,-1,21
 307 271 307 271 289 271 c 0,22,23
 269 271 269 271 251 280.5 c 128,-1,24
 233 290 233 290 215 301.5 c 128,-1,25
 197 313 197 313 178.5 322.5 c 128,-1,26
 160 332 160 332 140 332 c 0,27,28
 118 332 118 332 102 320 c 128,-1,29
 86 308 86 308 75.5 293 c 128,-1,30
 65 278 65 278 60.5 265.5 c 128,-1,31
 56 253 56 253 56 251 c 1,0,-1
EndSplineSet
EndChar

StartChar: exclamdown
Encoding: 161 161 99
Width: 224
GlyphClass: 1
Flags: W
LayerCount: 2
Fore
SplineSet
215 490 m 0,0,1
 216 497 216 497 214.5 503.5 c 128,-1,2
 213 510 213 510 209 514.5 c 128,-1,3
 205 519 205 519 199.5 521.5 c 128,-1,4
 194 524 194 524 187 524 c 256,5,6
 180 524 180 524 173 521.5 c 128,-1,7
 166 519 166 519 160.5 514.5 c 128,-1,8
 155 510 155 510 151.5 503.5 c 128,-1,9
 148 497 148 497 146 490 c 0,10,11
 145 483 145 483 146 477 c 128,-1,12
 147 471 147 471 150.5 466.5 c 128,-1,13
 154 462 154 462 159.5 459.5 c 128,-1,14
 165 457 165 457 172 457 c 256,15,16
 179 457 179 457 186 459.5 c 128,-1,17
 193 462 193 462 198.5 466.5 c 128,-1,18
 204 471 204 471 208.5 477 c 128,-1,19
 213 483 213 483 215 490 c 0,0,1
133 319 m 1,20,-1
 90 119 l 1,21,-1
 23 -198 l 1,22,-1
 43 -198 l 1,23,-1
 110 119 l 1,24,-1
 153 319 l 1,25,-1
 133 319 l 1,20,-1
EndSplineSet
EndChar

StartChar: cent
Encoding: 162 162 100
Width: 522
GlyphClass: 1
Flags: W
LayerCount: 2
Fore
SplineSet
194 -120 m 1,0,-1
 218 -10 l 1,1,2
 245 -10 245 -10 276.5 -2 c 128,-1,3
 308 6 308 6 338 21.5 c 128,-1,4
 368 37 368 37 394 60 c 128,-1,5
 420 83 420 83 436 113 c 1,6,-1
 417 119 l 1,7,8
 406 94 406 94 382.5 74 c 128,-1,9
 359 54 359 54 331 40 c 128,-1,10
 303 26 303 26 274 18 c 128,-1,11
 245 10 245 10 222 10 c 1,12,-1
 328 507 l 1,13,14
 380 505 380 505 417.5 480.5 c 128,-1,15
 455 456 455 456 471 404 c 1,16,-1
 492 411 l 1,17,18
 479 461 479 461 442.5 493 c 128,-1,19
 406 525 406 525 332 527 c 1,20,-1
 357 645 l 1,21,-1
 338 645 l 1,22,-1
 313 527 l 1,23,24
 256 524 256 524 205 495.5 c 128,-1,25
 154 467 154 467 115.5 422.5 c 128,-1,26
 77 378 77 378 54 322.5 c 128,-1,27
 31 267 31 267 31 210 c 0,28,29
 31 170 31 170 42 132 c 128,-1,30
 53 94 53 94 74.5 64 c 128,-1,31
 96 34 96 34 127.5 14 c 128,-1,32
 159 -6 159 -6 199 -9 c 1,33,-1
 175 -120 l 1,34,-1
 194 -120 l 1,0,-1
51 212 m 0,35,36
 51 260 51 260 70.5 311 c 128,-1,37
 90 362 90 362 124 404.5 c 128,-1,38
 158 447 158 447 205.5 475.5 c 128,-1,39
 253 504 253 504 308 507 c 1,40,-1
 203 11 l 1,41,42
 168 14 168 14 140 31.5 c 128,-1,43
 112 49 112 49 92 76.5 c 128,-1,44
 72 104 72 104 61.5 139 c 128,-1,45
 51 174 51 174 51 212 c 0,35,36
EndSplineSet
EndChar

StartChar: sterling
Encoding: 163 163 101
Width: 446
GlyphClass: 1
Flags: W
LayerCount: 2
Fore
SplineSet
60 346 m 1,0,-1
 351 346 l 1,1,-1
 356 366 l 1,2,-1
 64 366 l 1,3,-1
 60 346 l 1,0,-1
2 -7 m 1,4,5
 23 -2 23 -2 48.5 1.5 c 128,-1,6
 74 5 74 5 94 5 c 0,7,8
 115 5 115 5 132 2 c 128,-1,9
 149 -1 149 -1 165 -5 c 128,-1,10
 181 -9 181 -9 198 -12 c 128,-1,11
 215 -15 215 -15 236 -15 c 0,12,13
 261 -15 261 -15 286.5 -9.5 c 128,-1,14
 312 -4 312 -4 341 7 c 1,15,-1
 339 26 l 1,16,17
 307 15 307 15 284 10 c 128,-1,18
 261 5 261 5 241 5 c 0,19,20
 223 5 223 5 207.5 8 c 128,-1,21
 192 11 192 11 176.5 15 c 128,-1,22
 161 19 161 19 144 22 c 128,-1,23
 127 25 127 25 105 25 c 0,24,25
 88 25 88 25 70 23 c 128,-1,26
 52 21 52 21 36 18 c 1,27,28
 91 69 91 69 123.5 105.5 c 128,-1,29
 156 142 156 142 173.5 171.5 c 128,-1,30
 191 201 191 201 196 228 c 128,-1,31
 201 255 201 255 201 286 c 0,32,33
 201 322 201 322 193 353 c 128,-1,34
 185 384 185 384 176 412.5 c 128,-1,35
 167 441 167 441 159 469 c 128,-1,36
 151 497 151 497 151 525 c 0,37,38
 151 560 151 560 165.5 590.5 c 128,-1,39
 180 621 180 621 203.5 644.5 c 128,-1,40
 227 668 227 668 256.5 681.5 c 128,-1,41
 286 695 286 695 317 695 c 0,42,43
 359 695 359 695 390.5 669 c 128,-1,44
 422 643 422 643 436 598 c 1,45,-1
 455 610 l 1,46,47
 441 658 441 658 406 686.5 c 128,-1,48
 371 715 371 715 323 715 c 0,49,50
 287 715 287 715 252 699 c 128,-1,51
 217 683 217 683 190 656.5 c 128,-1,52
 163 630 163 630 146 594.5 c 128,-1,53
 129 559 129 559 129 520 c 0,54,55
 129 491 129 491 137 463.5 c 128,-1,56
 145 436 145 436 154.5 407.5 c 128,-1,57
 164 379 164 379 172 348.5 c 128,-1,58
 180 318 180 318 180 283 c 0,59,60
 180 251 180 251 175 226 c 128,-1,61
 170 201 170 201 151 172 c 128,-1,62
 132 143 132 143 95.5 105 c 128,-1,63
 59 67 59 67 -4 10 c 1,64,-1
 2 -7 l 1,4,5
EndSplineSet
EndChar

StartChar: currency
Encoding: 164 164 102
Width: 551
GlyphClass: 1
Flags: W
LayerCount: 2
Fore
SplineSet
93 534 m 1,0,-1
 78 520 l 1,1,-1
 146 452 l 1,2,3
 126 428 126 428 115 398 c 128,-1,4
 104 368 104 368 104 335 c 0,5,6
 104 301 104 301 115.5 271 c 128,-1,7
 127 241 127 241 148 217 c 1,8,-1
 78 148 l 1,9,-1
 93 134 l 1,10,-1
 162 202 l 1,11,12
 185 181 185 181 214.5 169 c 128,-1,13
 244 157 244 157 279 157 c 256,14,15
 314 157 314 157 344.5 169.5 c 128,-1,16
 375 182 375 182 399 205 c 1,17,-1
 471 134 l 1,18,-1
 486 148 l 1,19,-1
 413 219 l 1,20,21
 433 243 433 243 444.5 273 c 128,-1,22
 456 303 456 303 456 335 c 256,23,24
 456 367 456 367 445 396.5 c 128,-1,25
 434 426 434 426 415 450 c 1,26,-1
 486 520 l 1,27,-1
 471 534 l 1,28,-1
 401 465 l 1,29,30
 378 488 378 488 346.5 501.5 c 128,-1,31
 315 515 315 515 279 515 c 0,32,33
 244 515 244 515 213.5 502.5 c 128,-1,34
 183 490 183 490 160 467 c 1,35,-1
 93 534 l 1,0,-1
125 334 m 0,36,37
 125 368 125 368 137.5 397.5 c 128,-1,38
 150 427 150 427 171 449 c 128,-1,39
 192 471 192 471 220 483.5 c 128,-1,40
 248 496 248 496 279 496 c 0,41,42
 311 496 311 496 339.5 483.5 c 128,-1,43
 368 471 368 471 389 449.5 c 128,-1,44
 410 428 410 428 422.5 398.5 c 128,-1,45
 435 369 435 369 435 336 c 256,46,47
 435 303 435 303 422.5 274 c 128,-1,48
 410 245 410 245 389 223 c 128,-1,49
 368 201 368 201 339.5 188 c 128,-1,50
 311 175 311 175 279 175 c 0,51,52
 248 175 248 175 220 187.5 c 128,-1,53
 192 200 192 200 171 221.5 c 128,-1,54
 150 243 150 243 137.5 272 c 128,-1,55
 125 301 125 301 125 334 c 0,36,37
EndSplineSet
EndChar

StartChar: yen
Encoding: 165 165 103
Width: 627
GlyphClass: 1
Flags: W
LayerCount: 2
Fore
SplineSet
678 710 m 1,0,-1
 655 710 l 1,1,-1
 307 298 l 1,2,-1
 135 710 l 1,3,-1
 112 710 l 1,4,-1
 266 341 l 1,5,-1
 177 341 l 1,6,-1
 172 321 l 1,7,-1
 274 321 l 1,8,-1
 292 277 l 1,9,-1
 287 251 l 1,10,-1
 157 251 l 1,11,-1
 153 231 l 1,12,-1
 283 231 l 1,13,-1
 233 0 l 1,14,-1
 253 0 l 1,15,-1
 303 231 l 1,16,-1
 433 231 l 1,17,-1
 437 251 l 1,18,-1
 307 251 l 1,19,-1
 312 275 l 1,20,-1
 351 321 l 1,21,-1
 452 321 l 1,22,-1
 456 341 l 1,23,-1
 368 341 l 1,24,-1
 678 710 l 1,0,-1
EndSplineSet
EndChar

StartChar: brokenbar
Encoding: 166 166 104
Width: 248
GlyphClass: 1
Flags: W
LayerCount: 2
Fore
SplineSet
119 285 m 1,0,-1
 119 -130 l 1,1,-1
 139 -130 l 1,2,-1
 139 285 l 1,3,-1
 119 285 l 1,0,-1
119 775 m 1,4,-1
 119 360 l 1,5,-1
 139 360 l 1,6,-1
 139 775 l 1,7,-1
 119 775 l 1,4,-1
EndSplineSet
EndChar

StartChar: section
Encoding: 167 167 105
Width: 468
GlyphClass: 1
Flags: W
LayerCount: 2
Fore
SplineSet
346 181 m 1,0,1
 358 192 358 192 369 206 c 128,-1,2
 380 220 380 220 388 236.5 c 128,-1,3
 396 253 396 253 400.5 271 c 128,-1,4
 405 289 405 289 405 307 c 0,5,6
 405 339 405 339 392 361.5 c 128,-1,7
 379 384 379 384 358 398.5 c 128,-1,8
 337 413 337 413 309.5 419.5 c 128,-1,9
 282 426 282 426 252 426 c 0,10,11
 192 426 192 426 155.5 449 c 128,-1,12
 119 472 119 472 119 528 c 0,13,14
 119 567 119 567 137 598 c 128,-1,15
 155 629 155 629 182.5 650.5 c 128,-1,16
 210 672 210 672 243 683.5 c 128,-1,17
 276 695 276 695 307 695 c 0,18,19
 325 695 325 695 345 692.5 c 128,-1,20
 365 690 365 690 383 683 c 128,-1,21
 401 676 401 676 414.5 664 c 128,-1,22
 428 652 428 652 433 632 c 1,23,-1
 453 640 l 1,24,25
 445 658 445 658 433.5 672 c 128,-1,26
 422 686 422 686 405.5 695.5 c 128,-1,27
 389 705 389 705 366 710 c 128,-1,28
 343 715 343 715 311 715 c 0,29,30
 278 715 278 715 240.5 702.5 c 128,-1,31
 203 690 203 690 171.5 666 c 128,-1,32
 140 642 140 642 119 606.5 c 128,-1,33
 98 571 98 571 98 525 c 0,34,35
 98 496 98 496 107 471.5 c 128,-1,36
 116 447 116 447 133 435 c 1,37,38
 123 425 123 425 113 411.5 c 128,-1,39
 103 398 103 398 95 382 c 128,-1,40
 87 366 87 366 82.5 348 c 128,-1,41
 78 330 78 330 78 312 c 0,42,43
 78 281 78 281 90 258 c 128,-1,44
 102 235 102 235 122 220 c 128,-1,45
 142 205 142 205 169 198 c 128,-1,46
 196 191 196 191 227 190 c 0,47,48
 251 189 251 189 274 185.5 c 128,-1,49
 297 182 297 182 315.5 172 c 128,-1,50
 334 162 334 162 345.5 144.5 c 128,-1,51
 357 127 357 127 357 99 c 0,52,53
 357 60 357 60 339 29 c 128,-1,54
 321 -2 321 -2 293 -23.5 c 128,-1,55
 265 -45 265 -45 231.5 -56.5 c 128,-1,56
 198 -68 198 -68 167 -68 c 0,57,58
 119 -68 119 -68 84.5 -49.5 c 128,-1,59
 50 -31 50 -31 20 7 c 1,60,-1
 2 -6 l 1,61,62
 14 -23 14 -23 29.5 -38 c 128,-1,63
 45 -53 45 -53 64 -64 c 128,-1,64
 83 -75 83 -75 107.5 -81.5 c 128,-1,65
 132 -88 132 -88 162 -88 c 0,66,67
 196 -88 196 -88 234 -75.5 c 128,-1,68
 272 -63 272 -63 304.5 -38.5 c 128,-1,69
 337 -14 337 -14 358 22.5 c 128,-1,70
 379 59 379 59 379 106 c 0,71,72
 379 131 379 131 371 150.5 c 128,-1,73
 363 170 363 170 346 181 c 1,0,1
98 312 m 0,74,75
 98 347 98 347 113.5 377.5 c 128,-1,76
 129 408 129 408 150 425 c 1,77,78
 170 415 170 415 195 410.5 c 128,-1,79
 220 406 220 406 248 406 c 0,80,81
 272 406 272 406 296 401 c 128,-1,82
 320 396 320 396 340 384 c 128,-1,83
 360 372 360 372 372.5 352 c 128,-1,84
 385 332 385 332 385 303 c 0,85,86
 385 271 385 271 368.5 239.5 c 128,-1,87
 352 208 352 208 328 190 c 1,88,89
 303 202 303 202 263.5 204.5 c 128,-1,90
 224 207 224 207 187.5 215.5 c 128,-1,91
 151 224 151 224 124.5 244.5 c 128,-1,92
 98 265 98 265 98 312 c 0,74,75
EndSplineSet
EndChar

StartChar: copyright
Encoding: 169 169 107
Width: 836
GlyphClass: 1
Flags: W
LayerCount: 2
Fore
SplineSet
429 -7 m 256,0,1
 507 -7 507 -7 573 20.5 c 128,-1,2
 639 48 639 48 687 96.5 c 128,-1,3
 735 145 735 145 762.5 211 c 128,-1,4
 790 277 790 277 790 355 c 0,5,6
 790 432 790 432 762.5 498 c 128,-1,7
 735 564 735 564 687 612 c 128,-1,8
 639 660 639 660 573 687.5 c 128,-1,9
 507 715 507 715 429 715 c 256,10,11
 351 715 351 715 285 687.5 c 128,-1,12
 219 660 219 660 171 612 c 128,-1,13
 123 564 123 564 95.5 498 c 128,-1,14
 68 432 68 432 68 355 c 0,15,16
 68 277 68 277 95.5 211 c 128,-1,17
 123 145 123 145 171 96.5 c 128,-1,18
 219 48 219 48 285 20.5 c 128,-1,19
 351 -7 351 -7 429 -7 c 256,0,1
430 13 m 0,20,21
 356 13 356 13 293.5 39 c 128,-1,22
 231 65 231 65 185.5 110.5 c 128,-1,23
 140 156 140 156 114.5 218.5 c 128,-1,24
 89 281 89 281 89 354 c 0,25,26
 89 428 89 428 114.5 490 c 128,-1,27
 140 552 140 552 186 598 c 128,-1,28
 232 644 232 644 294.5 669.5 c 128,-1,29
 357 695 357 695 430 695 c 256,30,31
 503 695 503 695 565 669.5 c 128,-1,32
 627 644 627 644 672.5 598 c 128,-1,33
 718 552 718 552 743.5 489 c 128,-1,34
 769 426 769 426 769 352 c 0,35,36
 769 277 769 277 743 214.5 c 128,-1,37
 717 152 717 152 671 107 c 128,-1,38
 625 62 625 62 563.5 37.5 c 128,-1,39
 502 13 502 13 430 13 c 0,20,21
436 127 m 0,40,41
 471 127 471 127 501 138.5 c 128,-1,42
 531 150 531 150 553.5 166.5 c 128,-1,43
 576 183 576 183 590 201.5 c 128,-1,44
 604 220 604 220 608 233 c 1,45,-1
 589 238 l 1,46,47
 580 217 580 217 562.5 200 c 128,-1,48
 545 183 545 183 523.5 171.5 c 128,-1,49
 502 160 502 160 478 153.5 c 128,-1,50
 454 147 454 147 432 147 c 0,51,52
 400 147 400 147 365.5 161 c 128,-1,53
 331 175 331 175 302.5 201.5 c 128,-1,54
 274 228 274 228 255.5 266.5 c 128,-1,55
 237 305 237 305 237 355 c 0,56,57
 237 391 237 391 248.5 428.5 c 128,-1,58
 260 466 260 466 283 496.5 c 128,-1,59
 306 527 306 527 342.5 546.5 c 128,-1,60
 379 566 379 566 428 566 c 0,61,62
 445 566 445 566 466 563 c 128,-1,63
 487 560 487 560 508.5 550.5 c 128,-1,64
 530 541 530 541 548.5 524 c 128,-1,65
 567 507 567 507 579 480 c 1,66,-1
 598 487 l 1,67,68
 578 538 578 538 531 562 c 128,-1,69
 484 586 484 586 428 586 c 0,70,71
 373 586 373 586 333 565 c 128,-1,72
 293 544 293 544 267.5 510.5 c 128,-1,73
 242 477 242 477 229.5 436 c 128,-1,74
 217 395 217 395 217 355 c 0,75,76
 217 301 217 301 237 258.5 c 128,-1,77
 257 216 257 216 288.5 186.5 c 128,-1,78
 320 157 320 157 359 142 c 128,-1,79
 398 127 398 127 436 127 c 0,40,41
EndSplineSet
EndChar

StartChar: ordfeminine
Encoding: 170 170 108
Width: 404
GlyphClass: 1
Flags: W
LayerCount: 2
Fore
SplineSet
171 351 m 0,0,1
 214 351 214 351 255 368 c 128,-1,2
 296 385 296 385 326 416 c 1,3,-1
 316 356 l 1,4,-1
 342 356 l 1,5,6
 342 357 342 357 343 364 c 128,-1,7
 344 371 344 371 345.5 379 c 128,-1,8
 347 387 347 387 348.5 394 c 128,-1,9
 350 401 350 401 350 402 c 2,10,-1
 386 573 l 2,11,12
 388 583 388 583 389 592.5 c 128,-1,13
 390 602 390 602 390 611 c 0,14,15
 390 658 390 658 362 683.5 c 128,-1,16
 334 709 334 709 282 709 c 0,17,18
 253 709 253 709 219.5 697.5 c 128,-1,19
 186 686 186 686 148 663 c 1,20,-1
 156 643 l 1,21,22
 190 663 190 663 220 673.5 c 128,-1,23
 250 684 250 684 275 684 c 0,24,25
 316 684 316 684 338 662.5 c 128,-1,26
 360 641 360 641 360 604 c 0,27,28
 360 597 360 597 359.5 590.5 c 128,-1,29
 359 584 359 584 357 576 c 2,30,-1
 350 541 l 1,31,32
 329 550 329 550 301.5 555 c 128,-1,33
 274 560 274 560 245 560 c 0,34,35
 211 560 211 560 180.5 551 c 128,-1,36
 150 542 150 542 127.5 526.5 c 128,-1,37
 105 511 105 511 92 489 c 128,-1,38
 79 467 79 467 79 440 c 0,39,40
 79 402 79 402 104 376.5 c 128,-1,41
 129 351 129 351 171 351 c 0,0,1
182 377 m 0,42,43
 149 377 149 377 129 396.5 c 128,-1,44
 109 416 109 416 109 445 c 0,45,46
 109 488 109 488 147.5 512.5 c 128,-1,47
 186 537 186 537 244 537 c 0,48,49
 272 537 272 537 297 533 c 128,-1,50
 322 529 322 529 345 518 c 1,51,-1
 332 457 l 2,52,53
 328 440 328 440 313 425.5 c 128,-1,54
 298 411 298 411 276.5 400 c 128,-1,55
 255 389 255 389 230 383 c 128,-1,56
 205 377 205 377 182 377 c 0,42,43
EndSplineSet
EndChar

StartChar: guillemotleft
Encoding: 171 171 109
Width: 497
GlyphClass: 1
Flags: W
LayerCount: 2
Fore
SplineSet
32 250 m 1,0,-1
 221 80 l 1,1,-1
 226 102 l 1,2,-1
 53 259 l 1,3,-1
 292 415 l 1,4,-1
 297 437 l 1,5,-1
 36 268 l 1,6,-1
 32 250 l 1,0,-1
195 250 m 1,7,-1
 384 80 l 1,8,-1
 388 102 l 1,9,-1
 215 259 l 1,10,-1
 455 415 l 1,11,-1
 460 437 l 1,12,-1
 198 268 l 1,13,-1
 195 250 l 1,7,-1
EndSplineSet
EndChar

StartChar: logicalnot
Encoding: 172 172 110
Width: 540
GlyphClass: 1
Flags: W
LayerCount: 2
Fore
SplineSet
94 338 m 1,0,-1
 90 318 l 1,1,-1
 454 318 l 1,2,-1
 416 140 l 1,3,-1
 436 140 l 1,4,-1
 478 338 l 1,5,-1
 94 338 l 1,0,-1
EndSplineSet
EndChar

StartChar: uni00AD
Encoding: 173 173 111
Width: 519
GlyphClass: 1
Flags: W
LayerCount: 2
Fore
SplineSet
443 261 m 1,0,-1
 447 281 l 1,1,-1
 63 281 l 1,2,-1
 59 261 l 1,3,-1
 443 261 l 1,0,-1
EndSplineSet
EndChar

StartChar: registered
Encoding: 174 174 112
Width: 836
GlyphClass: 1
Flags: W
LayerCount: 2
Fore
SplineSet
429 -7 m 256,0,1
 507 -7 507 -7 573 20.5 c 128,-1,2
 639 48 639 48 687 96.5 c 128,-1,3
 735 145 735 145 762.5 211 c 128,-1,4
 790 277 790 277 790 355 c 0,5,6
 790 432 790 432 762.5 498 c 128,-1,7
 735 564 735 564 687 612 c 128,-1,8
 639 660 639 660 573 687.5 c 128,-1,9
 507 715 507 715 429 715 c 256,10,11
 351 715 351 715 285 687.5 c 128,-1,12
 219 660 219 660 171 612 c 128,-1,13
 123 564 123 564 95.5 498 c 128,-1,14
 68 432 68 432 68 355 c 0,15,16
 68 277 68 277 95.5 211 c 128,-1,17
 123 145 123 145 171 96.5 c 128,-1,18
 219 48 219 48 285 20.5 c 128,-1,19
 351 -7 351 -7 429 -7 c 256,0,1
429 13 m 0,20,21
 356 13 356 13 293.5 39 c 128,-1,22
 231 65 231 65 185.5 110.5 c 128,-1,23
 140 156 140 156 114.5 219 c 128,-1,24
 89 282 89 282 89 355 c 256,25,26
 89 428 89 428 114.5 490 c 128,-1,27
 140 552 140 552 185.5 597.5 c 128,-1,28
 231 643 231 643 293.5 669 c 128,-1,29
 356 695 356 695 429 695 c 0,30,31
 503 695 503 695 565 669 c 128,-1,32
 627 643 627 643 672.5 597.5 c 128,-1,33
 718 552 718 552 743.5 490 c 128,-1,34
 769 428 769 428 769 355 c 0,35,36
 769 278 769 278 743 215 c 128,-1,37
 717 152 717 152 671 107 c 128,-1,38
 625 62 625 62 563 37.5 c 128,-1,39
 501 13 501 13 429 13 c 0,20,21
284 121 m 1,40,-1
 305 121 l 1,41,-1
 305 303 l 1,42,-1
 461 303 l 1,43,-1
 577 121 l 1,44,-1
 601 121 l 1,45,-1
 484 303 l 1,46,47
 510 305 510 305 532 317 c 128,-1,48
 554 329 554 329 569.5 348 c 128,-1,49
 585 367 585 367 593.5 391.5 c 128,-1,50
 602 416 602 416 602 443 c 0,51,52
 602 469 602 469 592.5 494 c 128,-1,53
 583 519 583 519 565.5 539 c 128,-1,54
 548 559 548 559 524.5 571 c 128,-1,55
 501 583 501 583 472 583 c 2,56,-1
 284 583 l 1,57,-1
 284 121 l 1,40,-1
305 323 m 1,58,-1
 305 562 l 1,59,-1
 472 562 l 2,60,61
 496 562 496 562 516.5 552.5 c 128,-1,62
 537 543 537 543 551.5 527 c 128,-1,63
 566 511 566 511 574 489 c 128,-1,64
 582 467 582 467 582 443 c 256,65,66
 582 419 582 419 575.5 397.5 c 128,-1,67
 569 376 569 376 555.5 359.5 c 128,-1,68
 542 343 542 343 522.5 333 c 128,-1,69
 503 323 503 323 477 323 c 2,70,-1
 305 323 l 1,58,-1
EndSplineSet
EndChar

StartChar: degree
Encoding: 176 176 114
Width: 245
GlyphClass: 1
Flags: W
LayerCount: 2
Fore
SplineSet
180 586 m 0,0,1
 196 586 196 586 211 592.5 c 128,-1,2
 226 599 226 599 237.5 610.5 c 128,-1,3
 249 622 249 622 256 636.5 c 128,-1,4
 263 651 263 651 263 667 c 0,5,6
 263 691 263 691 248 707.5 c 128,-1,7
 233 724 233 724 210 724 c 0,8,9
 193 724 193 724 178 716.5 c 128,-1,10
 163 709 163 709 151.5 697 c 128,-1,11
 140 685 140 685 133.5 670 c 128,-1,12
 127 655 127 655 127 640 c 0,13,14
 127 617 127 617 142 601.5 c 128,-1,15
 157 586 157 586 180 586 c 0,0,1
185 606 m 0,16,17
 168 606 168 606 159 617.5 c 128,-1,18
 150 629 150 629 150 646 c 0,19,20
 150 669 150 669 166.5 685 c 128,-1,21
 183 701 183 701 205 701 c 0,22,23
 222 701 222 701 232.5 692.5 c 128,-1,24
 243 684 243 684 243 664 c 0,25,26
 243 640 243 640 223.5 623 c 128,-1,27
 204 606 204 606 185 606 c 0,16,17
EndSplineSet
EndChar

StartChar: plusminus
Encoding: 177 177 115
Width: 483
GlyphClass: 1
Flags: W
LayerCount: 2
Fore
SplineSet
377 85 m 1,0,-1
 377 105 l 1,1,-1
 77 105 l 1,2,-1
 77 85 l 1,3,-1
 377 85 l 1,0,-1
237 365 m 1,4,-1
 237 515 l 1,5,-1
 217 515 l 1,6,-1
 217 365 l 1,7,-1
 77 365 l 1,8,-1
 77 345 l 1,9,-1
 217 345 l 1,10,-1
 217 195 l 1,11,-1
 237 195 l 1,12,-1
 237 345 l 1,13,-1
 377 345 l 1,14,-1
 377 365 l 1,15,-1
 237 365 l 1,4,-1
EndSplineSet
EndChar

StartChar: twosuperior
Encoding: 178 178 116
Width: 354
GlyphClass: 1
Flags: W
LayerCount: 2
Fore
SplineSet
338 423 m 1,0,-1
 342 442 l 1,1,-1
 96 442 l 1,2,3
 99 457 99 457 105.5 476 c 128,-1,4
 112 495 112 495 127 514 c 128,-1,5
 142 533 142 533 167.5 551.5 c 128,-1,6
 193 570 193 570 233 583 c 0,7,8
 257 591 257 591 285.5 600 c 128,-1,9
 314 609 314 609 339.5 624 c 128,-1,10
 365 639 365 639 382 662.5 c 128,-1,11
 399 686 399 686 399 722 c 256,12,13
 399 758 399 758 374.5 784.5 c 128,-1,14
 350 811 350 811 294 811 c 0,15,16
 260 811 260 811 232 801 c 128,-1,17
 204 791 204 791 184 779 c 128,-1,18
 164 767 164 767 153 756.5 c 128,-1,19
 142 746 142 746 140 744 c 2,20,-1
 153 729 l 1,21,22
 161 737 161 737 174 748 c 128,-1,23
 187 759 187 759 204.5 769 c 128,-1,24
 222 779 222 779 244 785.5 c 128,-1,25
 266 792 266 792 292 792 c 0,26,27
 340 792 340 792 360 770 c 128,-1,28
 380 748 380 748 380 719 c 0,29,30
 380 689 380 689 364.5 669 c 128,-1,31
 349 649 349 649 326 636 c 128,-1,32
 303 623 303 623 275 614 c 128,-1,33
 247 605 247 605 221 596 c 0,34,35
 192 586 192 586 167 571.5 c 128,-1,36
 142 557 142 557 122.5 536.5 c 128,-1,37
 103 516 103 516 89 488 c 128,-1,38
 75 460 75 460 67 423 c 1,39,-1
 338 423 l 1,0,-1
EndSplineSet
EndChar

StartChar: threesuperior
Encoding: 179 179 117
Width: 363
GlyphClass: 1
Flags: W
LayerCount: 2
Fore
SplineSet
205 418 m 0,0,1
 237 418 237 418 267 427 c 128,-1,2
 297 436 297 436 319.5 451.5 c 128,-1,3
 342 467 342 467 355.5 489 c 128,-1,4
 369 511 369 511 369 536 c 0,5,6
 369 566 369 566 348.5 588.5 c 128,-1,7
 328 611 328 611 292 618 c 1,8,9
 345 629 345 629 371 655.5 c 128,-1,10
 397 682 397 682 397 720 c 0,11,12
 397 759 397 759 365.5 785 c 128,-1,13
 334 811 334 811 281 811 c 0,14,15
 259 811 259 811 238 806.5 c 128,-1,16
 217 802 217 802 198.5 793 c 128,-1,17
 180 784 180 784 165 772 c 128,-1,18
 150 760 150 760 140 745 c 1,19,-1
 152 733 l 1,20,21
 169 759 169 759 203 776 c 128,-1,22
 237 793 237 793 277 793 c 0,23,24
 322 793 322 793 349 772 c 128,-1,25
 376 751 376 751 376 717 c 0,26,27
 376 695 376 695 366 678.5 c 128,-1,28
 356 662 356 662 337.5 650.5 c 128,-1,29
 319 639 319 639 291.5 633 c 128,-1,30
 264 627 264 627 229 627 c 2,31,-1
 208 627 l 1,32,-1
 204 609 l 1,33,-1
 225 609 l 2,34,35
 283 609 283 609 316 589 c 128,-1,36
 349 569 349 569 349 534 c 0,37,38
 349 513 349 513 337.5 495.5 c 128,-1,39
 326 478 326 478 307 465 c 128,-1,40
 288 452 288 452 262.5 444.5 c 128,-1,41
 237 437 237 437 209 437 c 0,42,43
 184 437 184 437 163.5 442.5 c 128,-1,44
 143 448 143 448 129.5 458.5 c 128,-1,45
 116 469 116 469 108.5 485 c 128,-1,46
 101 501 101 501 101 521 c 1,47,-1
 84 514 l 1,48,49
 84 472 84 472 114.5 445 c 128,-1,50
 145 418 145 418 205 418 c 0,0,1
EndSplineSet
EndChar

StartChar: uni00B5
Encoding: 181 181 119
Width: 580
GlyphClass: 1
Flags: W
LayerCount: 2
Fore
SplineSet
-19 -212 m 1,0,-1
 1 -212 l 1,1,-1
 66 94 l 1,2,3
 73 42 73 42 102 16 c 128,-1,4
 131 -10 131 -10 183 -10 c 0,5,6
 216 -10 216 -10 249.5 0 c 128,-1,7
 283 10 283 10 315 28.5 c 128,-1,8
 347 47 347 47 376 73 c 128,-1,9
 405 99 405 99 428 132 c 1,10,-1
 406 0 l 1,11,-1
 420 0 l 1,12,-1
 530 519 l 1,13,-1
 509 519 l 1,14,-1
 439 189 l 1,15,16
 420 150 420 150 391.5 117 c 128,-1,17
 363 84 363 84 329.5 60.5 c 128,-1,18
 296 37 296 37 259.5 23.5 c 128,-1,19
 223 10 223 10 187 10 c 0,20,21
 134 10 134 10 108.5 40 c 128,-1,22
 83 70 83 70 83 131 c 0,23,24
 83 151 83 151 86 175.5 c 128,-1,25
 89 200 89 200 95 228 c 2,26,-1
 157 519 l 1,27,-1
 136 519 l 1,28,-1
 -19 -212 l 1,0,-1
EndSplineSet
EndChar

StartChar: paragraph
Encoding: 182 182 120
Width: 541
GlyphClass: 1
Flags: W
LayerCount: 2
Fore
SplineSet
64 433 m 0,0,1
 64 390 64 390 79 356.5 c 128,-1,2
 94 323 94 323 122.5 299 c 128,-1,3
 151 275 151 275 192.5 262 c 128,-1,4
 234 249 234 249 288 248 c 1,5,-1
 218 -80 l 1,6,-1
 238 -80 l 1,7,-1
 308 248 l 1,8,-1
 394 248 l 1,9,-1
 324 -80 l 1,10,-1
 344 -80 l 1,11,-1
 508 690 l 1,12,-1
 574 690 l 1,13,-1
 579 710 l 1,14,-1
 387 710 l 2,15,16
 314 710 314 710 254 690 c 128,-1,17
 194 670 194 670 152 633.5 c 128,-1,18
 110 597 110 597 87 546 c 128,-1,19
 64 495 64 495 64 433 c 0,0,1
84 438 m 0,20,21
 84 494 84 494 104 540.5 c 128,-1,22
 124 587 124 587 162 620 c 128,-1,23
 200 653 200 653 255.5 671.5 c 128,-1,24
 311 690 311 690 382 690 c 1,25,-1
 292 268 l 1,26,27
 249 270 249 270 211 280.5 c 128,-1,28
 173 291 173 291 145 311.5 c 128,-1,29
 117 332 117 332 100.5 363.5 c 128,-1,30
 84 395 84 395 84 438 c 0,20,21
398 268 m 1,31,-1
 312 268 l 1,32,-1
 402 690 l 1,33,-1
 488 690 l 1,34,-1
 398 268 l 1,31,-1
EndSplineSet
EndChar

StartChar: onesuperior
Encoding: 185 185 123
Width: 240
GlyphClass: 1
Flags: W
LayerCount: 2
Fore
SplineSet
176 441 m 1,0,-1
 255 811 l 1,1,-1
 235 811 l 2,2,3
 234 810 234 810 223.5 801.5 c 128,-1,4
 213 793 213 793 198 783 c 128,-1,5
 183 773 183 773 165 765 c 128,-1,6
 147 757 147 757 132 757 c 1,7,-1
 128 738 l 1,8,9
 140 738 140 738 155 743 c 128,-1,10
 170 748 170 748 184.5 755 c 128,-1,11
 199 762 199 762 211.5 770.5 c 128,-1,12
 224 779 224 779 230 785 c 1,13,-1
 157 441 l 1,14,-1
 78 441 l 1,15,-1
 74 422 l 1,16,-1
 246 422 l 1,17,-1
 250 441 l 1,18,-1
 176 441 l 1,0,-1
EndSplineSet
EndChar

StartChar: ordmasculine
Encoding: 186 186 124
Width: 431
GlyphClass: 1
Flags: W
LayerCount: 2
Fore
SplineSet
223 351 m 0,0,1
 264 351 264 351 302 368.5 c 128,-1,2
 340 386 340 386 369 415.5 c 128,-1,3
 398 445 398 445 416 483 c 128,-1,4
 434 521 434 521 434 562 c 0,5,6
 434 592 434 592 424.5 619 c 128,-1,7
 415 646 415 646 397 666 c 128,-1,8
 379 686 379 686 354 697.5 c 128,-1,9
 329 709 329 709 299 709 c 0,10,11
 259 709 259 709 221.5 691.5 c 128,-1,12
 184 674 184 674 155 644.5 c 128,-1,13
 126 615 126 615 108.5 577 c 128,-1,14
 91 539 91 539 91 497 c 0,15,16
 91 467 91 467 100 440.5 c 128,-1,17
 109 414 109 414 126.5 394 c 128,-1,18
 144 374 144 374 168.5 362.5 c 128,-1,19
 193 351 193 351 223 351 c 0,0,1
227 370 m 0,20,21
 202 370 202 370 180.5 380 c 128,-1,22
 159 390 159 390 144 407.5 c 128,-1,23
 129 425 129 425 120.5 448.5 c 128,-1,24
 112 472 112 472 112 499 c 0,25,26
 112 537 112 537 128 571.5 c 128,-1,27
 144 606 144 606 170 632 c 128,-1,28
 196 658 196 658 229 673.5 c 128,-1,29
 262 689 262 689 295 689 c 0,30,31
 321 689 321 689 342.5 679 c 128,-1,32
 364 669 364 669 379.5 651.5 c 128,-1,33
 395 634 395 634 403.5 610 c 128,-1,34
 412 586 412 586 412 559 c 0,35,36
 412 522 412 522 396 487.5 c 128,-1,37
 380 453 380 453 354 427 c 128,-1,38
 328 401 328 401 295 385.5 c 128,-1,39
 262 370 262 370 227 370 c 0,20,21
EndSplineSet
EndChar

StartChar: guillemotright
Encoding: 187 187 125
Width: 497
GlyphClass: 1
Flags: W
LayerCount: 2
Fore
SplineSet
447 268 m 1,0,-1
 257 437 l 1,1,-1
 253 415 l 1,2,-1
 426 259 l 1,3,-1
 186 102 l 1,4,-1
 182 80 l 1,5,-1
 443 250 l 1,6,-1
 447 268 l 1,0,-1
284 268 m 1,7,-1
 95 437 l 1,8,-1
 90 415 l 1,9,-1
 264 259 l 1,10,-1
 24 102 l 1,11,-1
 19 80 l 1,12,-1
 281 250 l 1,13,-1
 284 268 l 1,7,-1
EndSplineSet
EndChar

StartChar: onehalf
Encoding: 189 189 127
Width: 714
GlyphClass: 1
Flags: W
LayerCount: 2
Fore
SplineSet
159 361 m 1,0,-1
 238 731 l 1,1,-1
 218 731 l 2,2,3
 217 730 217 730 206.5 721.5 c 128,-1,4
 196 713 196 713 181 703 c 128,-1,5
 166 693 166 693 148 685 c 128,-1,6
 130 677 130 677 115 677 c 1,7,-1
 111 658 l 1,8,9
 123 658 123 658 138 663 c 128,-1,10
 153 668 153 668 167.5 675 c 128,-1,11
 182 682 182 682 194.5 690.5 c 128,-1,12
 207 699 207 699 213 705 c 1,13,-1
 140 361 l 1,14,-1
 61 361 l 1,15,-1
 57 342 l 1,16,-1
 229 342 l 1,17,-1
 233 361 l 1,18,-1
 159 361 l 1,0,-1
-22 -1 m 1,19,-1
 294 325 l 1,20,-1
 657 699 l 1,21,-1
 644 711 l 1,22,-1
 283 339 l 1,23,-1
 -35 11 l 1,24,-1
 -22 -1 l 1,19,-1
608 0 m 1,25,-1
 612 19 l 1,26,-1
 366 19 l 1,27,28
 369 34 369 34 375.5 53 c 128,-1,29
 382 72 382 72 397 91 c 128,-1,30
 412 110 412 110 437.5 128.5 c 128,-1,31
 463 147 463 147 503 160 c 0,32,33
 527 168 527 168 555.5 177 c 128,-1,34
 584 186 584 186 609.5 201 c 128,-1,35
 635 216 635 216 652 239.5 c 128,-1,36
 669 263 669 263 669 299 c 256,37,38
 669 335 669 335 644.5 361.5 c 128,-1,39
 620 388 620 388 564 388 c 0,40,41
 530 388 530 388 502 378 c 128,-1,42
 474 368 474 368 454 356 c 128,-1,43
 434 344 434 344 423 333.5 c 128,-1,44
 412 323 412 323 410 321 c 2,45,-1
 423 306 l 1,46,47
 431 314 431 314 444 325 c 128,-1,48
 457 336 457 336 474.5 346 c 128,-1,49
 492 356 492 356 514 362.5 c 128,-1,50
 536 369 536 369 562 369 c 0,51,52
 610 369 610 369 630 347 c 128,-1,53
 650 325 650 325 650 296 c 0,54,55
 650 266 650 266 634.5 246 c 128,-1,56
 619 226 619 226 596 213 c 128,-1,57
 573 200 573 200 545 191 c 128,-1,58
 517 182 517 182 491 173 c 0,59,60
 462 163 462 163 437 148.5 c 128,-1,61
 412 134 412 134 392.5 113.5 c 128,-1,62
 373 93 373 93 359 65 c 128,-1,63
 345 37 345 37 337 0 c 1,64,-1
 608 0 l 1,25,-1
EndSplineSet
EndChar

StartChar: questiondown
Encoding: 191 191 129
Width: 445
GlyphClass: 1
Flags: W
LayerCount: 2
Fore
SplineSet
264 327 m 1,0,1
 255 283 255 283 243.5 254.5 c 128,-1,2
 232 226 232 226 219 207.5 c 128,-1,3
 206 189 206 189 190.5 178.5 c 128,-1,4
 175 168 175 168 158 159 c 0,5,6
 129 144 129 144 99 130.5 c 128,-1,7
 69 117 69 117 43 97.5 c 128,-1,8
 17 78 17 78 -3.5 48.5 c 128,-1,9
 -24 19 -24 19 -33 -26 c 0,10,11
 -43 -72 -43 -72 -35.5 -107 c 128,-1,12
 -28 -142 -28 -142 -8 -165.5 c 128,-1,13
 12 -189 12 -189 41.5 -201 c 128,-1,14
 71 -213 71 -213 106 -213 c 0,15,16
 136 -213 136 -213 168 -204.5 c 128,-1,17
 200 -196 200 -196 230 -179.5 c 128,-1,18
 260 -163 260 -163 287 -139 c 128,-1,19
 314 -115 314 -115 334 -84 c 1,20,-1
 318 -76 l 1,21,22
 300 -103 300 -103 276 -124.5 c 128,-1,23
 252 -146 252 -146 225 -161.5 c 128,-1,24
 198 -177 198 -177 168.5 -185 c 128,-1,25
 139 -193 139 -193 110 -193 c 0,26,27
 80 -193 80 -193 53 -183.5 c 128,-1,28
 26 -174 26 -174 8 -154 c 128,-1,29
 -10 -134 -10 -134 -17 -103 c 128,-1,30
 -24 -72 -24 -72 -15 -29 c 256,31,32
 -6 14 -6 14 13.5 41 c 128,-1,33
 33 68 33 68 57.5 86 c 128,-1,34
 82 104 82 104 109 116 c 128,-1,35
 136 128 136 128 161 140 c 0,36,37
 181 150 181 150 198.5 162.5 c 128,-1,38
 216 175 216 175 231.5 195.5 c 128,-1,39
 247 216 247 216 260.5 247.5 c 128,-1,40
 274 279 274 279 284 327 c 1,41,-1
 264 327 l 1,0,1
339 477 m 0,42,43
 342 491 342 491 334.5 501 c 128,-1,44
 327 511 327 511 313 511 c 0,45,46
 306 511 306 511 299.5 508.5 c 128,-1,47
 293 506 293 506 287.5 501.5 c 128,-1,48
 282 497 282 497 278.5 490.5 c 128,-1,49
 275 484 275 484 273 477 c 0,50,51
 270 463 270 463 277.5 453.5 c 128,-1,52
 285 444 285 444 299 444 c 0,53,54
 306 444 306 444 312.5 446.5 c 128,-1,55
 319 449 319 449 324.5 453.5 c 128,-1,56
 330 458 330 458 334 464 c 128,-1,57
 338 470 338 470 339 477 c 0,42,43
EndSplineSet
EndChar

StartChar: AE
Encoding: 198 198 136
Width: 921
GlyphClass: 1
Flags: W
LayerCount: 2
Fore
SplineSet
-84 0 m 1,0,-1
 -59 0 l 1,1,-1
 153 254 l 1,2,-1
 419 254 l 1,3,-1
 365 0 l 1,4,-1
 808 0 l 1,5,-1
 812 20 l 1,6,-1
 390 20 l 1,7,-1
 460 353 l 1,8,-1
 823 353 l 1,9,-1
 828 373 l 1,10,-1
 465 373 l 1,11,-1
 532 690 l 1,12,-1
 946 690 l 1,13,-1
 951 710 l 1,14,-1
 511 710 l 1,15,-1
 -84 0 l 1,0,-1
169 274 m 1,16,-1
 509 678 l 1,17,-1
 424 274 l 1,18,-1
 169 274 l 1,16,-1
EndSplineSet
EndChar

StartChar: Idieresis
Encoding: 207 207 145
Width: 214
GlyphClass: 1
Flags: W
LayerCount: 2
Fore
SplineSet
33 0 m 1,0,-1
 53 0 l 1,1,-1
 204 709 l 1,2,-1
 184 709 l 1,3,-1
 33 0 l 1,0,-1
139 880 m 256,4,5
 136 866 136 866 143 856 c 128,-1,6
 150 846 150 846 164 846 c 256,7,8
 178 846 178 846 189.5 856 c 128,-1,9
 201 866 201 866 204 880 c 256,10,11
 207 894 207 894 199.5 903.5 c 128,-1,12
 192 913 192 913 178 913 c 256,13,14
 164 913 164 913 153 903.5 c 128,-1,15
 142 894 142 894 139 880 c 256,4,5
248 880 m 256,16,17
 245 866 245 866 252.5 856 c 128,-1,18
 260 846 260 846 274 846 c 256,19,20
 288 846 288 846 299 856 c 128,-1,21
 310 866 310 866 313 880 c 256,22,23
 316 894 316 894 309 903.5 c 128,-1,24
 302 913 302 913 288 913 c 256,25,26
 274 913 274 913 262.5 903.5 c 128,-1,27
 251 894 251 894 248 880 c 256,16,17
EndSplineSet
EndChar

StartChar: Eth
Encoding: 208 208 146
Width: 691
GlyphClass: 1
Flags: W
LayerCount: 2
Fore
SplineSet
47 347 m 1,0,-1
 316 347 l 1,1,-1
 320 367 l 1,2,-1
 51 367 l 1,3,-1
 47 347 l 1,0,-1
40 0 m 1,4,-1
 257 0 l 2,5,6
 344 0 344 0 418 33.5 c 128,-1,7
 492 67 492 67 546 125.5 c 128,-1,8
 600 184 600 184 630 265 c 128,-1,9
 660 346 660 346 660 440 c 0,10,11
 660 497 660 497 645 546 c 128,-1,12
 630 595 630 595 599 631.5 c 128,-1,13
 568 668 568 668 520.5 689 c 128,-1,14
 473 710 473 710 408 710 c 2,15,-1
 191 710 l 1,16,-1
 40 0 l 1,4,-1
64 20 m 1,17,-1
 207 690 l 1,18,-1
 404 690 l 2,19,20
 463 690 463 690 507 671 c 128,-1,21
 551 652 551 652 580.5 618.5 c 128,-1,22
 610 585 610 585 625 538 c 128,-1,23
 640 491 640 491 640 435 c 0,24,25
 640 353 640 353 614 278 c 128,-1,26
 588 203 588 203 539.5 145.5 c 128,-1,27
 491 88 491 88 420.5 54 c 128,-1,28
 350 20 350 20 261 20 c 2,29,-1
 64 20 l 1,17,-1
EndSplineSet
EndChar

StartChar: multiply
Encoding: 215 215 153
Width: 460
GlyphClass: 1
Flags: W
LayerCount: 2
Fore
SplineSet
236 270 m 1,0,-1
 372 406 l 1,1,-1
 358 421 l 1,2,-1
 222 285 l 1,3,-1
 87 420 l 1,4,-1
 72 406 l 1,5,-1
 207 270 l 1,6,-1
 73 136 l 1,7,-1
 87 121 l 1,8,-1
 222 256 l 1,9,-1
 357 121 l 1,10,-1
 372 135 l 1,11,-1
 236 270 l 1,0,-1
EndSplineSet
EndChar

StartChar: Thorn
Encoding: 222 222 160
Width: 574
GlyphClass: 1
Flags: W
LayerCount: 2
Fore
SplineSet
33 0 m 1,0,-1
 53 0 l 1,1,-1
 80 129 l 1,2,-1
 323 129 l 2,3,4
 370 129 370 129 412.5 151.5 c 128,-1,5
 455 174 455 174 487 210 c 128,-1,6
 519 246 519 246 538 291.5 c 128,-1,7
 557 337 557 337 557 383 c 0,8,9
 557 417 557 417 547 449 c 128,-1,10
 537 481 537 481 518 505.5 c 128,-1,11
 499 530 499 530 471 545 c 128,-1,12
 443 560 443 560 408 560 c 2,13,-1
 172 560 l 1,14,-1
 204 710 l 1,15,-1
 184 710 l 1,16,-1
 33 0 l 1,0,-1
85 149 m 1,17,-1
 168 540 l 1,18,-1
 403 540 l 2,19,20
 433 540 433 540 458 527 c 128,-1,21
 483 514 483 514 500.5 492 c 128,-1,22
 518 470 518 470 527.5 441 c 128,-1,23
 537 412 537 412 537 380 c 0,24,25
 537 340 537 340 521 299 c 128,-1,26
 505 258 505 258 476.5 224.5 c 128,-1,27
 448 191 448 191 409.5 170 c 128,-1,28
 371 149 371 149 327 149 c 2,29,-1
 85 149 l 1,17,-1
EndSplineSet
EndChar

StartChar: germandbls
Encoding: 223 223 161
Width: 523
GlyphClass: 1
Flags: W
LayerCount: 2
Fore
SplineSet
155 -6 m 1,0,1
 229 -3 229 -3 286 15.5 c 128,-1,2
 343 34 343 34 382 66 c 128,-1,3
 421 98 421 98 441.5 143.5 c 128,-1,4
 462 189 462 189 462 245 c 0,5,6
 462 306 462 306 430 348 c 128,-1,7
 398 390 398 390 335 404 c 1,8,9
 364 410 364 410 391 427 c 128,-1,10
 418 444 418 444 439 468 c 128,-1,11
 460 492 460 492 472.5 522 c 128,-1,12
 485 552 485 552 485 583 c 0,13,14
 485 640 485 640 446.5 677 c 128,-1,15
 408 714 408 714 344 714 c 0,16,17
 305 714 305 714 269.5 699.5 c 128,-1,18
 234 685 234 685 205 658 c 128,-1,19
 176 631 176 631 155.5 593 c 128,-1,20
 135 555 135 555 125 509 c 2,21,-1
 17 0 l 1,22,-1
 37 0 l 1,23,-1
 145 509 l 2,24,25
 154 551 154 551 172 585 c 128,-1,26
 190 619 190 619 215.5 643.5 c 128,-1,27
 241 668 241 668 272.5 681 c 128,-1,28
 304 694 304 694 339 694 c 0,29,30
 396 694 396 694 430 660.5 c 128,-1,31
 464 627 464 627 464 576 c 0,32,33
 464 542 464 542 449.5 512.5 c 128,-1,34
 435 483 435 483 410 461 c 128,-1,35
 385 439 385 439 353 426 c 128,-1,36
 321 413 321 413 285 413 c 2,37,-1
 270 413 l 1,38,-1
 266 393 l 1,39,-1
 282 393 l 2,40,41
 319 393 319 393 348.5 382 c 128,-1,42
 378 371 378 371 398.5 351 c 128,-1,43
 419 331 419 331 430 303 c 128,-1,44
 441 275 441 275 441 240 c 0,45,46
 441 188 441 188 422 146.5 c 128,-1,47
 403 105 403 105 366.5 76 c 128,-1,48
 330 47 330 47 277.5 30.5 c 128,-1,49
 225 14 225 14 159 13 c 1,50,-1
 155 -6 l 1,0,1
EndSplineSet
EndChar

StartChar: ae
Encoding: 230 230 168
Width: 932
GlyphClass: 1
Flags: W
LayerCount: 2
Fore
SplineSet
214 -10 m 0,0,1
 279 -10 279 -10 338.5 26 c 128,-1,2
 398 62 398 62 441 119 c 1,3,-1
 415 0 l 1,4,-1
 435 0 l 1,5,-1
 460 119 l 1,6,-1
 490 268 l 1,7,-1
 519 396 l 1,8,-1
 545 517 l 1,9,-1
 525 517 l 1,10,-1
 500 397 l 1,11,12
 482 453 482 453 438.5 490 c 128,-1,13
 395 527 395 527 328 527 c 0,14,15
 273 527 273 527 219.5 500.5 c 128,-1,16
 166 474 166 474 124 430 c 128,-1,17
 82 386 82 386 56 328 c 128,-1,18
 30 270 30 270 30 208 c 0,19,20
 30 166 30 166 42.5 126.5 c 128,-1,21
 55 87 55 87 78.5 56.5 c 128,-1,22
 102 26 102 26 136 8 c 128,-1,23
 170 -10 170 -10 214 -10 c 0,0,1
219 10 m 0,24,25
 179 10 179 10 148 26 c 128,-1,26
 117 42 117 42 95 69.5 c 128,-1,27
 73 97 73 97 61.5 133.5 c 128,-1,28
 50 170 50 170 50 210 c 0,29,30
 50 261 50 261 72 314 c 128,-1,31
 94 367 94 367 131.5 410 c 128,-1,32
 169 453 169 453 219 480 c 128,-1,33
 269 507 269 507 324 507 c 0,34,35
 358 507 358 507 386.5 495 c 128,-1,36
 415 483 415 483 436.5 462 c 128,-1,37
 458 441 458 441 471.5 412.5 c 128,-1,38
 485 384 485 384 490 351 c 1,39,-1
 451 167 l 1,40,41
 433 135 433 135 408 106.5 c 128,-1,42
 383 78 383 78 353 56.5 c 128,-1,43
 323 35 323 35 289 22.5 c 128,-1,44
 255 10 255 10 219 10 c 0,24,25
631 -10 m 0,45,46
 665 -10 665 -10 698 -0.5 c 128,-1,47
 731 9 731 9 760.5 26 c 128,-1,48
 790 43 790 43 814.5 67.5 c 128,-1,49
 839 92 839 92 856 122 c 1,50,-1
 837 128 l 1,51,52
 822 101 822 101 799.5 79 c 128,-1,53
 777 57 777 57 750 42 c 128,-1,54
 723 27 723 27 694 18.5 c 128,-1,55
 665 10 665 10 638 10 c 0,56,57
 595 10 595 10 567 26 c 128,-1,58
 539 42 539 42 522.5 69.5 c 128,-1,59
 506 97 506 97 499.5 133.5 c 128,-1,60
 493 170 493 170 493 211 c 0,61,62
 493 267 493 267 510 320 c 128,-1,63
 527 373 527 373 558.5 414.5 c 128,-1,64
 590 456 590 456 636 481.5 c 128,-1,65
 682 507 682 507 739 507 c 0,66,67
 761 507 761 507 785 500.5 c 128,-1,68
 809 494 809 494 829.5 479.5 c 128,-1,69
 850 465 850 465 863 443 c 128,-1,70
 876 421 876 421 876 391 c 0,71,72
 876 364 876 364 863.5 341.5 c 128,-1,73
 851 319 851 319 823 302.5 c 128,-1,74
 795 286 795 286 749.5 277 c 128,-1,75
 704 268 704 268 638 268 c 0,76,77
 600 268 600 268 563.5 269.5 c 128,-1,78
 527 271 527 271 498 274 c 1,79,-1
 483 255 l 1,80,81
 518 251 518 251 555.5 249.5 c 128,-1,82
 593 248 593 248 635 248 c 0,83,84
 768 248 768 248 832.5 284 c 128,-1,85
 897 320 897 320 897 390 c 0,86,87
 897 424 897 424 882.5 449.5 c 128,-1,88
 868 475 868 475 846 492.5 c 128,-1,89
 824 510 824 510 797 518.5 c 128,-1,90
 770 527 770 527 744 527 c 0,91,92
 680 527 680 527 629 499.5 c 128,-1,93
 578 472 578 472 543.5 427.5 c 128,-1,94
 509 383 509 383 490.5 326 c 128,-1,95
 472 269 472 269 472 210 c 0,96,97
 472 165 472 165 480 125 c 128,-1,98
 488 85 488 85 507 55 c 128,-1,99
 526 25 526 25 556 7.5 c 128,-1,100
 586 -10 586 -10 631 -10 c 0,45,46
EndSplineSet
EndChar

StartChar: idieresis
Encoding: 239 239 177
Width: 188
GlyphClass: 1
Flags: W
LayerCount: 2
Fore
SplineSet
86 689 m 256,0,1
 83 675 83 675 91 665 c 128,-1,2
 99 655 99 655 113 655 c 256,3,4
 127 655 127 655 139 665 c 128,-1,5
 151 675 151 675 154 689 c 256,6,7
 157 703 157 703 149 712.5 c 128,-1,8
 141 722 141 722 127 722 c 256,9,10
 113 722 113 722 101 712.5 c 128,-1,11
 89 703 89 703 86 689 c 256,0,1
200 689 m 256,12,13
 197 675 197 675 205 665 c 128,-1,14
 213 655 213 655 227 655 c 256,15,16
 241 655 241 655 253 665 c 128,-1,17
 265 675 265 675 268 689 c 256,18,19
 271 703 271 703 263 712.5 c 128,-1,20
 255 722 255 722 241 722 c 256,21,22
 227 722 227 722 215 712.5 c 128,-1,23
 203 703 203 703 200 689 c 256,12,13
17 0 m 1,24,-1
 37 0 l 1,25,-1
 147 519 l 1,26,-1
 127 519 l 1,27,-1
 17 0 l 1,24,-1
EndSplineSet
EndChar

StartChar: eth
Encoding: 240 240 178
Width: 568
GlyphClass: 1
Flags: W
LayerCount: 2
Fore
SplineSet
524 369 m 0,0,1
 524 414 524 414 515 461 c 128,-1,2
 506 508 506 508 483.5 554 c 128,-1,3
 461 600 461 600 423.5 644.5 c 128,-1,4
 386 689 386 689 330 730 c 1,5,-1
 301 730 l 1,6,7
 363 687 363 687 402.5 643.5 c 128,-1,8
 442 600 442 600 465 557.5 c 128,-1,9
 488 515 488 515 497 473 c 128,-1,10
 506 431 506 431 506 390 c 0,11,12
 506 374 506 374 505.5 359.5 c 128,-1,13
 505 345 505 345 503 330 c 1,14,15
 492 394 492 394 442.5 434.5 c 128,-1,16
 393 475 393 475 319 475 c 0,17,18
 265 475 265 475 212.5 451.5 c 128,-1,19
 160 428 160 428 119 389 c 128,-1,20
 78 350 78 350 52.5 298.5 c 128,-1,21
 27 247 27 247 27 190 c 0,22,23
 27 149 27 149 40.5 112.5 c 128,-1,24
 54 76 54 76 79 49 c 128,-1,25
 104 22 104 22 139 6 c 128,-1,26
 174 -10 174 -10 216 -10 c 0,27,28
 271 -10 271 -10 326 16 c 128,-1,29
 381 42 381 42 425 91 c 128,-1,30
 469 140 469 140 496.5 210.5 c 128,-1,31
 524 281 524 281 524 369 c 0,0,1
47 192 m 0,32,33
 47 244 47 244 70.5 291.5 c 128,-1,34
 94 339 94 339 131.5 375.5 c 128,-1,35
 169 412 169 412 217.5 433.5 c 128,-1,36
 266 455 266 455 315 455 c 0,37,38
 353 455 353 455 385.5 441.5 c 128,-1,39
 418 428 418 428 441 404 c 128,-1,40
 464 380 464 380 477 348 c 128,-1,41
 490 316 490 316 490 280 c 0,42,43
 490 229 490 229 466.5 180 c 128,-1,44
 443 131 443 131 404.5 93.5 c 128,-1,45
 366 56 366 56 317.5 33 c 128,-1,46
 269 10 269 10 219 10 c 0,47,48
 181 10 181 10 149 24 c 128,-1,49
 117 38 117 38 94.5 63 c 128,-1,50
 72 88 72 88 59.5 121 c 128,-1,51
 47 154 47 154 47 192 c 0,32,33
527 713 m 1,52,-1
 415 645 l 1,53,-1
 410 642 l 1,54,-1
 275 561 l 1,55,-1
 282 547 l 1,56,-1
 420 630 l 1,57,-1
 425 633 l 1,58,-1
 534 699 l 1,59,-1
 527 713 l 1,52,-1
EndSplineSet
EndChar

StartChar: divide
Encoding: 247 247 185
Width: 546
GlyphClass: 1
Flags: W
LayerCount: 2
Fore
SplineSet
475 261 m 1,0,-1
 475 281 l 1,1,-1
 72 281 l 1,2,-1
 72 261 l 1,3,-1
 475 261 l 1,0,-1
237 123 m 256,4,5
 237 109 237 109 247 99 c 128,-1,6
 257 89 257 89 271 89 c 256,7,8
 285 89 285 89 295 99 c 128,-1,9
 305 109 305 109 305 123 c 256,10,11
 305 137 305 137 295 146.5 c 128,-1,12
 285 156 285 156 271 156 c 256,13,14
 257 156 257 156 247 146.5 c 128,-1,15
 237 137 237 137 237 123 c 256,4,5
237 420 m 256,16,17
 237 406 237 406 247 396 c 128,-1,18
 257 386 257 386 271 386 c 256,19,20
 285 386 285 386 295 396 c 128,-1,21
 305 406 305 406 305 420 c 256,22,23
 305 434 305 434 295 443.5 c 128,-1,24
 285 453 285 453 271 453 c 256,25,26
 257 453 257 453 247 443.5 c 128,-1,27
 237 434 237 434 237 420 c 256,16,17
EndSplineSet
EndChar

StartChar: oslash
Encoding: 248 248 186
Width: 561
GlyphClass: 1
Flags: W
LayerCount: 2
Fore
SplineSet
215 -10 m 0,0,1
 271 -10 271 -10 324.5 16.5 c 128,-1,2
 378 43 378 43 420 87 c 128,-1,3
 462 131 462 131 487.5 188.5 c 128,-1,4
 513 246 513 246 513 308 c 0,5,6
 513 353 513 353 499.5 393 c 128,-1,7
 486 433 486 433 462 463 c 128,-1,8
 438 493 438 493 404 510 c 128,-1,9
 370 527 370 527 329 527 c 0,10,11
 274 527 274 527 220.5 501 c 128,-1,12
 167 475 167 475 124.5 430.5 c 128,-1,13
 82 386 82 386 56 328 c 128,-1,14
 30 270 30 270 30 207 c 0,15,16
 30 162 30 162 43 122.5 c 128,-1,17
 56 83 56 83 80.5 53.5 c 128,-1,18
 105 24 105 24 139 7 c 128,-1,19
 173 -10 173 -10 215 -10 c 0,0,1
218 10 m 0,20,21
 181 10 181 10 150 25.5 c 128,-1,22
 119 41 119 41 96.5 68 c 128,-1,23
 74 95 74 95 62 131.5 c 128,-1,24
 50 168 50 168 50 209 c 0,25,26
 50 268 50 268 74 321.5 c 128,-1,27
 98 375 98 375 137 416.5 c 128,-1,28
 176 458 176 458 225.5 482.5 c 128,-1,29
 275 507 275 507 325 507 c 0,30,31
 362 507 362 507 393 491 c 128,-1,32
 424 475 424 475 446 447.5 c 128,-1,33
 468 420 468 420 480.5 383.5 c 128,-1,34
 493 347 493 347 493 305 c 0,35,36
 493 247 493 247 469 193.5 c 128,-1,37
 445 140 445 140 406 99.5 c 128,-1,38
 367 59 367 59 317.5 34.5 c 128,-1,39
 268 10 268 10 218 10 c 0,20,21
55 0 m 1,40,-1
 79 0 l 1,41,-1
 109 38 l 1,42,-1
 95 51 l 1,43,-1
 55 0 l 1,40,-1
109 38 m 1,44,-1
 450 466 l 1,45,-1
 435 479 l 1,46,-1
 96 51 l 1,47,-1
 109 38 l 1,44,-1
450 466 m 1,48,-1
 492 519 l 1,49,-1
 467 519 l 1,50,-1
 435 479 l 1,51,-1
 450 466 l 1,48,-1
EndSplineSet
EndChar

StartChar: thorn
Encoding: 254 254 192
Width: 577
GlyphClass: 1
Flags: W
LayerCount: 2
Fore
SplineSet
-8 -213 m 1,0,-1
 63 119 l 1,1,2
 73 93 73 93 89 69.5 c 128,-1,3
 105 46 105 46 127 28.5 c 128,-1,4
 149 11 149 11 176 0.5 c 128,-1,5
 203 -10 203 -10 236 -10 c 0,6,7
 296 -10 296 -10 349 17.5 c 128,-1,8
 402 45 402 45 442 89.5 c 128,-1,9
 482 134 482 134 505 190.5 c 128,-1,10
 528 247 528 247 528 306 c 0,11,12
 528 348 528 348 515.5 388 c 128,-1,13
 503 428 503 428 479 459 c 128,-1,14
 455 490 455 490 420.5 508.5 c 128,-1,15
 386 527 386 527 342 527 c 0,16,17
 314 527 314 527 284 518.5 c 128,-1,18
 254 510 254 510 225.5 494 c 128,-1,19
 197 478 197 478 171 456.5 c 128,-1,20
 145 435 145 435 124 409 c 1,21,-1
 188 710 l 1,22,-1
 168 710 l 1,23,-1
 -28 -213 l 1,24,-1
 -8 -213 l 1,0,-1
240 10 m 0,25,26
 207 10 207 10 179 22 c 128,-1,27
 151 34 151 34 129.5 54 c 128,-1,28
 108 74 108 74 93 102 c 128,-1,29
 78 130 78 130 71 161 c 1,30,-1
 111 348 l 2,31,32
 120 379 120 379 145.5 408 c 128,-1,33
 171 437 171 437 204 459 c 128,-1,34
 237 481 237 481 273 494 c 128,-1,35
 309 507 309 507 337 507 c 0,36,37
 376 507 376 507 407.5 490.5 c 128,-1,38
 439 474 439 474 461.5 446 c 128,-1,39
 484 418 484 418 496 381.5 c 128,-1,40
 508 345 508 345 508 304 c 0,41,42
 508 252 508 252 487 199.5 c 128,-1,43
 466 147 466 147 429.5 105 c 128,-1,44
 393 63 393 63 344 36.5 c 128,-1,45
 295 10 295 10 240 10 c 0,25,26
EndSplineSet
EndChar

StartChar: Dcroat
Encoding: 272 272 210
Width: 691
GlyphClass: 1
Flags: W
LayerCount: 2
Fore
SplineSet
47 347 m 1,0,-1
 316 347 l 1,1,-1
 320 367 l 1,2,-1
 51 367 l 1,3,-1
 47 347 l 1,0,-1
40 0 m 1,4,-1
 257 0 l 2,5,6
 344 0 344 0 418 33.5 c 128,-1,7
 492 67 492 67 546 125.5 c 128,-1,8
 600 184 600 184 630 265 c 128,-1,9
 660 346 660 346 660 440 c 0,10,11
 660 497 660 497 645 546 c 128,-1,12
 630 595 630 595 599 631.5 c 128,-1,13
 568 668 568 668 520.5 689 c 128,-1,14
 473 710 473 710 408 710 c 2,15,-1
 191 710 l 1,16,-1
 40 0 l 1,4,-1
64 20 m 1,17,-1
 207 690 l 1,18,-1
 404 690 l 2,19,20
 463 690 463 690 507 671 c 128,-1,21
 551 652 551 652 580.5 618.5 c 128,-1,22
 610 585 610 585 625 538 c 128,-1,23
 640 491 640 491 640 435 c 0,24,25
 640 353 640 353 614 278 c 128,-1,26
 588 203 588 203 539.5 145.5 c 128,-1,27
 491 88 491 88 420.5 54 c 128,-1,28
 350 20 350 20 261 20 c 2,29,-1
 64 20 l 1,17,-1
EndSplineSet
EndChar

StartChar: dcroat
Encoding: 273 273 211
Width: 579
GlyphClass: 1
Flags: W
LayerCount: 2
Fore
SplineSet
429 633 m 1,0,-1
 639 633 l 1,1,-1
 643 653 l 1,2,-1
 433 653 l 1,3,-1
 429 633 l 1,0,-1
218 -10 m 0,4,5
 246 -10 246 -10 275.5 -1.5 c 128,-1,6
 305 7 305 7 333.5 23 c 128,-1,7
 362 39 362 39 388 60.5 c 128,-1,8
 414 82 414 82 435 108 c 1,9,-1
 412 0 l 1,10,-1
 432 0 l 1,11,-1
 587 730 l 1,12,-1
 567 730 l 1,13,-1
 497 398 l 1,14,15
 485 424 485 424 469 447.5 c 128,-1,16
 453 471 453 471 432 488.5 c 128,-1,17
 411 506 411 506 384 516.5 c 128,-1,18
 357 527 357 527 323 527 c 0,19,20
 266 527 266 527 213.5 500 c 128,-1,21
 161 473 161 473 120.5 428.5 c 128,-1,22
 80 384 80 384 55.5 327.5 c 128,-1,23
 31 271 31 271 31 211 c 0,24,25
 31 168 31 168 43.5 128.5 c 128,-1,26
 56 89 56 89 80 58 c 128,-1,27
 104 27 104 27 139 8.5 c 128,-1,28
 174 -10 174 -10 218 -10 c 0,4,5
222 10 m 0,29,30
 183 10 183 10 151.5 26.5 c 128,-1,31
 120 43 120 43 97.5 70.5 c 128,-1,32
 75 98 75 98 63 135 c 128,-1,33
 51 172 51 172 51 213 c 0,34,35
 51 265 51 265 72 317.5 c 128,-1,36
 93 370 93 370 129.5 412 c 128,-1,37
 166 454 166 454 215 480.5 c 128,-1,38
 264 507 264 507 319 507 c 0,39,40
 349 507 349 507 378 495 c 128,-1,41
 407 483 407 483 430 462.5 c 128,-1,42
 453 442 453 442 469 414.5 c 128,-1,43
 485 387 485 387 488 356 c 1,44,-1
 448 169 l 2,45,46
 441 137 441 137 415.5 108 c 128,-1,47
 390 79 390 79 356.5 57.5 c 128,-1,48
 323 36 323 36 287 23 c 128,-1,49
 251 10 251 10 222 10 c 0,29,30
EndSplineSet
EndChar

StartChar: hcircumflex
Encoding: 293 293 231
Width: 540
GlyphClass: 1
Flags: W
LayerCount: 2
Fore
SplineSet
17 0 m 1,0,-1
 37 0 l 1,1,-1
 107 328 l 1,2,3
 125 366 125 366 152.5 398.5 c 128,-1,4
 180 431 180 431 213 455 c 128,-1,5
 246 479 246 479 282 493 c 128,-1,6
 318 507 318 507 352 507 c 0,7,8
 403 507 403 507 428.5 476 c 128,-1,9
 454 445 454 445 454 384 c 0,10,11
 454 364 454 364 450.5 340 c 128,-1,12
 447 316 447 316 442 289 c 2,13,-1
 381 0 l 1,14,-1
 401 0 l 1,15,-1
 462 289 l 2,16,17
 468 317 468 317 471 342 c 128,-1,18
 474 367 474 367 474 388 c 0,19,20
 474 423 474 423 466.5 449 c 128,-1,21
 459 475 459 475 444 492 c 128,-1,22
 429 509 429 509 407 518 c 128,-1,23
 385 527 385 527 356 527 c 0,24,25
 324 527 324 527 291.5 517 c 128,-1,26
 259 507 259 507 228 488.5 c 128,-1,27
 197 470 197 470 169 443.5 c 128,-1,28
 141 417 141 417 119 385 c 1,29,-1
 192 730 l 1,30,-1
 172 730 l 1,31,-1
 17 0 l 1,0,-1
422 921 m 1,32,-1
 388 921 l 1,33,-1
 275 806 l 1,34,-1
 294 806 l 1,35,-1
 422 921 l 1,32,-1
389 921 m 1,36,-1
 469 806 l 1,37,-1
 488 806 l 1,38,-1
 423 921 l 1,39,-1
 389 921 l 1,36,-1
EndSplineSet
EndChar

StartChar: Hbar
Encoding: 294 294 232
Width: 709
GlyphClass: 1
Flags: W
LayerCount: 2
Fore
SplineSet
107 554 m 1,0,-1
 709 554 l 1,1,-1
 713 574 l 1,2,-1
 112 574 l 1,3,-1
 107 554 l 1,0,-1
37 0 m 1,4,-1
 57 0 l 1,5,-1
 132 353 l 1,6,-1
 599 353 l 1,7,-1
 524 0 l 1,8,-1
 544 0 l 1,9,-1
 695 710 l 1,10,-1
 675 710 l 1,11,-1
 603 373 l 1,12,-1
 136 373 l 1,13,-1
 208 710 l 1,14,-1
 188 710 l 1,15,-1
 37 0 l 1,4,-1
EndSplineSet
EndChar

StartChar: hbar
Encoding: 295 295 233
Width: 540
GlyphClass: 1
Flags: W
LayerCount: 2
Fore
SplineSet
82 633 m 1,0,-1
 291 633 l 1,1,-1
 295 653 l 1,2,-1
 86 653 l 1,3,-1
 82 633 l 1,0,-1
17 0 m 1,4,-1
 37 0 l 1,5,-1
 107 328 l 1,6,7
 125 366 125 366 152.5 398.5 c 128,-1,8
 180 431 180 431 213 455 c 128,-1,9
 246 479 246 479 282 493 c 128,-1,10
 318 507 318 507 352 507 c 0,11,12
 403 507 403 507 428.5 476 c 128,-1,13
 454 445 454 445 454 384 c 0,14,15
 454 364 454 364 450.5 340 c 128,-1,16
 447 316 447 316 442 289 c 2,17,-1
 381 0 l 1,18,-1
 401 0 l 1,19,-1
 462 289 l 2,20,21
 468 317 468 317 471 342 c 128,-1,22
 474 367 474 367 474 388 c 0,23,24
 474 423 474 423 466.5 449 c 128,-1,25
 459 475 459 475 444 492 c 128,-1,26
 429 509 429 509 407 518 c 128,-1,27
 385 527 385 527 356 527 c 0,28,29
 324 527 324 527 291.5 517 c 128,-1,30
 259 507 259 507 228 488.5 c 128,-1,31
 197 470 197 470 169 443.5 c 128,-1,32
 141 417 141 417 119 385 c 1,33,-1
 192 730 l 1,34,-1
 172 730 l 1,35,-1
 17 0 l 1,4,-1
EndSplineSet
EndChar

StartChar: dotlessi
Encoding: 305 305 243
Width: 182
GlyphClass: 1
Flags: W
LayerCount: 2
Fore
SplineSet
17 0 m 1,0,-1
 37 0 l 1,1,-1
 147 519 l 1,2,-1
 127 519 l 1,3,-1
 17 0 l 1,0,-1
EndSplineSet
EndChar

StartChar: kgreenlandic
Encoding: 312 312 248
Width: 484
GlyphClass: 1
Flags: W
LayerCount: 2
Fore
SplineSet
17 0 m 1,0,-1
 37 0 l 1,1,-1
 73 169 l 1,2,-1
 233 297 l 1,3,-1
 380 0 l 1,4,-1
 404 0 l 1,5,-1
 251 311 l 1,6,-1
 509 517 l 1,7,-1
 482 517 l 1,8,-1
 79 196 l 1,9,-1
 147 519 l 1,10,-1
 127 519 l 1,11,-1
 17 0 l 1,0,-1
EndSplineSet
EndChar

StartChar: Lslash
Encoding: 321 321 257
Width: 560
GlyphClass: 1
Flags: W
LayerCount: 2
Fore
SplineSet
28 221 m 1,0,-1
 360 506 l 1,1,-1
 350 521 l 1,2,-1
 18 236 l 1,3,-1
 28 221 l 1,0,-1
33 0 m 1,4,-1
 476 0 l 1,5,-1
 480 20 l 1,6,-1
 57 20 l 1,7,-1
 204 710 l 1,8,-1
 184 710 l 1,9,-1
 33 0 l 1,4,-1
EndSplineSet
EndChar

StartChar: lslash
Encoding: 322 322 258
Width: 238
GlyphClass: 1
Flags: W
LayerCount: 2
Fore
SplineSet
32 304 m 1,0,-1
 266 504 l 1,1,-1
 254 518 l 1,2,-1
 21 318 l 1,3,-1
 32 304 l 1,0,-1
111 -5 m 0,4,5
 125 -5 125 -5 145.5 -1.5 c 128,-1,6
 166 2 166 2 180 7 c 1,7,-1
 177 23 l 1,8,9
 163 19 163 19 148.5 16.5 c 128,-1,10
 134 14 134 14 123 14 c 0,11,12
 98 14 98 14 84.5 26 c 128,-1,13
 71 38 71 38 71 61 c 0,14,15
 71 65 71 65 71.5 68.5 c 128,-1,16
 72 72 72 72 73 77 c 2,17,-1
 212 730 l 1,18,-1
 192 730 l 1,19,-1
 53 77 l 2,20,21
 51 71 51 71 51 65.5 c 128,-1,22
 51 60 51 60 51 55 c 0,23,24
 51 27 51 27 66.5 11 c 128,-1,25
 82 -5 82 -5 111 -5 c 0,4,5
EndSplineSet
EndChar

StartChar: Eng
Encoding: 330 330 265
Width: 744
GlyphClass: 1
Flags: W
LayerCount: 2
Fore
SplineSet
419 -170 m 0,0,1
 442 -170 442 -170 466.5 -160 c 128,-1,2
 491 -150 491 -150 513 -132 c 128,-1,3
 535 -114 535 -114 552 -89.5 c 128,-1,4
 569 -65 569 -65 575 -36 c 2,5,-1
 733 709 l 1,6,-1
 713 709 l 1,7,-1
 568 29 l 1,8,-1
 199 710 l 1,9,-1
 184 710 l 1,10,-1
 33 0 l 1,11,-1
 53 0 l 1,12,-1
 196 671 l 1,13,-1
 562 -4 l 1,14,-1
 555 -36 l 2,15,16
 550 -60 550 -60 536 -81 c 128,-1,17
 522 -102 522 -102 503.5 -117 c 128,-1,18
 485 -132 485 -132 464 -141 c 128,-1,19
 443 -150 443 -150 423 -150 c 256,20,21
 403 -150 403 -150 383 -145 c 128,-1,22
 363 -140 363 -140 349 -124 c 1,23,-1
 331 -136 l 1,24,25
 346 -156 346 -156 368.5 -163 c 128,-1,26
 391 -170 391 -170 419 -170 c 0,0,1
EndSplineSet
EndChar

StartChar: eng
Encoding: 331 331 266
Width: 540
GlyphClass: 1
Flags: W
LayerCount: 2
Fore
SplineSet
238 -170 m 0,0,1
 260 -170 260 -170 284.5 -160 c 128,-1,2
 309 -150 309 -150 331 -132 c 128,-1,3
 353 -114 353 -114 370 -89.5 c 128,-1,4
 387 -65 387 -65 393 -36 c 2,5,-1
 462 289 l 2,6,7
 469 321 469 321 472.5 349 c 128,-1,8
 476 377 476 377 476 401 c 0,9,10
 476 433 476 433 469 457 c 128,-1,11
 462 481 462 481 448.5 496.5 c 128,-1,12
 435 512 435 512 414.5 519.5 c 128,-1,13
 394 527 394 527 366 527 c 0,14,15
 333 527 333 527 298.5 516.5 c 128,-1,16
 264 506 264 506 231.5 487.5 c 128,-1,17
 199 469 199 469 170 443 c 128,-1,18
 141 417 141 417 119 385 c 1,19,-1
 147 519 l 1,20,-1
 127 519 l 1,21,-1
 17 0 l 1,22,-1
 37 0 l 1,23,-1
 107 328 l 1,24,25
 125 366 125 366 154 399 c 128,-1,26
 183 432 183 432 217.5 456 c 128,-1,27
 252 480 252 480 289.5 493.5 c 128,-1,28
 327 507 327 507 362 507 c 0,29,30
 410 507 410 507 432.5 480 c 128,-1,31
 455 453 455 453 455 396 c 0,32,33
 455 374 455 374 452 347.5 c 128,-1,34
 449 321 449 321 442 289 c 2,35,-1
 373 -36 l 2,36,37
 368 -60 368 -60 354 -81 c 128,-1,38
 340 -102 340 -102 321.5 -117 c 128,-1,39
 303 -132 303 -132 282 -141 c 128,-1,40
 261 -150 261 -150 241 -150 c 256,41,42
 221 -150 221 -150 201.5 -145 c 128,-1,43
 182 -140 182 -140 168 -124 c 1,44,-1
 150 -136 l 1,45,46
 164 -156 164 -156 187 -163 c 128,-1,47
 210 -170 210 -170 238 -170 c 0,0,1
EndSplineSet
EndChar

StartChar: OE
Encoding: 338 338 273
Width: 1149
GlyphClass: 1
Flags: W
LayerCount: 2
Fore
SplineSet
301 -5 m 0,0,1
 352 -5 352 -5 401.5 13.5 c 128,-1,2
 451 32 451 32 496 64.5 c 128,-1,3
 541 97 541 97 578.5 140.5 c 128,-1,4
 616 184 616 184 643 234 c 1,5,-1
 593 0 l 1,6,-1
 1036 0 l 1,7,-1
 1040 20 l 1,8,-1
 618 20 l 1,9,-1
 688 353 l 1,10,-1
 1051 353 l 1,11,-1
 1056 373 l 1,12,-1
 693 373 l 1,13,-1
 760 690 l 1,14,-1
 1174 690 l 1,15,-1
 1179 710 l 1,16,-1
 744 710 l 1,17,-1
 694 475 l 1,18,19
 689 524 689 524 670.5 567.5 c 128,-1,20
 652 611 652 611 621.5 644 c 128,-1,21
 591 677 591 677 548.5 696 c 128,-1,22
 506 715 506 715 452 715 c 0,23,24
 376 715 376 715 304 679 c 128,-1,25
 232 643 232 643 176 583 c 128,-1,26
 120 523 120 523 86 446 c 128,-1,27
 52 369 52 369 52 288 c 0,28,29
 52 231 52 231 68.5 178 c 128,-1,30
 85 125 85 125 117 84.5 c 128,-1,31
 149 44 149 44 195 19.5 c 128,-1,32
 241 -5 241 -5 301 -5 c 0,0,1
303 15 m 0,33,34
 249 15 249 15 206 37.5 c 128,-1,35
 163 60 163 60 133 97.5 c 128,-1,36
 103 135 103 135 87.5 185 c 128,-1,37
 72 235 72 235 72 290 c 0,38,39
 72 363 72 363 102.5 435.5 c 128,-1,40
 133 508 133 508 185 565.5 c 128,-1,41
 237 623 237 623 305 659 c 128,-1,42
 373 695 373 695 448 695 c 0,43,44
 501 695 501 695 543.5 672.5 c 128,-1,45
 586 650 586 650 615.5 612 c 128,-1,46
 645 574 645 574 661 524 c 128,-1,47
 677 474 677 474 677 419 c 0,48,49
 677 347 677 347 646.5 275 c 128,-1,50
 616 203 616 203 565 145 c 128,-1,51
 514 87 514 87 446 51 c 128,-1,52
 378 15 378 15 303 15 c 0,33,34
EndSplineSet
EndChar

StartChar: Tbar
Encoding: 358 358 293
Width: 616
GlyphClass: 1
Flags: W
LayerCount: 2
Fore
SplineSet
88 404 m 1,0,-1
 567 404 l 1,1,-1
 571 424 l 1,2,-1
 92 424 l 1,3,-1
 88 404 l 1,0,-1
232 0 m 1,4,-1
 252 0 l 1,5,-1
 398 690 l 1,6,-1
 656 690 l 1,7,-1
 661 710 l 1,8,-1
 124 710 l 1,9,-1
 120 690 l 1,10,-1
 378 690 l 1,11,-1
 232 0 l 1,4,-1
EndSplineSet
EndChar

StartChar: tbar
Encoding: 359 359 294
Width: 283
GlyphClass: 1
Flags: W
LayerCount: 2
Fore
SplineSet
26 319 m 1,0,-1
 236 319 l 1,1,-1
 240 339 l 1,2,-1
 30 339 l 1,3,-1
 26 319 l 1,0,-1
48 58 m 0,4,5
 48 30 48 30 68 12.5 c 128,-1,6
 88 -5 88 -5 119 -5 c 0,7,8
 139 -5 139 -5 156 -0.5 c 128,-1,9
 173 4 173 4 186.5 9 c 128,-1,10
 200 14 200 14 208 19 c 128,-1,11
 216 24 216 24 216 24 c 1,12,-1
 209 40 l 1,13,14
 208 39 208 39 200.5 35 c 128,-1,15
 193 31 193 31 181.5 26.5 c 128,-1,16
 170 22 170 22 155 18.5 c 128,-1,17
 140 15 140 15 124 15 c 0,18,19
 101 15 101 15 85 28 c 128,-1,20
 69 41 69 41 69 66 c 0,21,22
 69 73 69 73 71.5 85.5 c 128,-1,23
 74 98 74 98 80 126 c 2,24,-1
 160 499 l 1,25,-1
 279 499 l 1,26,-1
 283 519 l 1,27,-1
 165 519 l 1,28,-1
 203 700 l 1,29,-1
 183 700 l 1,30,-1
 145 519 l 1,31,-1
 73 519 l 1,32,-1
 69 499 l 1,33,-1
 140 499 l 1,34,-1
 50 75 l 2,35,36
 49 70 49 70 48.5 66 c 128,-1,37
 48 62 48 62 48 58 c 0,4,5
EndSplineSet
EndChar

StartChar: uni018F
Encoding: 399 399 318
Width: 707
GlyphClass: 1
Flags: W
LayerCount: 2
Fore
SplineSet
281 -10 m 0,0,1
 355 -10 355 -10 426 24.5 c 128,-1,2
 497 59 497 59 552.5 117.5 c 128,-1,3
 608 176 608 176 642 254 c 128,-1,4
 676 332 676 332 676 419 c 0,5,6
 676 481 676 481 658.5 534.5 c 128,-1,7
 641 588 641 588 608.5 628.5 c 128,-1,8
 576 669 576 669 530 692 c 128,-1,9
 484 715 484 715 428 715 c 0,10,11
 386 715 386 715 343 702.5 c 128,-1,12
 300 690 300 690 260.5 667.5 c 128,-1,13
 221 645 221 645 188.5 614.5 c 128,-1,14
 156 584 156 584 135 548 c 1,15,-1
 153 539 l 1,16,17
 174 574 174 574 205 603 c 128,-1,18
 236 632 236 632 272 652 c 128,-1,19
 308 672 308 672 347 683 c 128,-1,20
 386 694 386 694 424 694 c 0,21,22
 475 694 475 694 517.5 674 c 128,-1,23
 560 654 560 654 590 618.5 c 128,-1,24
 620 583 620 583 636.5 534 c 128,-1,25
 653 485 653 485 653 427 c 0,26,27
 653 410 653 410 651.5 394.5 c 128,-1,28
 650 379 650 379 648 362 c 1,29,-1
 45 362 l 1,30,31
 38 336 38 336 35 311 c 128,-1,32
 32 286 32 286 32 262 c 0,33,34
 32 202 32 202 50 152 c 128,-1,35
 68 102 68 102 100.5 66 c 128,-1,36
 133 30 133 30 179 10 c 128,-1,37
 225 -10 225 -10 281 -10 c 0,0,1
281 12 m 0,38,39
 222 12 222 12 179.5 34 c 128,-1,40
 137 56 137 56 109 91.5 c 128,-1,41
 81 127 81 127 68 172.5 c 128,-1,42
 55 218 55 218 55 266 c 0,43,44
 55 285 55 285 57 303.5 c 128,-1,45
 59 322 59 322 63 340 c 1,46,-1
 643 340 l 1,47,48
 630 271 630 271 595 211 c 128,-1,49
 560 151 560 151 511 106.5 c 128,-1,50
 462 62 462 62 403 37 c 128,-1,51
 344 12 344 12 281 12 c 0,38,39
EndSplineSet
EndChar

StartChar: florin
Encoding: 402 402 319
Width: 487
GlyphClass: 1
Flags: W
LayerCount: 2
Fore
SplineSet
26 -170 m 0,0,1
 48 -170 48 -170 72.5 -160 c 128,-1,2
 97 -150 97 -150 119 -132 c 128,-1,3
 141 -114 141 -114 158 -89.5 c 128,-1,4
 175 -65 175 -65 181 -36 c 2,5,-1
 282 438 l 1,6,-1
 429 438 l 1,7,-1
 433 458 l 1,8,-1
 287 458 l 1,9,-1
 304 540 l 2,10,11
 322 628 322 628 361 674.5 c 128,-1,12
 400 721 400 721 454 721 c 0,13,14
 476 721 476 721 494.5 713.5 c 128,-1,15
 513 706 513 706 522 694 c 1,16,-1
 540 706 l 1,17,18
 530 721 530 721 507 730.5 c 128,-1,19
 484 740 484 740 457 740 c 0,20,21
 426 740 426 740 399 726.5 c 128,-1,22
 372 713 372 713 349.5 687.5 c 128,-1,23
 327 662 327 662 310.5 624.5 c 128,-1,24
 294 587 294 587 284 540 c 2,25,-1
 267 458 l 1,26,-1
 195 458 l 1,27,-1
 191 438 l 1,28,-1
 262 438 l 1,29,-1
 161 -36 l 2,30,31
 156 -60 156 -60 142 -81 c 128,-1,32
 128 -102 128 -102 109.5 -117 c 128,-1,33
 91 -132 91 -132 70 -141 c 128,-1,34
 49 -150 49 -150 29 -150 c 256,35,36
 9 -150 9 -150 -10.5 -145 c 128,-1,37
 -30 -140 -30 -140 -44 -124 c 1,38,-1
 -62 -136 l 1,39,40
 -48 -156 -48 -156 -25 -163 c 128,-1,41
 -2 -170 -2 -170 26 -170 c 0,0,1
EndSplineSet
EndChar

StartChar: Aringacute
Encoding: 506 506 328
Width: 647
GlyphClass: 1
Flags: W
LayerCount: 2
Fore
SplineSet
-39 0 m 1,0,-1
 -17 0 l 1,1,-1
 142 254 l 1,2,-1
 493 254 l 1,3,-1
 544 0 l 1,4,-1
 566 0 l 1,5,-1
 424 710 l 1,6,-1
 406 710 l 1,7,-1
 -39 0 l 1,0,-1
154 274 m 1,8,-1
 409 681 l 1,9,-1
 489 274 l 1,10,-1
 154 274 l 1,8,-1
587 967 m 1,11,-1
 553 967 l 1,12,-1
 426 807 l 1,13,-1
 445 807 l 1,14,-1
 587 967 l 1,11,-1
372 754 m 0,15,16
 372 734 372 734 383.5 721 c 128,-1,17
 395 708 395 708 415 708 c 0,18,19
 441 708 441 708 462 728 c 128,-1,20
 483 748 483 748 483 776 c 0,21,22
 483 796 483 796 471.5 809 c 128,-1,23
 460 822 460 822 440 822 c 0,24,25
 414 822 414 822 393 802 c 128,-1,26
 372 782 372 782 372 754 c 0,15,16
436 806 m 0,27,28
 450 806 450 806 459 797 c 128,-1,29
 468 788 468 788 468 773 c 0,30,31
 468 752 468 752 451.5 738 c 128,-1,32
 435 724 435 724 419 724 c 0,33,34
 405 724 405 724 396.5 733.5 c 128,-1,35
 388 743 388 743 388 757 c 0,36,37
 388 779 388 779 403 792.5 c 128,-1,38
 418 806 418 806 436 806 c 0,27,28
EndSplineSet
EndChar

StartChar: uni0237
Encoding: 567 567 370
Width: 182
GlyphClass: 1
Flags: W
LayerCount: 2
Fore
SplineSet
-126 -170 m 0,0,1
 -104 -170 -104 -170 -79.5 -160 c 128,-1,2
 -55 -150 -55 -150 -33 -132 c 128,-1,3
 -11 -114 -11 -114 6 -89.5 c 128,-1,4
 23 -65 23 -65 29 -36 c 2,5,-1
 147 519 l 1,6,-1
 127 519 l 1,7,-1
 9 -36 l 2,8,9
 4 -60 4 -60 -10 -81 c 128,-1,10
 -24 -102 -24 -102 -42.5 -117 c 128,-1,11
 -61 -132 -61 -132 -82.5 -141 c 128,-1,12
 -104 -150 -104 -150 -123 -150 c 0,13,14
 -143 -150 -143 -150 -162.5 -145 c 128,-1,15
 -182 -140 -182 -140 -196 -124 c 1,16,-1
 -214 -136 l 1,17,18
 -200 -156 -200 -156 -177 -163 c 128,-1,19
 -154 -170 -154 -170 -126 -170 c 0,0,1
EndSplineSet
EndChar

StartChar: uni0259
Encoding: 601 601 371
Width: 548
GlyphClass: 1
Flags: W
LayerCount: 2
Fore
SplineSet
203 -10 m 0,0,1
 259 -10 259 -10 312 15.5 c 128,-1,2
 365 41 365 41 406.5 84.5 c 128,-1,3
 448 128 448 128 473.5 185.5 c 128,-1,4
 499 243 499 243 499 306 c 0,5,6
 499 352 499 352 485.5 392.5 c 128,-1,7
 472 433 472 433 447.5 463 c 128,-1,8
 423 493 423 493 389 510 c 128,-1,9
 355 527 355 527 313 527 c 0,10,11
 281 527 281 527 248 517.5 c 128,-1,12
 215 508 215 508 185 491.5 c 128,-1,13
 155 475 155 475 130.5 452.5 c 128,-1,14
 106 430 106 430 91 403 c 1,15,-1
 108 398 l 1,16,17
 123 422 123 422 145.5 442 c 128,-1,18
 168 462 168 462 194.5 476.5 c 128,-1,19
 221 491 221 491 250.5 499 c 128,-1,20
 280 507 280 507 308 507 c 0,21,22
 346 507 346 507 377.5 492.5 c 128,-1,23
 409 478 409 478 431.5 451.5 c 128,-1,24
 454 425 454 425 466.5 389 c 128,-1,25
 479 353 479 353 479 311 c 0,26,27
 479 300 479 300 478.5 290 c 128,-1,28
 478 280 478 280 476 269 c 1,29,-1
 25 269 l 1,30,31
 19 252 19 252 17.5 232 c 128,-1,32
 16 212 16 212 16 195 c 0,33,34
 16 151 16 151 29.5 113.5 c 128,-1,35
 43 76 43 76 67.5 48.5 c 128,-1,36
 92 21 92 21 126.5 5.5 c 128,-1,37
 161 -10 161 -10 203 -10 c 0,0,1
207 10 m 0,38,39
 168 10 168 10 137 24 c 128,-1,40
 106 38 106 38 84 63 c 128,-1,41
 62 88 62 88 50 123 c 128,-1,42
 38 158 38 158 38 201 c 0,43,44
 38 212 38 212 39 224 c 128,-1,45
 40 236 40 236 42 249 c 1,46,-1
 471 249 l 1,47,48
 458 198 458 198 431.5 154 c 128,-1,49
 405 110 405 110 369.5 78 c 128,-1,50
 334 46 334 46 292.5 28 c 128,-1,51
 251 10 251 10 207 10 c 0,38,39
EndSplineSet
EndChar

StartChar: uni02BC
Encoding: 700 700 375
Width: 173
GlyphClass: 1
Flags: W
LayerCount: 2
Fore
SplineSet
227 730 m 1,0,-1
 193 730 l 1,1,-1
 66 570 l 1,2,-1
 85 570 l 1,3,-1
 227 730 l 1,0,-1
EndSplineSet
EndChar

StartChar: uni02BE
Encoding: 702 702 376
Width: 140
GlyphClass: 1
Flags: W
LayerCount: 2
Fore
SplineSet
118 606 m 1,0,1
 131 606 131 606 143.5 613.5 c 128,-1,2
 156 621 156 621 165.5 634 c 128,-1,3
 175 647 175 647 181 664 c 128,-1,4
 187 681 187 681 187 700 c 0,5,6
 187 724 187 724 177 740 c 128,-1,7
 167 756 167 756 150 756 c 1,8,-1
 145 735 l 1,9,10
 157 735 157 735 164.5 724.5 c 128,-1,11
 172 714 172 714 172 696 c 0,12,13
 172 666 172 666 155 646.5 c 128,-1,14
 138 627 138 627 122 627 c 1,15,-1
 118 606 l 1,0,1
EndSplineSet
EndChar

StartChar: uni02BF
Encoding: 703 703 377
Width: 139
GlyphClass: 1
Flags: W
LayerCount: 2
Fore
SplineSet
173 627 m 1,0,1
 161 627 161 627 154 638.5 c 128,-1,2
 147 650 147 650 147 667 c 0,3,4
 147 696 147 696 162.5 715.5 c 128,-1,5
 178 735 178 735 196 735 c 1,6,-1
 201 756 l 1,7,8
 188 756 188 756 176 748.5 c 128,-1,9
 164 741 164 741 154 728 c 128,-1,10
 144 715 144 715 138 698 c 128,-1,11
 132 681 132 681 132 662 c 0,12,13
 132 638 132 638 142 622 c 128,-1,14
 152 606 152 606 169 606 c 1,15,-1
 173 627 l 1,0,1
EndSplineSet
EndChar

StartChar: uni02C8
Encoding: 712 712 380
Width: 144
GlyphClass: 1
Flags: W
LayerCount: 2
Fore
SplineSet
119 775 m 1,0,-1
 119 360 l 1,1,-1
 139 360 l 1,2,-1
 139 775 l 1,3,-1
 119 775 l 1,0,-1
EndSplineSet
EndChar

StartChar: uni02C9
Encoding: 713 713 381
Width: 355
GlyphClass: 1
Flags: W
LayerCount: 2
Fore
SplineSet
396 686 m 1,0,-1
 400 706 l 1,1,-1
 145 706 l 1,2,-1
 141 686 l 1,3,-1
 396 686 l 1,0,-1
EndSplineSet
EndChar

StartChar: uni02CB
Encoding: 715 715 382
Width: 159
GlyphClass: 1
Flags: W
LayerCount: 2
Fore
SplineSet
152 569 m 1,0,-1
 182 710 l 1,1,-1
 169 710 l 1,2,-1
 145 569 l 1,3,-1
 152 569 l 1,0,-1
EndSplineSet
EndChar

StartChar: uni02CC
Encoding: 716 716 383
Width: 143
GlyphClass: 1
Flags: W
LayerCount: 2
Fore
SplineSet
14 285 m 1,0,-1
 14 -130 l 1,1,-1
 34 -130 l 1,2,-1
 34 285 l 1,3,-1
 14 285 l 1,0,-1
EndSplineSet
EndChar

StartChar: hungarumlaut
Encoding: 733 733 389
Width: 298
GlyphClass: 1
Flags: W
LayerCount: 2
Fore
SplineSet
225 730 m 1,0,-1
 191 730 l 1,1,-1
 88 615 l 1,2,-1
 107 615 l 1,3,-1
 225 730 l 1,0,-1
325 730 m 1,4,-1
 291 730 l 1,5,-1
 188 615 l 1,6,-1
 207 615 l 1,7,-1
 325 730 l 1,4,-1
EndSplineSet
EndChar

StartChar: gravecomb
Encoding: 768 768 390
Width: 198
GlyphClass: 1
Flags: W
LayerCount: 2
Fore
SplineSet
75 760 m 1,0,-1
 183 600 l 1,1,-1
 202 600 l 1,2,-1
 109 760 l 1,3,-1
 75 760 l 1,0,-1
EndSplineSet
EndChar

StartChar: acutecomb
Encoding: 769 769 391
Width: 198
GlyphClass: 1
Flags: W
LayerCount: 2
Fore
SplineSet
219 760 m 1,0,-1
 185 760 l 1,1,-1
 58 600 l 1,2,-1
 77 600 l 1,3,-1
 219 760 l 1,0,-1
EndSplineSet
EndChar

StartChar: uni0302
Encoding: 770 770 392
Width: 302
GlyphClass: 1
Flags: W
LayerCount: 2
Fore
SplineSet
62 600 m 1,0,-1
 81 600 l 1,1,-1
 217 700 l 1,2,-1
 309 600 l 1,3,-1
 328 600 l 1,4,-1
 239 720 l 1,5,-1
 203 720 l 1,6,-1
 62 600 l 1,0,-1
EndSplineSet
EndChar

StartChar: tildecomb
Encoding: 771 771 393
Width: 364
GlyphClass: 1
Flags: W
LayerCount: 2
Fore
SplineSet
323 633 m 0,0,1
 349 633 349 633 366 642 c 128,-1,2
 383 651 383 651 393.5 663 c 128,-1,3
 404 675 404 675 408.5 686 c 128,-1,4
 413 697 413 697 414 700 c 1,5,-1
 395 700 l 1,6,7
 395 699 395 699 392 691 c 128,-1,8
 389 683 389 683 381.5 674.5 c 128,-1,9
 374 666 374 666 361.5 659 c 128,-1,10
 349 652 349 652 329 652 c 0,11,12
 311 652 311 652 298 658 c 128,-1,13
 285 664 285 664 273.5 671 c 128,-1,14
 262 678 262 678 249 684 c 128,-1,15
 236 690 236 690 218 690 c 0,16,17
 194 690 194 690 178.5 680.5 c 128,-1,18
 163 671 163 671 153 659 c 128,-1,19
 143 647 143 647 138.5 636 c 128,-1,20
 134 625 134 625 134 623 c 1,21,-1
 153 623 l 2,22,23
 154 625 154 625 157.5 633 c 128,-1,24
 161 641 161 641 168 649.5 c 128,-1,25
 175 658 175 658 186 664.5 c 128,-1,26
 197 671 197 671 212 671 c 256,27,28
 227 671 227 671 238 665 c 128,-1,29
 249 659 249 659 261 652 c 128,-1,30
 273 645 273 645 287.5 639 c 128,-1,31
 302 633 302 633 323 633 c 0,0,1
EndSplineSet
EndChar

StartChar: uni0304
Encoding: 772 772 394
Width: 366
GlyphClass: 1
Flags: W
LayerCount: 2
Fore
SplineSet
407 686 m 1,0,-1
 411 706 l 1,1,-1
 145 706 l 1,2,-1
 141 686 l 1,3,-1
 407 686 l 1,0,-1
EndSplineSet
EndChar

StartChar: uni0306
Encoding: 774 774 395
Width: 242
GlyphClass: 1
Flags: W
LayerCount: 2
Fore
SplineSet
208 670 m 0,0,1
 191 670 191 670 179.5 684.5 c 128,-1,2
 168 699 168 699 168 719 c 0,3,4
 168 721 168 721 168 724 c 128,-1,5
 168 727 168 727 169 730 c 1,6,-1
 150 730 l 1,7,8
 149 726 149 726 148.5 722.5 c 128,-1,9
 148 719 148 719 148 715 c 0,10,11
 148 689 148 689 164 671 c 128,-1,12
 180 653 180 653 205 653 c 0,13,14
 219 653 219 653 233 659.5 c 128,-1,15
 247 666 247 666 259 676.5 c 128,-1,16
 271 687 271 687 280 701 c 128,-1,17
 289 715 289 715 292 730 c 1,18,-1
 274 730 l 1,19,20
 266 705 266 705 247 687.5 c 128,-1,21
 228 670 228 670 208 670 c 0,0,1
EndSplineSet
EndChar

StartChar: uni0307
Encoding: 775 775 396
Width: 120
GlyphClass: 1
Flags: W
LayerCount: 2
Fore
SplineSet
95 689 m 0,0,1
 92 675 92 675 100 665 c 128,-1,2
 108 655 108 655 122 655 c 0,3,4
 129 655 129 655 136 657.5 c 128,-1,5
 143 660 143 660 148.5 664.5 c 128,-1,6
 154 669 154 669 158 675.5 c 128,-1,7
 162 682 162 682 163 689 c 0,8,9
 166 703 166 703 158 712.5 c 128,-1,10
 150 722 150 722 136 722 c 0,11,12
 129 722 129 722 122 719.5 c 128,-1,13
 115 717 115 717 109.5 712.5 c 128,-1,14
 104 708 104 708 100.5 702 c 128,-1,15
 97 696 97 696 95 689 c 0,0,1
EndSplineSet
EndChar

StartChar: uni0308
Encoding: 776 776 397
Width: 236
GlyphClass: 1
Flags: W
LayerCount: 2
Fore
SplineSet
92 655 m 0,0,1
 99 655 99 655 106 657.5 c 128,-1,2
 113 660 113 660 118.5 664.5 c 128,-1,3
 124 669 124 669 128 675.5 c 128,-1,4
 132 682 132 682 133 689 c 0,5,6
 136 703 136 703 128 712.5 c 128,-1,7
 120 722 120 722 106 722 c 0,8,9
 99 722 99 722 92 719.5 c 128,-1,10
 85 717 85 717 79.5 712.5 c 128,-1,11
 74 708 74 708 70.5 702 c 128,-1,12
 67 696 67 696 65 689 c 0,13,14
 62 675 62 675 70 665 c 128,-1,15
 78 655 78 655 92 655 c 0,0,1
266 655 m 0,16,17
 273 655 273 655 280 657.5 c 128,-1,18
 287 660 287 660 292.5 664.5 c 128,-1,19
 298 669 298 669 302 675.5 c 128,-1,20
 306 682 306 682 307 689 c 0,21,22
 310 703 310 703 302 712.5 c 128,-1,23
 294 722 294 722 280 722 c 0,24,25
 273 722 273 722 266 719.5 c 128,-1,26
 259 717 259 717 253.5 712.5 c 128,-1,27
 248 708 248 708 244.5 702 c 128,-1,28
 241 696 241 696 239 689 c 0,29,30
 236 675 236 675 244 665 c 128,-1,31
 252 655 252 655 266 655 c 0,16,17
EndSplineSet
EndChar

StartChar: hookabovecomb
Encoding: 777 777 398
Width: 216
GlyphClass: 1
Flags: W
LayerCount: 2
Fore
SplineSet
150 682 m 1,0,1
 170 695 170 695 182 701 c 128,-1,2
 194 707 194 707 208 707 c 0,3,4
 230 707 230 707 235 695.5 c 128,-1,5
 240 684 240 684 234 668 c 0,6,7
 229 656 229 656 215 643 c 128,-1,8
 201 630 201 630 178 612 c 1,9,-1
 186 601 l 1,10,11
 211 621 211 621 228 635 c 128,-1,12
 245 649 245 649 252 668 c 0,13,14
 263 695 263 695 252 710 c 128,-1,15
 241 725 241 725 217 725 c 0,16,17
 197 725 197 725 181 717 c 128,-1,18
 165 709 165 709 143 695 c 1,19,-1
 150 682 l 1,0,1
EndSplineSet
EndChar

StartChar: uni030A
Encoding: 778 778 399
Width: 209
GlyphClass: 1
Flags: W
LayerCount: 2
Fore
SplineSet
137 662 m 0,0,1
 137 642 137 642 148.5 629 c 128,-1,2
 160 616 160 616 180 616 c 0,3,4
 206 616 206 616 227 636 c 128,-1,5
 248 656 248 656 248 684 c 0,6,7
 248 704 248 704 236.5 717 c 128,-1,8
 225 730 225 730 205 730 c 0,9,10
 179 730 179 730 158 710 c 128,-1,11
 137 690 137 690 137 662 c 0,0,1
201 714 m 0,12,13
 215 714 215 714 224 705 c 128,-1,14
 233 696 233 696 233 681 c 0,15,16
 233 660 233 660 216.5 646 c 128,-1,17
 200 632 200 632 184 632 c 0,18,19
 170 632 170 632 161.5 641.5 c 128,-1,20
 153 651 153 651 153 665 c 0,21,22
 153 687 153 687 168 700.5 c 128,-1,23
 183 714 183 714 201 714 c 0,12,13
EndSplineSet
EndChar

StartChar: uni030B
Encoding: 779 779 400
Width: 298
GlyphClass: 1
Flags: W
LayerCount: 2
Fore
SplineSet
381 760 m 1,0,-1
 347 760 l 1,1,-1
 203 600 l 1,2,-1
 222 600 l 1,3,-1
 381 760 l 1,0,-1
218 760 m 1,4,-1
 184 760 l 1,5,-1
 40 600 l 1,6,-1
 59 600 l 1,7,-1
 218 760 l 1,4,-1
EndSplineSet
EndChar

StartChar: uni030C
Encoding: 780 780 401
Width: 302
GlyphClass: 1
Flags: W
LayerCount: 2
Fore
SplineSet
88 720 m 1,0,-1
 177 600 l 1,1,-1
 213 600 l 1,2,-1
 354 720 l 1,3,-1
 335 720 l 1,4,-1
 199 620 l 1,5,-1
 107 720 l 1,6,-1
 88 720 l 1,0,-1
EndSplineSet
EndChar

StartChar: uni030F
Encoding: 783 783 402
Width: 298
GlyphClass: 1
Flags: W
LayerCount: 2
Fore
SplineSet
242 760 m 1,0,-1
 333 600 l 1,1,-1
 352 600 l 1,2,-1
 276 760 l 1,3,-1
 242 760 l 1,0,-1
81 760 m 1,4,-1
 172 600 l 1,5,-1
 191 600 l 1,6,-1
 115 760 l 1,7,-1
 81 760 l 1,4,-1
EndSplineSet
EndChar

StartChar: uni0311
Encoding: 785 785 403
Width: 242
GlyphClass: 1
Flags: W
LayerCount: 2
Fore
SplineSet
134 653 m 1,0,-1
 153 653 l 1,1,2
 158 676 158 676 175.5 694.5 c 128,-1,3
 193 713 193 713 219 713 c 0,4,5
 239 713 239 713 249 700.5 c 128,-1,6
 259 688 259 688 259 665 c 0,7,8
 259 662 259 662 258.5 659 c 128,-1,9
 258 656 258 656 258 653 c 1,10,-1
 276 653 l 1,11,12
 277 657 277 657 277 660.5 c 128,-1,13
 277 664 277 664 277 668 c 0,14,15
 277 692 277 692 263 711 c 128,-1,16
 249 730 249 730 220 730 c 0,17,18
 204 730 204 730 189.5 723.5 c 128,-1,19
 175 717 175 717 164 706 c 128,-1,20
 153 695 153 695 145 681.5 c 128,-1,21
 137 668 137 668 134 653 c 1,0,-1
EndSplineSet
EndChar

StartChar: uni0312
Encoding: 786 786 404
Width: 120
GlyphClass: 1
Flags: W
LayerCount: 2
Fore
SplineSet
86 613 m 1,0,-1
 120 613 l 1,1,-1
 224 728 l 1,2,-1
 205 728 l 1,3,-1
 86 613 l 1,0,-1
EndSplineSet
EndChar

StartChar: uni031B
Encoding: 795 795 405
Width: 217
GlyphClass: 1
Flags: W
LayerCount: 2
Fore
SplineSet
109 537 m 1,0,1
 124 537 124 537 139 539 c 128,-1,2
 154 541 154 541 168 545 c 128,-1,3
 182 549 182 549 193.5 554.5 c 128,-1,4
 205 560 205 560 212 567 c 0,5,6
 220 575 220 575 225.5 582.5 c 128,-1,7
 231 590 231 590 234.5 598 c 128,-1,8
 238 606 238 606 241 616.5 c 128,-1,9
 244 627 244 627 248 641 c 1,10,-1
 226 641 l 1,11,12
 221 618 221 618 214.5 603.5 c 128,-1,13
 208 589 208 589 198 580 c 0,14,15
 186 569 186 569 162.5 563 c 128,-1,16
 139 557 139 557 113 557 c 1,17,-1
 109 537 l 1,0,1
EndSplineSet
EndChar

StartChar: dotbelowcomb
Encoding: 803 803 406
Width: 120
GlyphClass: 1
Flags: W
LayerCount: 2
Fore
SplineSet
-57 -91 m 0,0,1
 -60 -105 -60 -105 -52.5 -115 c 128,-1,2
 -45 -125 -45 -125 -31 -125 c 0,3,4
 -24 -125 -24 -125 -17 -122.5 c 128,-1,5
 -10 -120 -10 -120 -4.5 -115.5 c 128,-1,6
 1 -111 1 -111 5.5 -104.5 c 128,-1,7
 10 -98 10 -98 11 -91 c 0,8,9
 13 -77 13 -77 5.5 -67.5 c 128,-1,10
 -2 -58 -2 -58 -16 -58 c 0,11,12
 -23 -58 -23 -58 -30 -60.5 c 128,-1,13
 -37 -63 -37 -63 -42.5 -67.5 c 128,-1,14
 -48 -72 -48 -72 -52 -78 c 128,-1,15
 -56 -84 -56 -84 -57 -91 c 0,0,1
EndSplineSet
EndChar

StartChar: uni0324
Encoding: 804 804 407
Width: 236
GlyphClass: 1
Flags: W
LayerCount: 2
Fore
SplineSet
11 -124 m 0,0,1
 18 -124 18 -124 25 -121.5 c 128,-1,2
 32 -119 32 -119 37.5 -114.5 c 128,-1,3
 43 -110 43 -110 47 -103.5 c 128,-1,4
 51 -97 51 -97 52 -90 c 0,5,6
 55 -76 55 -76 47 -66.5 c 128,-1,7
 39 -57 39 -57 25 -57 c 0,8,9
 18 -57 18 -57 11 -59.5 c 128,-1,10
 4 -62 4 -62 -1.5 -66.5 c 128,-1,11
 -7 -71 -7 -71 -11 -77 c 128,-1,12
 -15 -83 -15 -83 -16 -90 c 0,13,14
 -19 -104 -19 -104 -11 -114 c 128,-1,15
 -3 -124 -3 -124 11 -124 c 0,0,1
185 -124 m 0,16,17
 192 -124 192 -124 199 -121.5 c 128,-1,18
 206 -119 206 -119 211.5 -114.5 c 128,-1,19
 217 -110 217 -110 221 -103.5 c 128,-1,20
 225 -97 225 -97 226 -90 c 0,21,22
 229 -76 229 -76 221 -66.5 c 128,-1,23
 213 -57 213 -57 199 -57 c 0,24,25
 192 -57 192 -57 185 -59.5 c 128,-1,26
 178 -62 178 -62 172.5 -66.5 c 128,-1,27
 167 -71 167 -71 163.5 -77 c 128,-1,28
 160 -83 160 -83 158 -90 c 0,29,30
 155 -104 155 -104 163 -114 c 128,-1,31
 171 -124 171 -124 185 -124 c 0,16,17
EndSplineSet
EndChar

StartChar: uni0326
Encoding: 806 806 408
Width: 120
GlyphClass: 1
Flags: W
LayerCount: 2
Fore
SplineSet
39 -196 m 1,0,-1
 103 -51 l 1,1,-1
 67 -51 l 1,2,-1
 15 -196 l 1,3,-1
 39 -196 l 1,0,-1
EndSplineSet
EndChar

StartChar: uni0327
Encoding: 807 807 409
Width: 239
GlyphClass: 1
Flags: W
LayerCount: 2
Fore
SplineSet
-39 -144 m 1,0,1
 -19 -153 -19 -153 2.5 -158 c 128,-1,2
 24 -163 24 -163 46 -163 c 0,3,4
 63 -163 63 -163 79.5 -160 c 128,-1,5
 96 -157 96 -157 109 -149 c 128,-1,6
 122 -141 122 -141 129.5 -127.5 c 128,-1,7
 137 -114 137 -114 137 -94 c 0,8,9
 137 -69 137 -69 121 -60.5 c 128,-1,10
 105 -52 105 -52 83 -52 c 0,11,12
 72 -52 72 -52 61.5 -53 c 128,-1,13
 51 -54 51 -54 41 -58 c 1,14,-1
 85 -1 l 1,15,-1
 70 10 l 1,16,-1
 -1 -84 l 1,17,18
 19 -77 19 -77 39 -72.5 c 128,-1,19
 59 -68 59 -68 79 -68 c 0,20,21
 87 -68 87 -68 94 -69 c 128,-1,22
 101 -70 101 -70 106 -73.5 c 128,-1,23
 111 -77 111 -77 114.5 -82.5 c 128,-1,24
 118 -88 118 -88 118 -97 c 0,25,26
 118 -111 118 -111 112.5 -120.5 c 128,-1,27
 107 -130 107 -130 97.5 -135 c 128,-1,28
 88 -140 88 -140 76.5 -142 c 128,-1,29
 65 -144 65 -144 53 -144 c 0,30,31
 43 -144 43 -144 32.5 -143 c 128,-1,32
 22 -142 22 -142 12.5 -140 c 128,-1,33
 3 -138 3 -138 -7 -134.5 c 128,-1,34
 -17 -131 -17 -131 -26 -126 c 1,35,36
 -29 -131 -29 -131 -32.5 -135 c 128,-1,37
 -36 -139 -36 -139 -39 -144 c 1,0,1
EndSplineSet
EndChar

StartChar: uni0328
Encoding: 808 808 410
Width: 173
GlyphClass: 1
Flags: W
LayerCount: 2
Fore
SplineSet
-27 -113 m 0,0,1
 -27 -131 -27 -131 -16 -144 c 128,-1,2
 -5 -157 -5 -157 21 -164 c 1,3,-1
 34 -147 l 1,4,5
 10 -139 10 -139 0 -129.5 c 128,-1,6
 -10 -120 -10 -120 -10 -106 c 0,7,8
 -10 -84 -10 -84 6.5 -61 c 128,-1,9
 23 -38 23 -38 68 0 c 1,10,-1
 63 12 l 1,11,-1
 59 12 l 1,12,13
 17 -26 17 -26 -5 -54.5 c 128,-1,14
 -27 -83 -27 -83 -27 -113 c 0,0,1
EndSplineSet
EndChar

StartChar: uni032E
Encoding: 814 814 411
Width: 223
GlyphClass: 1
Flags: W
LayerCount: 2
Fore
SplineSet
31 -119 m 0,0,1
 43 -119 43 -119 55.5 -112.5 c 128,-1,2
 68 -106 68 -106 79 -95.5 c 128,-1,3
 90 -85 90 -85 98 -71 c 128,-1,4
 106 -57 106 -57 109 -42 c 1,5,-1
 94 -42 l 1,6,7
 86 -67 86 -67 69 -84.5 c 128,-1,8
 52 -102 52 -102 35 -102 c 0,9,10
 17 -102 17 -102 7 -83.5 c 128,-1,11
 -3 -65 -3 -65 2 -42 c 1,12,-1
 -14 -42 l 1,13,14
 -21 -73 -21 -73 -7 -96 c 128,-1,15
 7 -119 7 -119 31 -119 c 0,0,1
EndSplineSet
EndChar

StartChar: uni0331
Encoding: 817 817 412
Width: 355
GlyphClass: 1
Flags: W
LayerCount: 2
Fore
SplineSet
230 -95 m 1,0,-1
 234 -75 l 1,1,-1
 -21 -75 l 1,2,-1
 -25 -95 l 1,3,-1
 230 -95 l 1,0,-1
EndSplineSet
EndChar

StartChar: uni0335
Encoding: 821 821 413
Width: 286
GlyphClass: 1
Flags: W
LayerCount: 2
Fore
SplineSet
244 299 m 1,0,-1
 248 319 l 1,1,-1
 63 319 l 1,2,-1
 59 299 l 1,3,-1
 244 299 l 1,0,-1
EndSplineSet
EndChar

StartChar: tonos
Encoding: 900 900 415
Width: 128
GlyphClass: 1
Flags: W
LayerCount: 2
Fore
SplineSet
183 767 m 1,0,-1
 114 576 l 1,1,-1
 137 572 l 1,2,-1
 202 765 l 1,3,-1
 183 767 l 1,0,-1
EndSplineSet
EndChar

StartChar: dieresistonos
Encoding: 901 901 416
Width: 285
GlyphClass: 1
Flags: W
LayerCount: 2
Fore
SplineSet
84 637 m 0,0,1
 80 623 80 623 89 610.5 c 128,-1,2
 98 598 98 598 115 598 c 0,3,4
 130 598 130 598 142.5 609 c 128,-1,5
 155 620 155 620 157 635 c 0,6,7
 162 652 162 652 153.5 662 c 128,-1,8
 145 672 145 672 128 672 c 256,9,10
 111 672 111 672 99 663 c 128,-1,11
 87 654 87 654 84 637 c 0,0,1
301 637 m 0,12,13
 297 623 297 623 306 610.5 c 128,-1,14
 315 598 315 598 332 598 c 0,15,16
 347 598 347 598 359 609 c 128,-1,17
 371 620 371 620 374 635 c 0,18,19
 378 652 378 652 370 662 c 128,-1,20
 362 672 362 672 345 672 c 0,21,22
 330 672 330 672 317 663 c 128,-1,23
 304 654 304 654 301 637 c 0,12,13
271 788 m 1,24,-1
 202 597 l 1,25,-1
 225 593 l 1,26,-1
 290 786 l 1,27,-1
 271 788 l 1,24,-1
EndSplineSet
EndChar

StartChar: Gamma
Encoding: 915 915 428
Width: 479
GlyphClass: 1
Flags: W
LayerCount: 2
Fore
SplineSet
180 714 m 1,0,-1
 619 714 l 1,1,-1
 613 694 l 1,2,-1
 194 694 l 1,3,-1
 12 10 l 1,4,-1
 -8 10 l 1,5,-1
 180 714 l 1,0,-1
EndSplineSet
EndChar

StartChar: uni0394
Encoding: 916 916 429
Width: 606
GlyphClass: 1
Flags: W
LayerCount: 2
Fore
SplineSet
-32 0 m 1,0,-1
 523 0 l 1,1,-1
 526 18 l 1,2,-1
 412 714 l 1,3,-1
 400 714 l 1,4,-1
 -28 18 l 1,5,-1
 -32 0 l 1,0,-1
-3 19 m 1,6,-1
 261 447 l 1,7,-1
 398 675 l 1,8,-1
 402 675 l 1,9,-1
 437 447 l 1,10,-1
 503 19 l 1,11,-1
 -3 19 l 1,6,-1
EndSplineSet
EndChar

StartChar: Eta
Encoding: 919 919 432
Width: 701
GlyphClass: 1
Flags: W
LayerCount: 2
Fore
SplineSet
38 0 m 1,0,-1
 58 0 l 1,1,-1
 132 350 l 1,2,-1
 595 350 l 1,3,-1
 521 0 l 1,4,-1
 540 0 l 1,5,-1
 690 704 l 1,6,-1
 670 704 l 1,7,-1
 599 370 l 1,8,-1
 136 370 l 1,9,-1
 207 704 l 1,10,-1
 187 704 l 1,11,-1
 38 0 l 1,0,-1
EndSplineSet
EndChar

StartChar: Theta
Encoding: 920 920 433
Width: 726
GlyphClass: 1
Flags: W
LayerCount: 2
Fore
SplineSet
133 348 m 1,0,-1
 618 348 l 1,1,-1
 622 366 l 1,2,-1
 137 366 l 1,3,-1
 133 348 l 1,0,-1
302 -5 m 0,4,5
 381 -5 381 -5 451.5 29.5 c 128,-1,6
 522 64 522 64 575.5 122.5 c 128,-1,7
 629 181 629 181 660 258 c 128,-1,8
 691 335 691 335 691 420 c 0,9,10
 691 475 691 475 676.5 527 c 128,-1,11
 662 579 662 579 631.5 619.5 c 128,-1,12
 601 660 601 660 553.5 684.5 c 128,-1,13
 506 709 506 709 439 709 c 0,14,15
 361 709 361 709 290.5 674.5 c 128,-1,16
 220 640 220 640 167 581.5 c 128,-1,17
 114 523 114 523 83 445.5 c 128,-1,18
 52 368 52 368 52 282 c 0,19,20
 52 226 52 226 66 174.5 c 128,-1,21
 80 123 80 123 110.5 83 c 128,-1,22
 141 43 141 43 188.5 19 c 128,-1,23
 236 -5 236 -5 302 -5 c 0,4,5
305 15 m 0,24,25
 244 15 244 15 199.5 37 c 128,-1,26
 155 59 155 59 126.5 96 c 128,-1,27
 98 133 98 133 84.5 181.5 c 128,-1,28
 71 230 71 230 71 283 c 0,29,30
 71 360 71 360 99.5 433.5 c 128,-1,31
 128 507 128 507 177.5 563.5 c 128,-1,32
 227 620 227 620 293.5 654.5 c 128,-1,33
 360 689 360 689 437 689 c 0,34,35
 499 689 499 689 543.5 667 c 128,-1,36
 588 645 588 645 616 607.5 c 128,-1,37
 644 570 644 570 657.5 521.5 c 128,-1,38
 671 473 671 473 671 420 c 0,39,40
 671 343 671 343 643 270 c 128,-1,41
 615 197 615 197 566 140.5 c 128,-1,42
 517 84 517 84 450 49.5 c 128,-1,43
 383 15 383 15 305 15 c 0,24,25
EndSplineSet
EndChar

StartChar: Lambda
Encoding: 923 923 436
Width: 638
GlyphClass: 1
Flags: W
LayerCount: 2
Fore
SplineSet
-24 0 m 1,0,-1
 1 0 l 1,1,-1
 262 429 l 1,2,-1
 416 688 l 1,3,-1
 420 688 l 1,4,-1
 460 429 l 1,5,-1
 524 0 l 1,6,-1
 546 0 l 1,7,-1
 437 714 l 1,8,-1
 414 714 l 1,9,-1
 -24 0 l 1,0,-1
EndSplineSet
EndChar

StartChar: Xi
Encoding: 926 926 439
Width: 606
GlyphClass: 1
Flags: W
LayerCount: 2
Fore
SplineSet
22 0 m 1,0,-1
 468 0 l 1,1,-1
 472 19 l 1,2,-1
 25 19 l 1,3,-1
 22 0 l 1,0,-1
167 356 m 1,4,-1
 482 356 l 1,5,-1
 486 376 l 1,6,-1
 171 376 l 1,7,-1
 167 356 l 1,4,-1
181 700 m 1,8,-1
 627 700 l 1,9,-1
 631 721 l 1,10,-1
 184 721 l 1,11,-1
 181 700 l 1,8,-1
EndSplineSet
EndChar

StartChar: Pi
Encoding: 928 928 441
Width: 616
GlyphClass: 1
Flags: W
LayerCount: 2
Fore
SplineSet
38 0 m 1,0,-1
 60 0 l 1,1,-1
 220 700 l 1,2,-1
 601 700 l 1,3,-1
 442 0 l 1,4,-1
 463 0 l 1,5,-1
 626 721 l 1,6,-1
 200 721 l 1,7,-1
 38 0 l 1,0,-1
EndSplineSet
EndChar

StartChar: Sigma
Encoding: 931 931 443
Width: 531
GlyphClass: 1
Flags: W
LayerCount: 2
Fore
SplineSet
-8 0 m 1,0,-1
 435 0 l 1,1,-1
 439 19 l 1,2,-1
 27 19 l 1,3,-1
 374 367 l 1,4,-1
 186 700 l 1,5,-1
 559 700 l 1,6,-1
 563 721 l 1,7,-1
 162 721 l 1,8,-1
 161 710 l 1,9,-1
 347 368 l 1,10,-1
 -5 11 l 1,11,-1
 -8 0 l 1,0,-1
EndSplineSet
EndChar

StartChar: Upsilon
Encoding: 933 933 445
Width: 603
GlyphClass: 1
Flags: W
LayerCount: 2
Fore
SplineSet
234 0 m 1,0,-1
 253 0 l 1,1,-1
 310 253 l 2,2,3
 326 320 326 320 355.5 378.5 c 128,-1,4
 385 437 385 437 426.5 490 c 128,-1,5
 468 543 468 543 522 593 c 128,-1,6
 576 643 576 643 641 693 c 1,7,-1
 630 711 l 1,8,9
 570 661 570 661 527 623 c 128,-1,10
 484 585 484 585 450 548.5 c 128,-1,11
 416 512 416 512 388 470.5 c 128,-1,12
 360 429 360 429 330 372 c 1,13,-1
 324 369 l 1,14,15
 319 426 319 426 309.5 467.5 c 128,-1,16
 300 509 300 509 282.5 546 c 128,-1,17
 265 583 265 583 239 620.5 c 128,-1,18
 213 658 213 658 176 707 c 1,19,-1
 161 692 l 1,20,21
 198 648 198 648 229 602 c 128,-1,22
 260 556 260 556 279.5 503.5 c 128,-1,23
 299 451 299 451 303.5 390.5 c 128,-1,24
 308 330 308 330 292 256 c 2,25,-1
 234 0 l 1,0,-1
EndSplineSet
EndChar

StartChar: Phi
Encoding: 934 934 446
Width: 681
GlyphClass: 1
Flags: W
LayerCount: 2
Fore
SplineSet
298 108 m 1,0,1
 243 108 243 108 199.5 127 c 128,-1,2
 156 146 156 146 129 179.5 c 128,-1,3
 102 213 102 213 93 258.5 c 128,-1,4
 84 304 84 304 96 358 c 256,5,6
 108 412 108 412 139 459 c 128,-1,7
 170 506 170 506 213 540 c 128,-1,8
 256 574 256 574 308.5 593.5 c 128,-1,9
 361 613 361 613 416 613 c 1,10,-1
 418 634 l 1,11,12
 358 634 358 634 302 613 c 128,-1,13
 246 592 246 592 199.5 555.5 c 128,-1,14
 153 519 153 519 120 469 c 128,-1,15
 87 419 87 419 74 360 c 0,16,17
 61 303 61 303 71.5 253 c 128,-1,18
 82 203 82 203 112 166 c 128,-1,19
 142 129 142 129 188.5 107.5 c 128,-1,20
 235 86 235 86 295 86 c 1,21,-1
 298 108 l 1,0,1
289 -25 m 1,22,-1
 464 746 l 1,23,-1
 442 746 l 1,24,-1
 268 -25 l 1,25,-1
 289 -25 l 1,22,-1
314 86 m 1,26,27
 374 86 374 86 430.5 107 c 128,-1,28
 487 128 487 128 533 164.5 c 128,-1,29
 579 201 579 201 611.5 250.5 c 128,-1,30
 644 300 644 300 657 358 c 256,31,32
 670 416 670 416 660 466.5 c 128,-1,33
 650 517 650 517 620.5 554 c 128,-1,34
 591 591 591 591 544 612.5 c 128,-1,35
 497 634 497 634 437 634 c 1,36,-1
 434 613 l 1,37,38
 490 613 490 613 533 594 c 128,-1,39
 576 575 576 575 602.5 541.5 c 128,-1,40
 629 508 629 508 637.5 461.5 c 128,-1,41
 646 415 646 415 633 360 c 0,42,43
 621 307 621 307 591 261 c 128,-1,44
 561 215 561 215 518.5 181 c 128,-1,45
 476 147 476 147 424 127.5 c 128,-1,46
 372 108 372 108 316 108 c 1,47,-1
 314 86 l 1,26,27
EndSplineSet
EndChar

StartChar: Psi
Encoding: 936 936 448
Width: 679
GlyphClass: 1
Flags: W
LayerCount: 2
Fore
SplineSet
272 0 m 1,0,-1
 295 0 l 1,1,-1
 458 714 l 1,2,-1
 434 714 l 1,3,-1
 272 0 l 1,0,-1
123 428 m 2,4,5
 110 369 110 369 117 324 c 128,-1,6
 124 279 124 279 150 248.5 c 128,-1,7
 176 218 176 218 218.5 202.5 c 128,-1,8
 261 187 261 187 318 187 c 1,9,-1
 324 207 l 1,10,11
 269 207 269 207 228.5 221.5 c 128,-1,12
 188 236 188 236 164.5 264 c 128,-1,13
 141 292 141 292 134.5 333.5 c 128,-1,14
 128 375 128 375 140 429 c 0,15,16
 143 439 143 439 148 457 c 128,-1,17
 153 475 153 475 159 499 c 128,-1,18
 165 523 165 523 171 550.5 c 128,-1,19
 177 578 177 578 183 606 c 0,20,21
 191 638 191 638 194.5 663 c 128,-1,22
 198 688 198 688 197 713 c 1,23,-1
 179 716 l 1,24,25
 179 697 179 697 177.5 682 c 128,-1,26
 176 667 176 667 174 653.5 c 128,-1,27
 172 640 172 640 169.5 627 c 128,-1,28
 167 614 167 614 163 597 c 2,29,-1
 123 428 l 2,4,5
669 594 m 2,30,31
 673 610 673 610 676.5 623.5 c 128,-1,32
 680 637 680 637 684.5 650.5 c 128,-1,33
 689 664 689 664 694.5 679 c 128,-1,34
 700 694 700 694 708 713 c 1,35,-1
 689 716 l 1,36,37
 683 704 683 704 678.5 691.5 c 128,-1,38
 674 679 674 679 670 666 c 128,-1,39
 666 653 666 653 663 638.5 c 128,-1,40
 660 624 660 624 657 608 c 0,41,42
 651 580 651 580 645 552.5 c 128,-1,43
 639 525 639 525 634 501.5 c 128,-1,44
 629 478 629 478 625.5 459.5 c 128,-1,45
 622 441 622 441 620 431 c 0,46,47
 607 377 607 377 580.5 335.5 c 128,-1,48
 554 294 554 294 517.5 265.5 c 128,-1,49
 481 237 481 237 435 222 c 128,-1,50
 389 207 389 207 335 207 c 1,51,-1
 335 187 l 1,52,53
 392 187 392 187 440.5 202.5 c 128,-1,54
 489 218 489 218 527.5 248 c 128,-1,55
 566 278 566 278 593 322.5 c 128,-1,56
 620 367 620 367 633 425 c 2,57,-1
 669 594 l 2,30,31
EndSplineSet
EndChar

StartChar: uni03A9
Encoding: 937 937 449
Width: 700
GlyphClass: 1
Flags: W
LayerCount: 2
Fore
SplineSet
18 0 m 1,0,-1
 247 0 l 1,1,-1
 267 102 l 1,2,3
 224 115 224 115 188.5 141 c 128,-1,4
 153 167 153 167 131 205.5 c 128,-1,5
 109 244 109 244 102.5 294 c 128,-1,6
 96 344 96 344 109 404 c 0,7,8
 123 468 123 468 156 523 c 128,-1,9
 189 578 189 578 234.5 617.5 c 128,-1,10
 280 657 280 657 336 679.5 c 128,-1,11
 392 702 392 702 453 702 c 0,12,13
 512 702 512 702 557.5 680 c 128,-1,14
 603 658 603 658 631.5 619 c 128,-1,15
 660 580 660 580 668.5 525 c 128,-1,16
 677 470 677 470 661 405 c 0,17,18
 648 347 648 347 618.5 297.5 c 128,-1,19
 589 248 589 248 548.5 208.5 c 128,-1,20
 508 169 508 169 459 142 c 128,-1,21
 410 115 410 115 358 102 c 1,22,-1
 338 0 l 1,23,-1
 568 0 l 1,24,-1
 571 21 l 1,25,-1
 360 21 l 1,26,-1
 365 10 l 1,27,-1
 383 94 l 1,28,-1
 378 86 l 1,29,30
 431 102 431 102 479.5 130.5 c 128,-1,31
 528 159 528 159 568 198.5 c 128,-1,32
 608 238 608 238 637 289 c 128,-1,33
 666 340 666 340 679 401 c 0,34,35
 694 466 694 466 686 524.5 c 128,-1,36
 678 583 678 583 649 627 c 128,-1,37
 620 671 620 671 571 696.5 c 128,-1,38
 522 722 522 722 456 722 c 0,39,40
 397 722 397 722 339 700.5 c 128,-1,41
 281 679 281 679 231 639 c 128,-1,42
 181 599 181 599 144 541.5 c 128,-1,43
 107 484 107 484 90 412 c 0,44,45
 76 350 76 350 82 297.5 c 128,-1,46
 88 245 88 245 110 203.5 c 128,-1,47
 132 162 132 162 167 132.5 c 128,-1,48
 202 103 202 103 247 88 c 1,49,-1
 245 94 l 1,50,-1
 227 10 l 1,51,-1
 237 21 l 1,52,-1
 21 21 l 1,53,-1
 18 0 l 1,0,-1
EndSplineSet
EndChar

StartChar: Iotadieresis
Encoding: 938 938 450
Width: 279
GlyphClass: 1
Flags: W
LayerCount: 2
Fore
SplineSet
33 0 m 1,0,-1
 53 0 l 1,1,-1
 202 703 l 1,2,-1
 182 703 l 1,3,-1
 33 0 l 1,0,-1
138 873 m 0,4,5
 135 858 135 858 142 848.5 c 128,-1,6
 149 839 149 839 163 839 c 0,7,8
 176 839 176 839 187.5 848.5 c 128,-1,9
 199 858 199 858 202 873 c 0,10,11
 205 886 205 886 198 895.5 c 128,-1,12
 191 905 191 905 177 905 c 256,13,14
 163 905 163 905 152 895.5 c 128,-1,15
 141 886 141 886 138 873 c 0,4,5
246 873 m 0,16,17
 243 858 243 858 250 848.5 c 128,-1,18
 257 839 257 839 272 839 c 0,19,20
 285 839 285 839 296 848.5 c 128,-1,21
 307 858 307 858 310 873 c 0,22,23
 313 886 313 886 306 895.5 c 128,-1,24
 299 905 299 905 286 905 c 0,25,26
 272 905 272 905 260.5 895.5 c 128,-1,27
 249 886 249 886 246 873 c 0,16,17
EndSplineSet
EndChar

StartChar: alphatonos
Encoding: 940 940 452
Width: 642
GlyphClass: 1
Flags: W
LayerCount: 2
Fore
SplineSet
484 254 m 2,0,1
 470 225 470 225 448.5 184 c 128,-1,2
 427 143 427 143 395 105 c 128,-1,3
 363 67 363 67 319.5 40.5 c 128,-1,4
 276 14 276 14 218 13 c 0,5,6
 172 14 172 14 140 33 c 128,-1,7
 108 52 108 52 90 84 c 128,-1,8
 72 116 72 116 68.5 159 c 128,-1,9
 65 202 65 202 76 251 c 0,10,11
 89 307 89 307 113 354 c 128,-1,12
 137 401 137 401 169 435.5 c 128,-1,13
 201 470 201 470 239.5 489 c 128,-1,14
 278 508 278 508 321 508 c 0,15,16
 360 508 360 508 384.5 490 c 128,-1,17
 409 472 409 472 423.5 443 c 128,-1,18
 438 414 438 414 444 377 c 128,-1,19
 450 340 450 340 451.5 302 c 128,-1,20
 453 264 453 264 451.5 229 c 128,-1,21
 450 194 450 194 449 168 c 1,22,-1
 475 201 l 1,23,24
 480 243 480 243 481 299.5 c 128,-1,25
 482 356 482 356 469 407 c 128,-1,26
 456 458 456 458 423 493.5 c 128,-1,27
 390 529 390 529 327 529 c 0,28,29
 281 529 281 529 238.5 509.5 c 128,-1,30
 196 490 196 490 161 454 c 128,-1,31
 126 418 126 418 99.5 368 c 128,-1,32
 73 318 73 318 59 257 c 0,33,34
 46 202 46 202 50.5 153.5 c 128,-1,35
 55 105 55 105 75.5 69 c 128,-1,36
 96 33 96 33 131.5 12.5 c 128,-1,37
 167 -8 167 -8 217 -8 c 0,38,39
 255 -8 255 -8 290.5 4 c 128,-1,40
 326 16 326 16 358.5 40.5 c 128,-1,41
 391 65 391 65 420.5 101 c 128,-1,42
 450 137 450 137 474 185 c 2,43,-1
 647 519 l 1,44,-1
 619 519 l 1,45,-1
 484 254 l 2,0,1
532 14 m 1,46,-1
 504 28 l 2,47,48
 493 35 493 35 485 48.5 c 128,-1,49
 477 62 477 62 471.5 79.5 c 128,-1,50
 466 97 466 97 464 119 c 128,-1,51
 462 141 462 141 464 166 c 1,52,-1
 439 156 l 1,53,54
 437 134 437 134 440.5 112 c 128,-1,55
 444 90 444 90 452 70.5 c 128,-1,56
 460 51 460 51 471.5 35 c 128,-1,57
 483 19 483 19 497 7 c 2,58,-1
 519 -8 l 1,59,-1
 532 14 l 1,46,-1
413 778 m 1,60,-1
 343 585 l 1,61,-1
 366 581 l 1,62,-1
 432 776 l 1,63,-1
 413 778 l 1,60,-1
EndSplineSet
EndChar

StartChar: epsilontonos
Encoding: 941 941 453
Width: 453
GlyphClass: 1
Flags: W
LayerCount: 2
Fore
SplineSet
348 34 m 1,0,1
 324 27 324 27 284.5 21 c 128,-1,2
 245 15 245 15 211 13 c 0,3,4
 132 15 132 15 89.5 45.5 c 128,-1,5
 47 76 47 76 59 132 c 0,6,7
 67 163 67 163 89 187.5 c 128,-1,8
 111 212 111 212 143 228.5 c 128,-1,9
 175 245 175 245 214 253.5 c 128,-1,10
 253 262 253 262 296 261 c 2,11,-1
 337 261 l 1,12,-1
 340 284 l 1,13,-1
 285 284 l 2,14,15
 251 284 251 284 222.5 292.5 c 128,-1,16
 194 301 194 301 174.5 316.5 c 128,-1,17
 155 332 155 332 147 353 c 128,-1,18
 139 374 139 374 144 399 c 0,19,20
 149 417 149 417 161.5 436.5 c 128,-1,21
 174 456 174 456 195 472 c 128,-1,22
 216 488 216 488 246 498.5 c 128,-1,23
 276 509 276 509 316 509 c 0,24,25
 331 509 331 509 350 507.5 c 128,-1,26
 369 506 369 506 387.5 503 c 128,-1,27
 406 500 406 500 421 495.5 c 128,-1,28
 436 491 436 491 444 485 c 1,29,-1
 454 507 l 1,30,31
 432 515 432 515 395.5 522 c 128,-1,32
 359 529 359 529 324 529 c 0,33,34
 278 529 278 529 243 518.5 c 128,-1,35
 208 508 208 508 183.5 490.5 c 128,-1,36
 159 473 159 473 144.5 451 c 128,-1,37
 130 429 130 429 125 405 c 0,38,39
 120 384 120 384 124 363 c 128,-1,40
 128 342 128 342 139.5 324.5 c 128,-1,41
 151 307 151 307 169 294 c 128,-1,42
 187 281 187 281 211 275 c 1,43,-1
 207 273 l 1,44,45
 174 266 174 266 146.5 254 c 128,-1,46
 119 242 119 242 97.5 224.5 c 128,-1,47
 76 207 76 207 61.5 185 c 128,-1,48
 47 163 47 163 41 137 c 0,49,50
 34 106 34 106 43 79.5 c 128,-1,51
 52 53 52 53 75 33.5 c 128,-1,52
 98 14 98 14 133.5 3 c 128,-1,53
 169 -8 169 -8 216 -8 c 0,54,55
 236 -8 236 -8 254.5 -6.5 c 128,-1,56
 273 -5 273 -5 289.5 -2.5 c 128,-1,57
 306 0 306 0 320 2.5 c 128,-1,58
 334 5 334 5 345 7 c 1,59,-1
 348 34 l 1,0,1
406 815 m 1,60,-1
 336 622 l 1,61,-1
 359 618 l 1,62,-1
 425 813 l 1,63,-1
 406 815 l 1,60,-1
EndSplineSet
EndChar

StartChar: etatonos
Encoding: 942 942 454
Width: 541
GlyphClass: 1
Flags: W
LayerCount: 2
Fore
SplineSet
54 -2 m 1,0,1
 84 94 84 94 109 180.5 c 128,-1,2
 134 267 134 267 151 346 c 0,3,4
 158 375 158 375 163 401 c 128,-1,5
 168 427 168 427 166.5 450 c 128,-1,6
 165 473 165 473 156.5 492.5 c 128,-1,7
 148 512 148 512 127 529 c 1,8,-1
 112 509 l 1,9,10
 124 503 124 503 132.5 494.5 c 128,-1,11
 141 486 141 486 144.5 468.5 c 128,-1,12
 148 451 148 451 144 420 c 128,-1,13
 140 389 140 389 127 337 c 0,14,15
 113 267 113 267 87.5 178.5 c 128,-1,16
 62 90 62 90 30 2 c 1,17,-1
 54 -2 l 1,0,1
298 -211 m 1,18,19
 315 -177 315 -177 338 -122.5 c 128,-1,20
 361 -68 361 -68 384 -4.5 c 128,-1,21
 407 59 407 59 427 126 c 128,-1,22
 447 193 447 193 460 251 c 0,23,24
 493 395 493 395 472.5 462 c 128,-1,25
 452 529 452 529 373 529 c 0,26,27
 334 529 334 529 300 514 c 128,-1,28
 266 499 266 499 237.5 474.5 c 128,-1,29
 209 450 209 450 185.5 419.5 c 128,-1,30
 162 389 162 389 144 358 c 1,31,-1
 119 226 l 1,32,33
 129 271 129 271 153 320.5 c 128,-1,34
 177 370 177 370 211 411.5 c 128,-1,35
 245 453 245 453 287 480 c 128,-1,36
 329 507 329 507 376 507 c 0,37,38
 441 507 441 507 455.5 444.5 c 128,-1,39
 470 382 470 382 438 245 c 0,40,41
 428 199 428 199 412.5 145 c 128,-1,42
 397 91 397 91 377 33 c 128,-1,43
 357 -25 357 -25 332 -85 c 128,-1,44
 307 -145 307 -145 279 -202 c 1,45,-1
 298 -211 l 1,18,19
427 778 m 1,46,-1
 357 585 l 1,47,-1
 380 581 l 1,48,-1
 446 776 l 1,49,-1
 427 778 l 1,46,-1
EndSplineSet
EndChar

StartChar: iotatonos
Encoding: 943 943 455
Width: 248
GlyphClass: 1
Flags: W
LayerCount: 2
Fore
SplineSet
95 -8 m 2,0,1
 95 -8 95 -8 105.5 -7.5 c 128,-1,2
 116 -7 116 -7 132 -1 c 1,3,-1
 124 17 l 1,4,5
 112 14 112 14 106.5 13 c 128,-1,6
 101 12 101 12 92 10 c 0,7,8
 81 11 81 11 74.5 15.5 c 128,-1,9
 68 20 68 20 66 31.5 c 128,-1,10
 64 43 64 43 67 61.5 c 128,-1,11
 70 80 70 80 76 109 c 0,12,13
 82 134 82 134 94 181.5 c 128,-1,14
 106 229 106 229 120.5 286 c 128,-1,15
 135 343 135 343 151 403.5 c 128,-1,16
 167 464 167 464 181 517 c 1,17,-1
 156 520 l 1,18,19
 142 463 142 463 127.5 405 c 128,-1,20
 113 347 113 347 99.5 290.5 c 128,-1,21
 86 234 86 234 73.5 180 c 128,-1,22
 61 126 61 126 51 77 c 0,23,24
 44 52 44 52 45.5 35.5 c 128,-1,25
 47 19 47 19 53.5 9 c 128,-1,26
 60 -1 60 -1 71 -4.5 c 128,-1,27
 82 -8 82 -8 95 -8 c 2,0,1
235 776 m 1,28,-1
 165 583 l 1,29,-1
 188 579 l 1,30,-1
 254 774 l 1,31,-1
 235 776 l 1,28,-1
EndSplineSet
EndChar

StartChar: upsilondieresistonos
Encoding: 944 944 456
Width: 523
GlyphClass: 1
Flags: W
LayerCount: 2
Fore
SplineSet
61 163 m 0,0,1
 49 113 49 113 58.5 80 c 128,-1,2
 68 47 68 47 90.5 27.5 c 128,-1,3
 113 8 113 8 143.5 0 c 128,-1,4
 174 -8 174 -8 204 -8 c 0,5,6
 243 -8 243 -8 280 5.5 c 128,-1,7
 317 19 317 19 349.5 51 c 128,-1,8
 382 83 382 83 408.5 135 c 128,-1,9
 435 187 435 187 453 265 c 0,10,11
 457 284 457 284 462 313.5 c 128,-1,12
 467 343 467 343 471.5 377.5 c 128,-1,13
 476 412 476 412 479 448 c 128,-1,14
 482 484 482 484 482 517 c 1,15,-1
 462 520 l 1,16,17
 463 486 463 486 460 450 c 128,-1,18
 457 414 457 414 453 381 c 128,-1,19
 449 348 449 348 443.5 319 c 128,-1,20
 438 290 438 290 433 269 c 0,21,22
 404 137 404 137 346 75.5 c 128,-1,23
 288 14 288 14 207 12 c 0,24,25
 177 13 177 13 150 21 c 128,-1,26
 123 29 123 29 104.5 46 c 128,-1,27
 86 63 86 63 78 91 c 128,-1,28
 70 119 70 119 77 159 c 0,29,30
 81 171 81 171 87.5 192 c 128,-1,31
 94 213 94 213 101 238 c 128,-1,32
 108 263 108 263 114.5 287.5 c 128,-1,33
 121 312 121 312 125 331 c 0,34,35
 130 354 130 354 133.5 376 c 128,-1,36
 137 398 137 398 139 420.5 c 128,-1,37
 141 443 141 443 141.5 467 c 128,-1,38
 142 491 142 491 141 517 c 1,39,-1
 123 520 l 1,40,41
 124 461 124 461 118.5 412.5 c 128,-1,42
 113 364 113 364 104 324 c 0,43,44
 99 303 99 303 92.5 280 c 128,-1,45
 86 257 86 257 79.5 235 c 128,-1,46
 73 213 73 213 68 194.5 c 128,-1,47
 63 176 63 176 61 163 c 0,0,1
176 647 m 0,48,49
 172 632 172 632 181 619.5 c 128,-1,50
 190 607 190 607 208 607 c 0,51,52
 223 607 223 607 235.5 618 c 128,-1,53
 248 629 248 629 250 644 c 0,54,55
 255 661 255 661 246.5 671.5 c 128,-1,56
 238 682 238 682 221 682 c 256,57,58
 204 682 204 682 191.5 673 c 128,-1,59
 179 664 179 664 176 647 c 0,48,49
396 647 m 0,60,61
 393 632 393 632 402 619.5 c 128,-1,62
 411 607 411 607 428 607 c 0,63,64
 443 607 443 607 455.5 618 c 128,-1,65
 468 629 468 629 471 644 c 0,66,67
 474 661 474 661 466 671.5 c 128,-1,68
 458 682 458 682 441 682 c 0,69,70
 426 682 426 682 413 673 c 128,-1,71
 400 664 400 664 396 647 c 0,60,61
366 800 m 1,72,-1
 296 606 l 1,73,-1
 319 602 l 1,74,-1
 385 798 l 1,75,-1
 366 800 l 1,72,-1
EndSplineSet
EndChar

StartChar: alpha
Encoding: 945 945 457
Width: 647
GlyphClass: 1
Flags: W
LayerCount: 2
Fore
SplineSet
484 254 m 2,0,1
 470 225 470 225 448.5 184 c 128,-1,2
 427 143 427 143 395 105 c 128,-1,3
 363 67 363 67 319.5 40.5 c 128,-1,4
 276 14 276 14 218 13 c 0,5,6
 172 14 172 14 140 33 c 128,-1,7
 108 52 108 52 90 84 c 128,-1,8
 72 116 72 116 68.5 159 c 128,-1,9
 65 202 65 202 76 251 c 0,10,11
 89 307 89 307 113 354 c 128,-1,12
 137 401 137 401 169 435.5 c 128,-1,13
 201 470 201 470 239.5 489 c 128,-1,14
 278 508 278 508 321 508 c 0,15,16
 360 508 360 508 384.5 490 c 128,-1,17
 409 472 409 472 423.5 443 c 128,-1,18
 438 414 438 414 444 377 c 128,-1,19
 450 340 450 340 451.5 302 c 128,-1,20
 453 264 453 264 451.5 229 c 128,-1,21
 450 194 450 194 449 168 c 1,22,-1
 475 201 l 1,23,24
 480 243 480 243 481 299.5 c 128,-1,25
 482 356 482 356 469 407 c 128,-1,26
 456 458 456 458 423 493.5 c 128,-1,27
 390 529 390 529 327 529 c 0,28,29
 281 529 281 529 238.5 509.5 c 128,-1,30
 196 490 196 490 161 454 c 128,-1,31
 126 418 126 418 99.5 368 c 128,-1,32
 73 318 73 318 59 257 c 0,33,34
 46 202 46 202 50.5 153.5 c 128,-1,35
 55 105 55 105 75.5 69 c 128,-1,36
 96 33 96 33 131.5 12.5 c 128,-1,37
 167 -8 167 -8 217 -8 c 0,38,39
 255 -8 255 -8 290.5 4 c 128,-1,40
 326 16 326 16 358.5 40.5 c 128,-1,41
 391 65 391 65 420.5 101 c 128,-1,42
 450 137 450 137 474 185 c 2,43,-1
 647 519 l 1,44,-1
 619 519 l 1,45,-1
 484 254 l 2,0,1
532 14 m 1,46,-1
 504 28 l 2,47,48
 493 35 493 35 485 48.5 c 128,-1,49
 477 62 477 62 471.5 79.5 c 128,-1,50
 466 97 466 97 464 119 c 128,-1,51
 462 141 462 141 464 166 c 1,52,-1
 439 156 l 1,53,54
 437 134 437 134 440.5 112 c 128,-1,55
 444 90 444 90 452 70.5 c 128,-1,56
 460 51 460 51 471.5 35 c 128,-1,57
 483 19 483 19 497 7 c 2,58,-1
 519 -8 l 1,59,-1
 532 14 l 1,46,-1
EndSplineSet
EndChar

StartChar: beta
Encoding: 946 946 458
Width: 616
GlyphClass: 1
Flags: W
LayerCount: 2
Fore
SplineSet
71 83 m 1,0,1
 91 58 91 58 115 40.5 c 128,-1,2
 139 23 139 23 164.5 12 c 128,-1,3
 190 1 190 1 216.5 -3.5 c 128,-1,4
 243 -8 243 -8 267 -8 c 0,5,6
 313 -8 313 -8 358 10 c 128,-1,7
 403 28 403 28 440 59 c 128,-1,8
 477 90 477 90 503 131 c 128,-1,9
 529 172 529 172 538 218 c 0,10,11
 549 260 549 260 543.5 298 c 128,-1,12
 538 336 538 336 516.5 365 c 128,-1,13
 495 394 495 394 459 413 c 128,-1,14
 423 432 423 432 374 435 c 1,15,-1
 376 439 l 1,16,17
 408 456 408 456 435 474 c 128,-1,18
 462 492 462 492 483 513 c 128,-1,19
 504 534 504 534 518.5 558.5 c 128,-1,20
 533 583 533 583 539 611 c 0,21,22
 546 641 546 641 542 670 c 128,-1,23
 538 699 538 699 521 721.5 c 128,-1,24
 504 744 504 744 473.5 758 c 128,-1,25
 443 772 443 772 397 771 c 0,26,27
 341 772 341 772 300 751 c 128,-1,28
 259 730 259 730 230 692.5 c 128,-1,29
 201 655 201 655 181.5 603 c 128,-1,30
 162 551 162 551 148 491 c 2,31,-1
 -11 -209 l 1,32,-1
 7 -211 l 1,33,34
 24 -145 24 -145 42 -66.5 c 128,-1,35
 60 12 60 12 77 83 c 2,36,-1
 79 91 l 2,37,38
 86 126 86 126 94 164 c 128,-1,39
 102 202 102 202 112.5 247.5 c 128,-1,40
 123 293 123 293 135.5 349 c 128,-1,41
 148 405 148 405 164 476 c 0,42,43
 179 537 179 537 199 587.5 c 128,-1,44
 219 638 219 638 247 674 c 128,-1,45
 275 710 275 710 312.5 730 c 128,-1,46
 350 750 350 750 399 750 c 0,47,48
 439 750 439 750 464.5 738.5 c 128,-1,49
 490 727 490 727 504 708 c 128,-1,50
 518 689 518 689 521 666 c 128,-1,51
 524 643 524 643 519 619 c 0,52,53
 513 591 513 591 494.5 562 c 128,-1,54
 476 533 476 533 445 507 c 128,-1,55
 414 481 414 481 369.5 459.5 c 128,-1,56
 325 438 325 438 268 425 c 1,57,-1
 265 402 l 1,58,59
 267 403 267 403 276 404.5 c 128,-1,60
 285 406 285 406 297.5 407 c 128,-1,61
 310 408 310 408 324.5 409 c 128,-1,62
 339 410 339 410 352 409 c 0,63,64
 400 410 400 410 436 395.5 c 128,-1,65
 472 381 472 381 493.5 355 c 128,-1,66
 515 329 515 329 522.5 294 c 128,-1,67
 530 259 530 259 521 219 c 0,68,69
 511 176 511 176 486 138.5 c 128,-1,70
 461 101 461 101 426.5 73 c 128,-1,71
 392 45 392 45 351 28.5 c 128,-1,72
 310 12 310 12 268 11 c 0,73,74
 247 12 247 12 222 16.5 c 128,-1,75
 197 21 197 21 171.5 32.5 c 128,-1,76
 146 44 146 44 122 63 c 128,-1,77
 98 82 98 82 80 111 c 1,78,-1
 71 83 l 1,0,1
EndSplineSet
EndChar

StartChar: gamma
Encoding: 947 947 459
Width: 479
GlyphClass: 1
Flags: W
LayerCount: 2
Fore
SplineSet
76 -211 m 1,0,1
 121 -96 121 -96 155 9.5 c 128,-1,2
 189 115 189 115 200 208 c 128,-1,3
 211 301 211 301 193.5 381.5 c 128,-1,4
 176 462 176 462 117 528 c 1,5,-1
 99 516 l 1,6,7
 138 476 138 476 158 426.5 c 128,-1,8
 178 377 178 377 183 320.5 c 128,-1,9
 188 264 188 264 179 202 c 128,-1,10
 170 140 170 140 152.5 73 c 128,-1,11
 135 6 135 6 110.5 -65 c 128,-1,12
 86 -136 86 -136 58 -208 c 1,13,-1
 76 -211 l 1,0,1
126 1 m 1,14,15
 198 77 198 77 255 144 c 128,-1,16
 312 211 312 211 358 273.5 c 128,-1,17
 404 336 404 336 439 396 c 128,-1,18
 474 456 474 456 502 517 c 1,19,-1
 479 520 l 1,20,21
 457 462 457 462 419.5 401 c 128,-1,22
 382 340 382 340 336 280 c 128,-1,23
 290 220 290 220 240 162 c 128,-1,24
 190 104 190 104 143 51 c 1,25,-1
 126 1 l 1,14,15
EndSplineSet
EndChar

StartChar: delta
Encoding: 948 948 460
Width: 608
GlyphClass: 1
Flags: W
LayerCount: 2
Fore
SplineSet
227 -8 m 0,0,1
 280 -8 280 -8 329 12 c 128,-1,2
 378 32 378 32 418 66.5 c 128,-1,3
 458 101 458 101 486 148.5 c 128,-1,4
 514 196 514 196 526 251 c 0,5,6
 540 310 540 310 532 354 c 128,-1,7
 524 398 524 398 502 432.5 c 128,-1,8
 480 467 480 467 448.5 493.5 c 128,-1,9
 417 520 417 520 384 543 c 0,10,11
 362 563 362 563 340.5 580.5 c 128,-1,12
 319 598 319 598 304 614.5 c 128,-1,13
 289 631 289 631 281.5 649 c 128,-1,14
 274 667 274 667 279 688 c 0,15,16
 287 720 287 720 316 737.5 c 128,-1,17
 345 755 345 755 391 755 c 0,18,19
 423 755 423 755 459.5 746.5 c 128,-1,20
 496 738 496 738 530 724.5 c 128,-1,21
 564 711 564 711 592 694 c 128,-1,22
 620 677 620 677 633 659 c 1,23,-1
 653 670 l 1,24,25
 637 690 637 690 608 708.5 c 128,-1,26
 579 727 579 727 543 742 c 128,-1,27
 507 757 507 757 467.5 766 c 128,-1,28
 428 775 428 775 392 774 c 0,29,30
 338 776 338 776 304.5 752 c 128,-1,31
 271 728 271 728 261 690 c 0,32,33
 255 665 255 665 263 642.5 c 128,-1,34
 271 620 271 620 287.5 600.5 c 128,-1,35
 304 581 304 581 326 563.5 c 128,-1,36
 348 546 348 546 370 529 c 0,37,38
 400 508 400 508 430 482.5 c 128,-1,39
 460 457 460 457 481.5 424.5 c 128,-1,40
 503 392 503 392 511.5 349.5 c 128,-1,41
 520 307 520 307 508 251 c 0,42,43
 496 202 496 202 469.5 159 c 128,-1,44
 443 116 443 116 405.5 84.5 c 128,-1,45
 368 53 368 53 322 34.5 c 128,-1,46
 276 16 276 16 227 15 c 0,47,48
 181 16 181 16 145 33.5 c 128,-1,49
 109 51 109 51 86.5 81.5 c 128,-1,50
 64 112 64 112 56.5 153.5 c 128,-1,51
 49 195 49 195 60 244 c 0,52,53
 73 297 73 297 101.5 341.5 c 128,-1,54
 130 386 130 386 168.5 418 c 128,-1,55
 207 450 207 450 251.5 467 c 128,-1,56
 296 484 296 484 341 483 c 0,57,58
 382 485 382 485 415.5 470.5 c 128,-1,59
 449 456 449 456 478 432 c 1,60,-1
 462 471 l 1,61,62
 439 491 439 491 408 501 c 128,-1,63
 377 511 377 511 346 510 c 0,64,65
 297 510 297 510 249 491.5 c 128,-1,66
 201 473 201 473 159.5 439 c 128,-1,67
 118 405 118 405 87.5 356.5 c 128,-1,68
 57 308 57 308 43 248 c 0,69,70
 31 195 31 195 39 148 c 128,-1,71
 47 101 47 101 71.5 66.5 c 128,-1,72
 96 32 96 32 136 12 c 128,-1,73
 176 -8 176 -8 227 -8 c 0,0,1
EndSplineSet
EndChar

StartChar: epsilon
Encoding: 949 949 461
Width: 455
GlyphClass: 1
Flags: W
LayerCount: 2
Fore
SplineSet
348 34 m 1,0,1
 324 27 324 27 284.5 21 c 128,-1,2
 245 15 245 15 211 13 c 0,3,4
 132 15 132 15 89.5 45.5 c 128,-1,5
 47 76 47 76 59 132 c 0,6,7
 67 163 67 163 89 187.5 c 128,-1,8
 111 212 111 212 143 228.5 c 128,-1,9
 175 245 175 245 214 253.5 c 128,-1,10
 253 262 253 262 296 261 c 2,11,-1
 337 261 l 1,12,-1
 340 284 l 1,13,-1
 285 284 l 2,14,15
 251 284 251 284 222.5 292.5 c 128,-1,16
 194 301 194 301 174.5 316.5 c 128,-1,17
 155 332 155 332 147 353 c 128,-1,18
 139 374 139 374 144 399 c 0,19,20
 149 417 149 417 161.5 436.5 c 128,-1,21
 174 456 174 456 195 472 c 128,-1,22
 216 488 216 488 246 498.5 c 128,-1,23
 276 509 276 509 316 509 c 0,24,25
 331 509 331 509 350 507.5 c 128,-1,26
 369 506 369 506 387.5 503 c 128,-1,27
 406 500 406 500 421 495.5 c 128,-1,28
 436 491 436 491 444 485 c 1,29,-1
 454 507 l 1,30,31
 432 515 432 515 395.5 522 c 128,-1,32
 359 529 359 529 324 529 c 0,33,34
 278 529 278 529 243 518.5 c 128,-1,35
 208 508 208 508 183.5 490.5 c 128,-1,36
 159 473 159 473 144.5 451 c 128,-1,37
 130 429 130 429 125 405 c 0,38,39
 120 384 120 384 124 363 c 128,-1,40
 128 342 128 342 139.5 324.5 c 128,-1,41
 151 307 151 307 169 294 c 128,-1,42
 187 281 187 281 211 275 c 1,43,-1
 207 273 l 1,44,45
 174 266 174 266 146.5 254 c 128,-1,46
 119 242 119 242 97.5 224.5 c 128,-1,47
 76 207 76 207 61.5 185 c 128,-1,48
 47 163 47 163 41 137 c 0,49,50
 34 106 34 106 43 79.5 c 128,-1,51
 52 53 52 53 75 33.5 c 128,-1,52
 98 14 98 14 133.5 3 c 128,-1,53
 169 -8 169 -8 216 -8 c 0,54,55
 236 -8 236 -8 254.5 -6.5 c 128,-1,56
 273 -5 273 -5 289.5 -2.5 c 128,-1,57
 306 0 306 0 320 2.5 c 128,-1,58
 334 5 334 5 345 7 c 1,59,-1
 348 34 l 1,0,1
EndSplineSet
EndChar

StartChar: zeta
Encoding: 950 950 462
Width: 484
GlyphClass: 1
Flags: W
LayerCount: 2
Fore
SplineSet
242 -145 m 0,0,1
 271 -145 271 -145 297.5 -138 c 128,-1,2
 324 -131 324 -131 344.5 -118.5 c 128,-1,3
 365 -106 365 -106 378.5 -89.5 c 128,-1,4
 392 -73 392 -73 395 -54 c 0,5,6
 401 -38 401 -38 397 -23.5 c 128,-1,7
 393 -9 393 -9 382 1 c 128,-1,8
 371 11 371 11 354 16.5 c 128,-1,9
 337 22 337 22 315 21 c 0,10,11
 303 22 303 22 290 21 c 128,-1,12
 277 20 277 20 262 18 c 128,-1,13
 247 16 247 16 229.5 13.5 c 128,-1,14
 212 11 212 11 191 10 c 0,15,16
 163 11 163 11 138.5 17.5 c 128,-1,17
 114 24 114 24 97.5 41.5 c 128,-1,18
 81 59 81 59 76 90.5 c 128,-1,19
 71 122 71 122 81 173 c 0,20,21
 91 215 91 215 109.5 260.5 c 128,-1,22
 128 306 128 306 155.5 352.5 c 128,-1,23
 183 399 183 399 219 446.5 c 128,-1,24
 255 494 255 494 299 540 c 128,-1,25
 343 586 343 586 395.5 629.5 c 128,-1,26
 448 673 448 673 508 711 c 1,27,-1
 513 732 l 1,28,-1
 345 732 l 2,29,30
 326 732 326 732 315.5 734.5 c 128,-1,31
 305 737 305 737 300 741 c 128,-1,32
 295 745 295 745 294.5 750.5 c 128,-1,33
 294 756 294 756 295 762 c 0,34,35
 298 766 298 766 303.5 775 c 128,-1,36
 309 784 309 784 314 789 c 1,37,-1
 293 804 l 1,38,39
 284 793 284 793 281 784.5 c 128,-1,40
 278 776 278 776 276 768 c 0,41,42
 273 755 273 755 274.5 744 c 128,-1,43
 276 733 276 733 284 725 c 128,-1,44
 292 717 292 717 307 712 c 128,-1,45
 322 707 322 707 344 706 c 2,46,-1
 471 706 l 1,47,-1
 471 715 l 1,48,49
 427 690 427 690 364.5 635.5 c 128,-1,50
 302 581 302 581 241 508.5 c 128,-1,51
 180 436 180 436 129.5 351 c 128,-1,52
 79 266 79 266 59 179 c 0,53,54
 44 113 44 113 54.5 75.5 c 128,-1,55
 65 38 65 38 88.5 19.5 c 128,-1,56
 112 1 112 1 142 -3.5 c 128,-1,57
 172 -8 172 -8 196 -8 c 0,58,59
 218 -8 218 -8 235.5 -7 c 128,-1,60
 253 -6 253 -6 267 -4.5 c 128,-1,61
 281 -3 281 -3 292.5 -1.5 c 128,-1,62
 304 0 304 0 314 0 c 0,63,64
 349 0 349 0 365.5 -13.5 c 128,-1,65
 382 -27 382 -27 377 -51 c 0,66,67
 373 -66 373 -66 361 -80 c 128,-1,68
 349 -94 349 -94 331 -104.5 c 128,-1,69
 313 -115 313 -115 290 -121 c 128,-1,70
 267 -127 267 -127 243 -127 c 0,71,72
 224 -127 224 -127 198.5 -122.5 c 128,-1,73
 173 -118 173 -118 151 -109 c 1,74,-1
 149 -133 l 1,75,76
 177 -139 177 -139 201.5 -142 c 128,-1,77
 226 -145 226 -145 242 -145 c 0,0,1
EndSplineSet
EndChar

StartChar: eta
Encoding: 951 951 463
Width: 548
GlyphClass: 1
Flags: W
LayerCount: 2
Fore
SplineSet
54 -2 m 1,0,1
 84 94 84 94 109 180.5 c 128,-1,2
 134 267 134 267 151 346 c 0,3,4
 158 375 158 375 163 401 c 128,-1,5
 168 427 168 427 166.5 450 c 128,-1,6
 165 473 165 473 156.5 492.5 c 128,-1,7
 148 512 148 512 127 529 c 1,8,-1
 112 509 l 1,9,10
 124 503 124 503 132.5 494.5 c 128,-1,11
 141 486 141 486 144.5 468.5 c 128,-1,12
 148 451 148 451 144 420 c 128,-1,13
 140 389 140 389 127 337 c 0,14,15
 113 267 113 267 87.5 178.5 c 128,-1,16
 62 90 62 90 30 2 c 1,17,-1
 54 -2 l 1,0,1
298 -211 m 1,18,19
 315 -177 315 -177 338 -122.5 c 128,-1,20
 361 -68 361 -68 384 -4.5 c 128,-1,21
 407 59 407 59 427 126 c 128,-1,22
 447 193 447 193 460 251 c 0,23,24
 493 395 493 395 472.5 462 c 128,-1,25
 452 529 452 529 373 529 c 0,26,27
 334 529 334 529 300 514 c 128,-1,28
 266 499 266 499 237.5 474.5 c 128,-1,29
 209 450 209 450 185.5 419.5 c 128,-1,30
 162 389 162 389 144 358 c 1,31,-1
 119 226 l 1,32,33
 129 271 129 271 153 320.5 c 128,-1,34
 177 370 177 370 211 411.5 c 128,-1,35
 245 453 245 453 287 480 c 128,-1,36
 329 507 329 507 376 507 c 0,37,38
 441 507 441 507 455.5 444.5 c 128,-1,39
 470 382 470 382 438 245 c 0,40,41
 428 199 428 199 412.5 145 c 128,-1,42
 397 91 397 91 377 33 c 128,-1,43
 357 -25 357 -25 332 -85 c 128,-1,44
 307 -145 307 -145 279 -202 c 1,45,-1
 298 -211 l 1,18,19
EndSplineSet
EndChar

StartChar: theta
Encoding: 952 952 464
Width: 611
GlyphClass: 1
Flags: W
LayerCount: 2
Fore
SplineSet
248 -8 m 0,0,1
 297 -8 297 -8 345 21.5 c 128,-1,2
 393 51 393 51 435 103 c 128,-1,3
 477 155 477 155 510.5 226.5 c 128,-1,4
 544 298 544 298 564 383 c 0,5,6
 584 470 584 470 582.5 542 c 128,-1,7
 581 614 581 614 562 665 c 128,-1,8
 543 716 543 716 507.5 744 c 128,-1,9
 472 772 472 772 422 771 c 0,10,11
 374 772 374 772 325.5 743 c 128,-1,12
 277 714 277 714 234.5 662 c 128,-1,13
 192 610 192 610 157.5 539 c 128,-1,14
 123 468 123 468 104 384 c 0,15,16
 84 292 84 292 86 219.5 c 128,-1,17
 88 147 88 147 108 96.5 c 128,-1,18
 128 46 128 46 164 19 c 128,-1,19
 200 -8 200 -8 248 -8 c 0,0,1
244 11 m 0,20,21
 197 12 197 12 166.5 41.5 c 128,-1,22
 136 71 136 71 121.5 120 c 128,-1,23
 107 169 107 169 107.5 234 c 128,-1,24
 108 299 108 299 123 370 c 0,25,26
 143 455 143 455 176.5 525 c 128,-1,27
 210 595 210 595 251.5 645 c 128,-1,28
 293 695 293 695 338 722.5 c 128,-1,29
 383 750 383 750 425 750 c 0,30,31
 473 750 473 750 503.5 722 c 128,-1,32
 534 694 534 694 548.5 645 c 128,-1,33
 563 596 563 596 561.5 531.5 c 128,-1,34
 560 467 560 467 544 393 c 0,35,36
 525 308 525 308 492 238 c 128,-1,37
 459 168 459 168 418.5 118 c 128,-1,38
 378 68 378 68 333 40 c 128,-1,39
 288 12 288 12 244 11 c 0,20,21
549 375 m 1,40,-1
 554 394 l 1,41,-1
 119 394 l 1,42,-1
 115 375 l 1,43,-1
 549 375 l 1,40,-1
EndSplineSet
EndChar

StartChar: iota
Encoding: 953 953 465
Width: 248
GlyphClass: 1
Flags: W
LayerCount: 2
Fore
SplineSet
95 -8 m 2,0,1
 95 -8 95 -8 105.5 -7.5 c 128,-1,2
 116 -7 116 -7 132 -1 c 1,3,-1
 124 17 l 1,4,5
 112 14 112 14 106.5 13 c 128,-1,6
 101 12 101 12 92 10 c 0,7,8
 81 11 81 11 74.5 15.5 c 128,-1,9
 68 20 68 20 66 31.5 c 128,-1,10
 64 43 64 43 67 61.5 c 128,-1,11
 70 80 70 80 76 109 c 0,12,13
 82 134 82 134 94 181.5 c 128,-1,14
 106 229 106 229 120.5 286 c 128,-1,15
 135 343 135 343 151 403.5 c 128,-1,16
 167 464 167 464 181 517 c 1,17,-1
 156 520 l 1,18,19
 142 463 142 463 127.5 405 c 128,-1,20
 113 347 113 347 99.5 290.5 c 128,-1,21
 86 234 86 234 73.5 180 c 128,-1,22
 61 126 61 126 51 77 c 0,23,24
 44 52 44 52 45.5 35.5 c 128,-1,25
 47 19 47 19 53.5 9 c 128,-1,26
 60 -1 60 -1 71 -4.5 c 128,-1,27
 82 -8 82 -8 95 -8 c 2,0,1
EndSplineSet
EndChar

StartChar: kappa
Encoding: 954 954 466
Width: 533
GlyphClass: 1
Flags: W
LayerCount: 2
Fore
SplineSet
36 -4 m 1,0,1
 87 104 87 104 154 193.5 c 128,-1,2
 221 283 221 283 291 349 c 128,-1,3
 361 415 361 415 428 456 c 128,-1,4
 495 497 495 497 546 510 c 1,5,-1
 550 529 l 1,6,7
 509 522 509 522 451.5 492.5 c 128,-1,8
 394 463 394 463 330.5 413 c 128,-1,9
 267 363 267 363 203.5 293 c 128,-1,10
 140 223 140 223 87 133 c 1,11,-1
 87 129 l 1,12,13
 113 194 113 194 128.5 249 c 128,-1,14
 144 304 144 304 151 344 c 0,15,16
 163 393 163 393 165 424.5 c 128,-1,17
 167 456 167 456 162.5 476.5 c 128,-1,18
 158 497 158 497 147.5 509 c 128,-1,19
 137 521 137 521 124 529 c 1,20,-1
 108 509 l 1,21,22
 124 501 124 501 133 489 c 128,-1,23
 142 477 142 477 144 458 c 128,-1,24
 146 439 146 439 141.5 412.5 c 128,-1,25
 137 386 137 386 128 350 c 0,26,27
 111 262 111 262 80 173.5 c 128,-1,28
 49 85 49 85 14 0 c 1,29,-1
 36 -4 l 1,0,1
416 13 m 1,30,31
 382 39 382 39 357 76.5 c 128,-1,32
 332 114 332 114 314.5 157.5 c 128,-1,33
 297 201 297 201 287 247 c 128,-1,34
 277 293 277 293 272 335 c 1,35,-1
 246 318 l 1,36,37
 253 276 253 276 267.5 227.5 c 128,-1,38
 282 179 282 179 302 133.5 c 128,-1,39
 322 88 322 88 347.5 50 c 128,-1,40
 373 12 373 12 402 -8 c 1,41,-1
 416 13 l 1,30,31
EndSplineSet
EndChar

StartChar: lambda
Encoding: 955 955 467
Width: 586
GlyphClass: 1
Flags: W
LayerCount: 2
Fore
SplineSet
453 -8 m 0,0,1
 461 -8 461 -8 475 -4.5 c 128,-1,2
 489 -1 489 -1 494 2 c 1,3,-1
 487 19 l 1,4,5
 474 17 474 17 466.5 15.5 c 128,-1,6
 459 14 459 14 451 12 c 0,7,8
 441 13 441 13 432 19.5 c 128,-1,9
 423 26 423 26 415 47 c 128,-1,10
 407 68 407 68 399 106.5 c 128,-1,11
 391 145 391 145 384 209 c 2,12,-1
 349 534 l 2,13,14
 345 582 345 582 339.5 625.5 c 128,-1,15
 334 669 334 669 322.5 701.5 c 128,-1,16
 311 734 311 734 291.5 753 c 128,-1,17
 272 772 272 772 239 771 c 0,18,19
 221 773 221 773 202.5 765.5 c 128,-1,20
 184 758 184 758 173 753 c 1,21,-1
 180 737 l 1,22,23
 191 743 191 743 207 747.5 c 128,-1,24
 223 752 223 752 237 752 c 0,25,26
 263 752 263 752 278.5 737.5 c 128,-1,27
 294 723 294 723 302.5 696.5 c 128,-1,28
 311 670 311 670 315.5 631.5 c 128,-1,29
 320 593 320 593 324 545 c 1,30,-1
 330 519 l 1,31,-1
 331 536 l 1,32,-1
 -38 0 l 1,33,-1
 -13 0 l 1,34,-1
 331 501 l 1,35,-1
 335 501 l 1,36,-1
 365 216 l 2,37,38
 373 155 373 155 380 112 c 128,-1,39
 387 69 387 69 396.5 42.5 c 128,-1,40
 406 16 406 16 419.5 4 c 128,-1,41
 433 -8 433 -8 453 -8 c 0,0,1
EndSplineSet
EndChar

